<?xml version="1.0" encoding="UTF-8" standalone="no"?>
<!DOCTYPE svg PUBLIC "-//W3C//DTD SVG 1.1//EN" "http://www.w3.org/Graphics/SVG/1.1/DTD/svg11.dtd">
<svg width="100%" height="100%" viewBox="0 0 12 20" version="1.1" xmlns="http://www.w3.org/2000/svg" xmlns:xlink="http://www.w3.org/1999/xlink" xml:space="preserve" xmlns:serif="http://www.serif.com/" style="fill-rule:evenodd;clip-rule:evenodd;stroke-linejoin:round;stroke-miterlimit:2;">
    <g transform="matrix(1,0,0,1,-309,-147)">
        <g id="Close-Button" transform="matrix(1,0,0,1,309.423,147.367)">
            <rect x="0" y="0" width="11" height="19" style="fill:none;"/>
            <g transform="matrix(1,0,0,1,9.8486,17.5845)">
                <g id="Layer-1" serif:id="Layer 1">
                    <path d="M0,-16.169C-0.955,-13.882 -1.783,-11.613 -2.846,-8.534C-1.98,-5.438 -1.297,-3.15 -0.433,-0.432L-3.079,0.288C-3.439,-1.566 -3.871,-3.511 -4.412,-5.653C-4.97,-3.763 -5.492,-1.836 -5.853,-0.216L-8.697,-0.792C-7.652,-3.259 -6.771,-5.401 -5.636,-8.624C-6.446,-11.308 -7.166,-13.576 -7.959,-15.7L-5.114,-16.061C-4.861,-14.729 -4.52,-13.126 -4.105,-11.686C-3.529,-13.324 -3.025,-14.944 -2.611,-16.457L0,-16.169Z" style="fill:rgb(233,116,36);fill-rule:nonzero;"/>
                </g>
            </g>
        </g>
    </g>
</svg>
