<?xml version="1.0" encoding="UTF-8"?>
<svg id="Layer_1" xmlns="http://www.w3.org/2000/svg" viewBox="0 0 45 46">
  <defs>
    <style>
      .cls-1 {
        fill: #fed777;
      }

      .cls-2 {
        fill: #ffc023;
      }

      .cls-3 {
        fill: #c23d1c;
      }

      .cls-4 {
        opacity: .2;
      }
    </style>
  </defs>
  <circle class="cls-4" cx="23.883" cy="24.844" r="20.5"/>
  <g>
    <ellipse class="cls-1" cx="21.517" cy="22.216" rx="19.711" ry="20.917" transform="translate(-5.477 7.122) rotate(-16.704)"/>
    <path class="cls-2" d="M2.494,27.924C-2.027,13.506,7.233-2.084,23.511.744c17.574,3.528,25.812,26.233,11.979,38.855-12.459,10.682-28.822,3.027-32.996-11.675h0ZM2.781,27.838c4.87,15.877,27.527,18.902,35.182,3.646,6.105-11.757-.63-28.031-14.674-29.099C10.228,1.25-1.262,15.211,2.781,27.838h0Z"/>
  </g>
  <path id="path11774" class="cls-3" d="M14.243,10.523l-1.667,9.167c-.244,1.342,2.969,1.968,2.917,3.333l-.417,10.833c-.064,1.666,1.667,1.667,1.667,1.667,0,0,1.731-.001,1.667-1.667l-.417-10.833c-.052-1.363,2.889-1.968,2.917-3.333l-1.667-9.167h-.833l.417,6.667-1.25.833-.417-7.5h-.833l-.417,7.5-1.25-.833.417-6.667h-.833ZM28.409,10.523c-1.227,0-3.274,1.092-4.092,2.728-.682,1.227-.908,3.969-.908,5.605v4.167c0,1.364,1.818,1.667,2.5,1.667l-.833,9.167c-.151,1.66,1.667,1.667,1.667,1.667,0,0,1.667,0,1.667-1.667V10.523Z"/>
</svg>