<?xml version="1.0" encoding="UTF-8"?>
<svg id="Layer_1" xmlns="http://www.w3.org/2000/svg" xmlns:xlink="http://www.w3.org/1999/xlink" viewBox="0 0 205.844 113.179">
  <defs>
    <style>
      .cls-1 {
        fill: #fed777;
      }

      .cls-2 {
        filter: url(#drop-shadow-5);
      }

      .cls-3 {
        filter: url(#drop-shadow-4);
      }

      .cls-4 {
        fill: #df4620;
      }

      .cls-5 {
        fill: #ffc023;
      }

      .cls-6 {
        fill: #c23d1c;
      }

      .cls-7 {
        opacity: .2;
      }

      .cls-8 {
        fill: #ca480d;
      }
    </style>
    <filter id="drop-shadow-4" x="49.912" y="11.652" width="128.162" height="33.708" filterUnits="userSpaceOnUse">
      <feOffset dx="2" dy="2"/>
      <feGaussianBlur result="blur" stdDeviation="0"/>
      <feFlood flood-color="#fdcf57" flood-opacity="1"/>
      <feComposite in2="blur" operator="in"/>
      <feComposite in="SourceGraphic"/>
    </filter>
    <filter id="drop-shadow-5" x="50.09" y="44.392" width="140.275" height="35.049" filterUnits="userSpaceOnUse">
      <feOffset dx="1" dy="1"/>
      <feGaussianBlur result="blur-2" stdDeviation="0"/>
      <feFlood flood-color="#fdcf57" flood-opacity="1"/>
      <feComposite in2="blur-2" operator="in"/>
      <feComposite in="SourceGraphic"/>
    </filter>
  </defs>
  <path class="cls-7" d="M21.979,4.013l2.782,90.047,1.53,3.092,82.47-4.092,14,19,9-21,70-3,3.107-79.616-1.107-3.384L21.979,4.013ZM28.758,93.986l5.948-.281-5.944.354-.003-.074ZM122.542,101.807l1.186-2.166-.968,2.419-.219-.253Z"/>
  <g>
    <polygon class="cls-1" points="22.076 2.059 200.761 6.397 196.719 82.159 128.428 86.233 119.761 102.059 108.599 87.169 26.197 91.059 22.076 2.059"/>
    <path class="cls-5" d="M121.761,107.059l-13.126-16.842-83.344,3.935L20.979,1.013l182.89,4.431-3.107,79.616-70,3-9,19ZM110.565,86.121l11.196,12.938,6-15,66-3,5.893-71.708L23.761,4.059l4,87,82.804-4.938Z"/>
  </g>
  <path id="path6342-3" class="cls-4" d="M19.152,29.205s-2.617,1.048-1.57,3.665l5.238,13.087c2.095,5.235,6.807,9.422,14.659,6.279s8.374-9.425,6.279-14.659l-5.238-13.087c-1.048-2.617-3.665-1.57-3.665-1.57-1.853.741-4.128,4.689-6.804,5.76s-6.841-.299-8.899.525ZM23.865,33.392c1.446-.579,3.086.124,3.665,1.57s-.124,3.086-1.57,3.665-3.086-.124-3.665-1.57.124-3.086,1.57-3.665ZM34.334,29.202c1.446-.579,3.086.124,3.665,1.57s-.124,3.086-1.57,3.665-3.086-.124-3.665-1.57.124-3.086,1.57-3.665ZM26.746,44.385l6.543-2.619,6.543-2.619s2.619,6.543-3.924,9.162c-6.543,2.619-9.162-3.924-9.162-3.924Z"/>
  <g class="cls-3">
    <path class="cls-6" d="M54.412,14.412c-.03,2.28-.03,4.59-.03,6.899,0,4.65.03,9.27.09,13.35l5.04.12-.271,4.35-9.089-.12c.029-2.01.029-4.11.029-6.209,0-5.91-.06-12.18-.27-18.089l4.5-.3Z"/>
    <path class="cls-4" d="M63.344,34.943l4.052.126-.146,3.002-6.929-.083c0-1.554.021-3.149.021-4.808,0-3.947-.062-8.062-.188-12.031l6.95-.504.188,3.023-3.989.294c.042,1.134.062,2.1.062,3.464h3.633v2.918h-3.653v4.598Z"/>
    <path class="cls-6" d="M71.451,20.435l.021,1.008c.86-.966,2.036-1.386,3.002-1.386.861,0,1.826.441,2.184,1.743.777-1.176,1.658-1.701,3.045-1.701,1.028,0,2.141.504,2.141,3.275,0,4.409-.545,8.902-.797,13.626l-3.297.168c.525-4.514.882-10.099.882-12.808,0-.714-.399-.966-.84-.966s-.924.273-1.092.609c-.21,3.779-.294,9.595-.483,13.584l-3.191.147c.525-4.514.567-10.099.609-13.542,0-.651-.336-.903-.756-.903-.441,0-.924.294-1.092.63-.314,3.779-.294,9.091-.42,13.228l-3.297.084c.336-5.795.504-9.385.504-13.647,0-1.008,0-2.037-.021-3.149h2.897Z"/>
    <path class="cls-4" d="M90.224,30.618c0,3.359-1.135,6.719-3.297,9.511-2.897-2.435-4.346-6.088-4.346-10.036,0-3.359,1.049-6.929,3.086-10.078,3.107,3.002,4.557,6.803,4.557,10.603ZM85.353,29.673c0,1.743.44,3.464,1.301,4.913.483-1.449.735-2.792.735-4.073,0-1.659-.42-3.212-1.239-4.808-.545,1.26-.797,2.625-.797,3.968Z"/>
    <path class="cls-6" d="M94.067,21.548l.042.714c.882-1.008,2.058-1.491,3.149-1.491,1.008,0,2.288.462,2.288,3.401,0,3.926-.272,9.721-.336,14.256l-3.232.252c.293-3.569.356-7.832.356-11.17,0-.903-.021-1.764-.021-2.52,0-.672-.336-.924-.735-.924-.44,0-.966.336-1.071.777-.146,2.834-.188,6.467-.188,9.868,0,1.134.021,2.247.021,3.296l-3.296.23c.147-3.842.21-6.55.21-9.154,0-2.226-.042-4.388-.084-7.202l2.897-.336Z"/>
    <path class="cls-6" d="M114.174,16.722l-.9,2.34-2.76-1.2c-.72.66-1.05,2.13-1.05,3.36,0,2.7,1.71,4.56,2.82,6.51,1.05,1.92,1.859,3.78,1.859,6.27,0,4.17-1.8,7.439-6.329,9.359l-1.561-5.13c2.7-.93,3.24-3.299,3.24-5.099,0-1.38-.42-2.64-1.2-4.08-1.38-2.43-2.939-4.5-2.939-7.56,0-2.55,1.529-6.96,4.529-8.16l4.29,3.39Z"/>
    <path class="cls-4" d="M114.847,20.75h8.042l-.084,3.023h-2.436c-.063,2.079-.084,4.01-.084,5.879,0,2.75.063,5.459.104,8.524l-3.212.146c.042-3.17.104-5.899.104-8.755,0-1.827-.021-3.716-.084-5.795h-2.436l.084-3.023Z"/>
    <path class="cls-6" d="M123.908,38.141c.03-1.439.18-2.85.18-4.5l4.26.3c-.09,1.5-.149,2.97-.149,4.5l-4.29-.3Z"/>
    <path class="cls-6" d="M142.927,14.832l-.9,2.37-2.52-1.02c-.69.66-.99,2.04-.99,3.21,0,2.79,1.71,4.41,2.82,6.42,1.08,1.92,1.83,4.08,1.83,6.42,0,3.12-1.171,6.359-3.87,10.079l-4.021-2.7c2.311-2.639,3.271-4.859,3.271-8.099,0-4.59-4.14-7.14-4.14-11.79,0-2.49,1.56-6.87,4.529-8.07l3.99,3.18Z"/>
    <path class="cls-4" d="M143.902,20.75h8.042l-.084,3.023h-2.436c-.063,2.079-.084,4.01-.084,5.879,0,2.75.063,5.459.104,8.524l-3.212.146c.042-3.17.104-5.899.104-8.755,0-1.827-.021-3.716-.084-5.795h-2.436l.084-3.023Z"/>
    <path class="cls-6" d="M155.808,37.547c.127-1.323.189-2.499.231-3.59l-2.583.063c-.041.924-.084,1.89-.084,2.897,0,.357,0,.756.021,1.112l-2.918-.167c.062-8.44,2.12-14.865,5.291-18.729,2.1,3.611,3.254,7.685,3.254,14.508,0,1.176-.021,2.457-.084,3.8l-3.129.105ZM153.772,30.996l2.247-.084c-.084-2.079-.379-3.779-.777-5.48-.672,1.554-1.154,3.422-1.47,5.564Z"/>
    <path class="cls-4" d="M159.674,31.206c0-4.241,2.036-8.524,4.724-10.876l3.044,3.128-.818,1.428-2.1-.966c-1.113,1.323-1.806,3.863-1.806,6.362,0,1.89.42,3.779,1.302,5.081.945-1.491,1.302-3.632,1.322-5.396l-1.176-.189.252-1.47,3.486-.126c.104.735.125,1.47.125,2.205,0,3.548-1.133,6.887-3.82,9.889-3.255-2.352-4.535-5.69-4.535-9.07Z"/>
    <path class="cls-6" d="M172.021,34.943l4.053.126-.147,3.002-6.929-.083c0-1.554.021-3.149.021-4.808,0-3.947-.063-8.062-.189-12.031l6.949-.504.189,3.023-3.989.294c.042,1.134.063,2.1.063,3.464h3.632v2.918h-3.653v4.598Z"/>
  </g>
  <g class="cls-2">
    <path class="cls-8" d="M52.551,45.11c.406-.193.833-.337,1.279-.431.447-.093.907-.123,1.38-.09.474.033.934.157,1.38.37.447.214.863.533,1.25.96s.721.993,1,1.7c.254.6.421,1.276.5,2.03.08.753.073,1.533-.02,2.34-.094.807-.283,1.617-.57,2.43-.286.813-.667,1.587-1.14,2.32-.474.733-1.05,1.399-1.73,2-.68.6-1.46,1.087-2.34,1.46-.467.267-.939.206-1.42-.18-.253-.187-.47-.37-.649-.551-.181-.18-.384-.402-.61-.67-.08-.12-.16-.236-.24-.35s-.143-.243-.189-.39c-.047-.147-.077-.323-.091-.53-.013-.207,0-.47.04-.79l1.12-11.021c.293-.213.644-.416,1.051-.609ZM54.61,55.58c.473-.573.86-1.167,1.16-1.78s.522-1.227.67-1.84c.146-.613.227-1.173.24-1.68.013-.347,0-.653-.04-.92s-.094-.493-.16-.681c-.147-.373-.403-.649-.771-.83-.366-.18-.803-.156-1.31.07-.294,1.453-.563,2.94-.811,4.46-.246,1.521-.483,3.087-.71,4.7.681-.427,1.257-.927,1.73-1.5Z"/>
    <path class="cls-8" d="M65.843,50.712c.107.262.188.556.245.882.084.579.121,1.221.111,1.926-.009.704-.072,1.413-.188,2.128-.117.714-.287,1.399-.511,2.058-.225.658-.509,1.225-.854,1.701-.243.289-.502.482-.777.581-.275.098-.59.119-.944.062-.233-.037-.474-.096-.722-.175-.247-.079-.474-.198-.679-.356-.158-.131-.317-.299-.476-.505-.159-.205-.28-.438-.364-.699-.196-.616-.303-1.316-.322-2.101-.019-.784.045-1.575.189-2.373s.366-1.562.665-2.296c.299-.732.672-1.346,1.12-1.841.187-.196.413-.343.679-.441.266-.098.516-.123.749-.076.308.065.604.165.889.301.285.135.521.301.707.497.215.224.376.467.483.728ZM63.667,51.307c-.149.191-.297.448-.441.771s-.282.688-.413,1.099c-.131.411-.238.808-.322,1.19-.084.392-.146.808-.188,1.246s-.059.847-.049,1.225c.009.378.046.702.111.974.065.271.168.438.309.504.121.065.254.027.398-.112s.285-.357.42-.651c.136-.294.264-.65.386-1.07.121-.42.224-.878.308-1.372.074-.393.131-.812.168-1.261.037-.447.054-.867.049-1.26-.005-.392-.035-.728-.091-1.008s-.14-.443-.252-.49c-.112-.046-.243.026-.392.217Z"/>
    <path class="cls-8" d="M72.255,53.89c-.051.057-.151.075-.301.057-.401-.075-.698-.238-.889-.49-.191-.252-.307-.578-.344-.979-.009-.075-.016-.149-.021-.225-.005-.074-.007-.154-.007-.238s-.003-.165-.007-.244c-.005-.08-.013-.156-.021-.231-.019-.14-.04-.261-.062-.364-.023-.103-.063-.163-.119-.182-.112-.047-.245.019-.399.196-.154.177-.311.427-.469.749-.159.321-.315.702-.469,1.141-.154.438-.287.9-.399,1.386-.103.401-.18.821-.231,1.26-.051.439-.072.848-.062,1.226.009.378.047.7.112.966.064.266.163.432.294.497.111.056.226.042.343-.042.116-.084.233-.215.35-.392.117-.178.229-.395.336-.651s.208-.529.302-.819c-.355.028-.631-.062-.826-.272-.196-.21-.346-.554-.448-1.029-.047-.215,0-.35.14-.406.141-.056.322-.106.546-.153.215-.065.439-.119.673-.161.232-.042.434-.082.602-.119.196-.037.357-.033.483.014s.24.149.343.309c.074.103.145.215.21.336s.126.233.182.336c.103.195.159.368.168.518.01.149-.009.341-.056.574-.196.793-.434,1.47-.714,2.03-.28.56-.588.994-.924,1.302-.448.383-.947.509-1.498.378-.495-.094-.957-.289-1.387-.588-.158-.131-.312-.306-.462-.525-.148-.219-.261-.459-.336-.721-.14-.401-.23-.856-.272-1.365s-.04-1.043.007-1.603c.047-.561.133-1.125.259-1.694s.287-1.117.483-1.645c.195-.527.425-1.016.686-1.464.262-.447.551-.825.868-1.134.196-.195.415-.312.658-.35.242-.037.462-.037.658,0,.279.047.566.143.86.287s.539.324.735.539c.187.195.324.413.413.65.089.238.151.507.188.806.019.158.03.341.035.546s.005.408,0,.608c-.005.201-.014.395-.027.581-.015.188-.031.346-.05.477-.037.158-.081.266-.133.321Z"/>
    <path class="cls-8" d="M78.443,53.89c-.051.057-.151.075-.301.057-.401-.075-.698-.238-.889-.49-.191-.252-.307-.578-.344-.979-.009-.075-.016-.149-.021-.225-.005-.074-.007-.154-.007-.238s-.003-.165-.007-.244c-.005-.08-.013-.156-.021-.231-.019-.14-.04-.261-.062-.364-.023-.103-.063-.163-.119-.182-.112-.047-.245.019-.399.196-.154.177-.311.427-.469.749-.159.321-.315.702-.469,1.141-.154.438-.287.9-.399,1.386-.103.401-.18.821-.231,1.26-.051.439-.072.848-.062,1.226.009.378.047.7.112.966.064.266.163.432.294.497.111.056.226.042.343-.042.116-.084.233-.215.35-.392.117-.178.229-.395.336-.651s.208-.529.302-.819c-.355.028-.631-.062-.826-.272-.196-.21-.346-.554-.448-1.029-.047-.215,0-.35.14-.406.141-.056.322-.106.546-.153.215-.065.439-.119.673-.161.232-.042.434-.082.602-.119.196-.037.357-.033.483.014s.24.149.343.309c.074.103.145.215.21.336s.126.233.182.336c.103.195.159.368.168.518.01.149-.009.341-.056.574-.196.793-.434,1.47-.714,2.03-.28.56-.588.994-.924,1.302-.448.383-.947.509-1.498.378-.495-.094-.957-.289-1.387-.588-.158-.131-.312-.306-.462-.525-.148-.219-.261-.459-.336-.721-.14-.401-.23-.856-.272-1.365s-.04-1.043.007-1.603c.047-.561.133-1.125.259-1.694s.287-1.117.483-1.645c.195-.527.425-1.016.686-1.464.262-.447.551-.825.868-1.134.196-.195.415-.312.658-.35.242-.037.462-.037.658,0,.279.047.566.143.86.287s.539.324.735.539c.187.195.324.413.413.65.089.238.151.507.188.806.019.158.03.341.035.546s.005.408,0,.608c-.005.201-.014.395-.027.581-.015.188-.031.346-.05.477-.037.158-.081.266-.133.321Z"/>
    <path class="cls-8" d="M81.985,50.299c.032.107.03.259-.008.455-.074.346-.153.752-.237,1.218-.084.467-.171.964-.259,1.491-.089.527-.178,1.076-.267,1.646s-.175,1.129-.259,1.68-.161,1.08-.231,1.589c-.069.509-.133.969-.188,1.379-.028.159-.07.262-.126.309-.056.046-.163.042-.322-.015-.159-.065-.312-.131-.462-.195-.149-.065-.289-.149-.42-.252-.14-.104-.231-.222-.273-.357-.042-.135-.053-.324-.034-.567.019-.316.051-.711.098-1.183s.103-.982.168-1.533.136-1.124.21-1.722c.075-.598.151-1.176.231-1.736.079-.56.158-1.087.237-1.582.079-.494.151-.914.217-1.26.047-.205.112-.331.196-.378s.21-.037.378.028c.168.056.351.142.546.259.196.116.369.24.519.371.158.131.254.25.287.356Z"/>
    <path class="cls-8" d="M84.673,49.41c.64-.158,1.286-.257,1.939-.294.308-.019.509.14.602.476.075.178.129.336.161.477.032.14.067.294.105.462.027.196.021.329-.021.398-.042.07-.143.119-.301.147-.327.047-.67.098-1.029.154-.359.056-.734.121-1.127.195-.074.346-.149.71-.224,1.093-.075.383-.159.783-.252,1.203.177-.037.352-.062.524-.076.173-.015.353-.026.539-.035.159-.01.285.012.378.062.094.052.173.156.238.315.074.168.133.331.175.49.042.158.082.321.119.489.047.196.052.327.014.393-.037.065-.135.121-.294.168-.354.093-.716.185-1.085.272-.368.089-.726.185-1.07.287-.047.271-.094.534-.141.791s-.093.507-.14.749c.28-.074.551-.133.812-.175.262-.042.542-.077.841-.105.158-.019.286,0,.385.057.098.056.18.163.245.322.074.177.135.345.182.504.047.158.093.321.14.489.038.188.04.315.008.386-.033.069-.129.128-.287.175-.393.111-.794.229-1.204.35-.411.122-.803.233-1.176.336-.252.094-.441.114-.567.063-.126-.052-.235-.124-.329-.217-.103-.103-.201-.208-.294-.315-.094-.107-.2-.245-.322-.413-.103-.131-.18-.284-.23-.462-.052-.177-.067-.387-.049-.63l1.063-8.092c.477-.168,1.034-.331,1.673-.49Z"/>
    <path class="cls-8" d="M99.33,56.32c.02.267-.037.6-.17,1-.146.467-.34.899-.58,1.3s-.48.733-.72,1c-.254.253-.584.456-.99.61-.407.152-.81.203-1.21.149-.413-.054-.79-.156-1.13-.31s-.644-.297-.91-.431c-.227-.146-.457-.359-.69-.64s-.409-.606-.529-.979c-.2-.547-.333-1.174-.4-1.881-.066-.706-.076-1.456-.03-2.25.047-.793.15-1.6.311-2.42.16-.819.366-1.612.62-2.38.253-.767.553-1.479.899-2.14s.727-1.23,1.141-1.71c.333-.373.666-.613,1-.72.333-.107.646-.147.939-.12.44.053.891.196,1.351.43s.843.483,1.149.75c.32.333.537.667.65,1s.183.714.21,1.14c.026.494.026,1.034,0,1.62-.027.587-.08,1.08-.16,1.48-.054.187-.113.337-.18.45-.067.113-.24.13-.521.05-.533-.146-.92-.384-1.16-.71-.239-.327-.399-.771-.479-1.33-.014-.106-.023-.213-.03-.32-.007-.106-.01-.213-.01-.32,0-.346-.017-.663-.05-.949-.034-.287-.13-.471-.29-.551-.16-.066-.347.061-.561.381-.213.319-.434.739-.66,1.26-.227.52-.439,1.093-.64,1.72s-.36,1.22-.479,1.78c-.12.6-.21,1.207-.271,1.819-.06.614-.083,1.178-.07,1.69.014.514.063.943.15,1.29s.223.56.41.64c.359.188.887-.267,1.58-1.359.506-.761,1.166-.974,1.979-.641.333.134.511.334.53.601Z"/>
    <path class="cls-8" d="M106.383,50.712c.107.262.188.556.245.882.084.579.121,1.221.111,1.926-.009.704-.072,1.413-.188,2.128-.117.714-.287,1.399-.511,2.058-.225.658-.509,1.225-.854,1.701-.243.289-.502.482-.777.581-.275.098-.59.119-.944.062-.233-.037-.474-.096-.722-.175-.247-.079-.474-.198-.679-.356-.158-.131-.317-.299-.476-.505-.159-.205-.28-.438-.364-.699-.196-.616-.303-1.316-.322-2.101-.019-.784.045-1.575.189-2.373s.366-1.562.665-2.296c.299-.732.672-1.346,1.12-1.841.187-.196.413-.343.679-.441.266-.098.516-.123.749-.076.308.065.604.165.889.301.285.135.521.301.707.497.215.224.376.467.483.728ZM104.206,51.307c-.149.191-.297.448-.441.771s-.282.688-.413,1.099c-.131.411-.238.808-.322,1.19-.084.392-.146.808-.188,1.246s-.059.847-.049,1.225c.009.378.046.702.111.974.065.271.168.438.309.504.121.065.254.027.398-.112s.285-.357.42-.651c.136-.294.264-.65.386-1.07.121-.42.224-.878.308-1.372.074-.393.131-.812.168-1.261.037-.447.054-.867.049-1.26-.005-.392-.035-.728-.091-1.008s-.14-.443-.252-.49c-.112-.046-.243.026-.392.217Z"/>
    <path class="cls-8" d="M107.656,56.949c.257.023.474.119.65.287.505.457.945.754,1.323.889.378.136.651.105.819-.091.103-.103.089-.243-.042-.42-.131-.178-.315-.38-.553-.609-.238-.229-.502-.474-.791-.734-.29-.262-.542-.523-.757-.784-.317-.364-.546-.814-.686-1.352-.14-.536-.126-1.127.042-1.771.056-.262.147-.539.273-.833s.272-.579.44-.854c.168-.274.351-.531.546-.77.196-.238.393-.437.588-.595.065-.065.149-.129.252-.189s.218-.104.344-.133.264-.037.413-.028c.148.01.303.047.462.112.242.112.489.252.741.42s.463.354.631.56c.232.271.37.542.412.812s.068.522.077.756c-.009.205-.03.434-.062.686-.033.253-.07.507-.112.764s-.089.506-.14.749c-.052.242-.105.452-.161.63-.056.168-.121.272-.196.314-.074.042-.182.026-.322-.049-.803-.392-1.176-.924-1.119-1.596.009-.196.039-.437.091-.721.051-.285.088-.542.111-.771s.02-.394-.014-.497c-.032-.103-.124-.079-.272.07-.141.103-.297.28-.47.532s-.314.534-.427.847-.173.633-.182.959c-.01.327.084.616.279.868.252.336.549.648.89.938.341.29.648.579.924.868.275.29.485.593.63.91s.151.672.021,1.064c-.057.195-.139.403-.245.623-.107.219-.25.425-.428.615-.177.191-.398.353-.665.483-.266.131-.585.2-.959.21-.504.019-.989-.112-1.455-.392-.468-.28-.938-.771-1.414-1.471-.252-.345-.378-.597-.378-.756,0-.168.061-.299.182-.392.215-.131.45-.185.707-.161Z"/>
    <path class="cls-8" d="M118.198,51.055c-.257.033-.521.068-.791.105-.112.663-.229,1.36-.35,2.093-.122.733-.243,1.475-.364,2.227-.121.751-.235,1.495-.343,2.232s-.203,1.438-.287,2.101c-.01.13-.037.219-.084.266s-.11.065-.189.056c-.079-.009-.173-.037-.279-.084-.107-.047-.227-.098-.357-.153-.262-.112-.467-.252-.616-.42-.149-.169-.195-.43-.14-.784.028-.43.074-.947.14-1.555.065-.606.141-1.236.225-1.89s.175-1.307.272-1.96c.099-.653.193-1.246.287-1.778-.159.038-.314.07-.469.099-.154.027-.282.061-.385.098-.141.047-.255.054-.344.021-.089-.033-.184-.129-.287-.287-.111-.159-.212-.359-.301-.603-.089-.242-.161-.443-.217-.602-.056-.168-.065-.28-.028-.336.037-.057.107-.103.21-.141.317-.084.68-.163,1.085-.237.406-.075.819-.141,1.239-.196s.833-.103,1.239-.14c.406-.038.768-.065,1.085-.084.158,0,.277.021.357.062.079.042.146.109.202.203.112.168.208.35.287.546s.143.388.189.574c.037.177.042.296.014.356-.028.062-.126.101-.294.119-.215.028-.45.059-.707.091Z"/>
    <path class="cls-8" d="M119.164,56.669c-.004-.695.04-1.438.134-2.226.093-.789.222-1.592.385-2.408s.329-1.584.497-2.303c.047-.205.114-.329.203-.371.088-.042.217-.025.385.049.158.065.312.149.462.252s.294.22.434.35c.299.299.397.673.294,1.12-.093.401-.193.85-.301,1.345-.107.494-.208.996-.301,1.505-.094.509-.173,1.01-.238,1.505-.065.494-.107.94-.126,1.337s-.005.728.042.994c.047.266.136.427.267.482.168.065.329-.039.482-.314.154-.275.299-.656.435-1.142.135-.484.264-1.047.385-1.687s.233-1.29.336-1.953.193-1.309.273-1.939c.079-.63.146-1.178.202-1.645.01-.205.068-.331.176-.378.106-.047.24-.042.398.014.159.057.327.143.504.259.178.117.341.231.49.344.158.131.252.247.28.35.027.103.027.252,0,.448-.131,1.139-.267,2.198-.406,3.178-.14.98-.301,1.86-.483,2.639-.182.78-.387,1.445-.615,1.995-.229.551-.493.957-.791,1.219-.215.158-.433.268-.651.328-.22.061-.469.077-.749.05-.56-.057-1.018-.233-1.372-.532-.149-.131-.289-.285-.42-.462-.131-.178-.243-.396-.336-.658-.177-.467-.269-1.048-.273-1.743Z"/>
    <path class="cls-8" d="M127.395,55.15c-.088.578-.172,1.144-.252,1.693-.079.551-.149,1.076-.21,1.575-.061.5-.109.945-.146,1.337-.028.168-.07.277-.126.329-.057.052-.159.054-.309.007-.14-.047-.282-.104-.427-.175s-.277-.151-.398-.245c-.149-.111-.247-.233-.294-.364-.047-.13-.061-.316-.042-.56.019-.345.051-.761.098-1.246s.103-1.003.168-1.554.14-1.118.224-1.701.166-1.15.245-1.701.159-1.068.238-1.554.151-.9.217-1.246c.056-.242.131-.396.224-.462.094-.065.233-.079.421-.042.289.056.534.121.734.196.201.074.403.163.609.266.131.065.233.136.308.21.075.075.133.159.175.252.042.094.072.196.092.308.019.112.037.238.056.379,0,.065.002.145.007.237.005.094.021.267.049.519.028.252.068.613.119,1.085.052.471.119,1.112.203,1.925.093-.289.2-.606.322-.952.121-.345.245-.695.371-1.05s.256-.707.392-1.057c.135-.351.264-.675.385-.974.121-.336.227-.611.315-.826.089-.214.18-.378.272-.489.094-.112.201-.176.322-.189s.275.017.462.091c.225.075.465.166.722.273.256.107.506.235.749.385.168.103.274.222.321.357.047.135.047.324,0,.566-.065.364-.138.791-.217,1.281s-.163,1.011-.252,1.561c-.089.551-.175,1.118-.259,1.701-.084.584-.166,1.144-.245,1.681-.079.536-.149,1.038-.21,1.505s-.11.863-.147,1.189c-.037.168-.084.289-.14.364-.056.074-.163.084-.322.028-.149-.047-.299-.104-.448-.168-.149-.065-.279-.145-.392-.238-.149-.103-.247-.224-.294-.364-.047-.14-.056-.326-.028-.56.019-.271.05-.616.092-1.036s.093-.877.153-1.372.128-1.008.203-1.54c.074-.532.154-1.041.238-1.526-.159.42-.332.89-.519,1.407-.187.519-.371,1.031-.553,1.54s-.35.994-.504,1.456-.277.852-.371,1.169c-.065.196-.119.322-.161.378s-.146.061-.314.014c-.225-.064-.439-.148-.645-.252-.065-.037-.121-.076-.168-.118s-.089-.096-.126-.161-.07-.149-.098-.252c-.028-.103-.057-.233-.084-.393-.103-.644-.201-1.367-.294-2.17-.094-.803-.173-1.614-.238-2.436-.094.56-.185,1.129-.273,1.708Z"/>
    <path class="cls-8" d="M136.677,49.41c.64-.158,1.286-.257,1.939-.294.308-.019.509.14.602.476.075.178.129.336.161.477.032.14.067.294.105.462.027.196.021.329-.021.398-.042.07-.143.119-.301.147-.327.047-.67.098-1.029.154-.359.056-.734.121-1.127.195-.074.346-.149.71-.224,1.093-.075.383-.159.783-.252,1.203.177-.037.352-.062.524-.076.173-.015.353-.026.539-.035.159-.01.285.012.378.062.094.052.173.156.238.315.074.168.133.331.175.49.042.158.082.321.119.489.047.196.052.327.014.393-.037.065-.135.121-.294.168-.354.093-.716.185-1.085.272-.368.089-.726.185-1.07.287-.047.271-.094.534-.141.791s-.093.507-.14.749c.28-.074.551-.133.812-.175.262-.042.542-.077.841-.105.158-.019.286,0,.385.057.098.056.18.163.245.322.074.177.135.345.182.504.047.158.093.321.14.489.038.188.04.315.008.386-.033.069-.129.128-.287.175-.393.111-.794.229-1.204.35-.411.122-.803.233-1.176.336-.252.094-.441.114-.567.063-.126-.052-.235-.124-.329-.217-.103-.103-.201-.208-.294-.315-.094-.107-.2-.245-.322-.413-.103-.131-.18-.284-.23-.462-.052-.177-.067-.387-.049-.63l1.063-8.092c.477-.168,1.034-.331,1.673-.49Z"/>
    <path class="cls-8" d="M151.335,56.32c.02.267-.037.6-.17,1-.146.467-.34.899-.58,1.3s-.48.733-.72,1c-.254.253-.584.456-.99.61-.407.152-.81.203-1.21.149-.413-.054-.79-.156-1.13-.31s-.644-.297-.91-.431c-.227-.146-.457-.359-.69-.64s-.409-.606-.529-.979c-.2-.547-.333-1.174-.4-1.881-.066-.706-.076-1.456-.03-2.25.047-.793.15-1.6.311-2.42.16-.819.366-1.612.62-2.38.253-.767.553-1.479.899-2.14s.727-1.23,1.141-1.71c.333-.373.666-.613,1-.72.333-.107.646-.147.939-.12.44.053.891.196,1.351.43s.843.483,1.149.75c.32.333.537.667.65,1s.183.714.21,1.14c.026.494.026,1.034,0,1.62-.027.587-.08,1.08-.16,1.48-.054.187-.113.337-.18.45-.067.113-.24.13-.521.05-.533-.146-.92-.384-1.16-.71-.239-.327-.399-.771-.479-1.33-.014-.106-.023-.213-.03-.32-.007-.106-.01-.213-.01-.32,0-.346-.017-.663-.05-.949-.034-.287-.13-.471-.29-.551-.16-.066-.347.061-.561.381-.213.319-.434.739-.66,1.26-.227.52-.439,1.093-.64,1.72s-.36,1.22-.479,1.78c-.12.6-.21,1.207-.271,1.819-.06.614-.083,1.178-.07,1.69.014.514.063.943.15,1.29s.223.56.41.64c.359.188.887-.267,1.58-1.359.506-.761,1.166-.974,1.979-.641.333.134.511.334.53.601Z"/>
    <path class="cls-8" d="M158.387,50.712c.107.262.188.556.245.882.084.579.121,1.221.111,1.926-.009.704-.072,1.413-.188,2.128-.117.714-.287,1.399-.511,2.058-.225.658-.509,1.225-.854,1.701-.243.289-.502.482-.777.581-.275.098-.59.119-.944.062-.233-.037-.474-.096-.722-.175-.247-.079-.474-.198-.679-.356-.158-.131-.317-.299-.476-.505-.159-.205-.28-.438-.364-.699-.196-.616-.303-1.316-.322-2.101-.019-.784.045-1.575.189-2.373s.366-1.562.665-2.296c.299-.732.672-1.346,1.12-1.841.187-.196.413-.343.679-.441.266-.098.516-.123.749-.076.308.065.604.165.889.301.285.135.521.301.707.497.215.224.376.467.483.728ZM156.211,51.307c-.149.191-.297.448-.441.771s-.282.688-.413,1.099c-.131.411-.238.808-.322,1.19-.084.392-.146.808-.188,1.246s-.059.847-.049,1.225c.009.378.046.702.111.974.065.271.168.438.309.504.121.065.254.027.398-.112s.285-.357.42-.651c.136-.294.264-.65.386-1.07.121-.42.224-.878.308-1.372.074-.393.131-.812.168-1.261.037-.447.054-.867.049-1.26-.005-.392-.035-.728-.091-1.008s-.14-.443-.252-.49c-.112-.046-.243.026-.392.217Z"/>
    <path class="cls-8" d="M163.624,52.343c.154-.994.301-1.888.441-2.681.037-.205.1-.334.188-.385.089-.052.217-.049.385.007s.309.112.42.168c.112.056.267.163.462.322.159.131.253.264.28.398.028.136.023.301-.014.497-.103.569-.213,1.234-.329,1.995-.117.761-.231,1.547-.343,2.359-.112.812-.222,1.616-.329,2.415-.107.798-.203,1.519-.287,2.163-.028.354-.21.476-.546.363-.149-.047-.297-.101-.441-.161s-.292-.128-.44-.202c-.271-.159-.462-.439-.574-.841-.084-.279-.171-.602-.259-.966-.089-.364-.176-.753-.26-1.169-.084-.415-.168-.842-.252-1.281-.084-.438-.163-.877-.237-1.315-.075.522-.152,1.052-.231,1.589s-.154,1.053-.224,1.547c-.07.495-.136.962-.196,1.4s-.109.825-.146,1.162c-.02.158-.059.259-.119.301-.062.042-.171.03-.329-.035-.149-.056-.301-.114-.455-.175s-.296-.156-.427-.287c-.131-.103-.218-.222-.26-.357-.042-.135-.049-.324-.021-.566.019-.243.052-.576.098-1.001.047-.425.101-.903.161-1.436s.131-1.094.21-1.687.159-1.181.238-1.765c.079-.583.161-1.136.245-1.658.084-.523.163-.98.237-1.372.047-.215.122-.351.225-.406s.233-.056.392,0c.196.075.39.154.581.238s.39.191.595.321c.168.094.287.213.357.357s.124.356.161.637c.028.215.065.497.112.848.046.35.1.732.16,1.147s.124.85.189,1.302c.065.453.131.89.196,1.31.103-1.073.23-2.107.385-3.102Z"/>
    <path class="cls-8" d="M171.141,51.055c-.257.033-.521.068-.791.105-.112.663-.229,1.36-.35,2.093-.122.733-.243,1.475-.364,2.227-.121.751-.235,1.495-.343,2.232s-.203,1.438-.287,2.101c-.01.13-.037.219-.084.266s-.11.065-.189.056c-.079-.009-.173-.037-.279-.084-.107-.047-.227-.098-.357-.153-.262-.112-.467-.252-.616-.42-.149-.169-.195-.43-.14-.784.028-.43.074-.947.14-1.555.065-.606.141-1.236.225-1.89s.175-1.307.272-1.96c.099-.653.193-1.246.287-1.778-.159.038-.314.07-.469.099-.154.027-.282.061-.385.098-.141.047-.255.054-.344.021-.089-.033-.184-.129-.287-.287-.111-.159-.212-.359-.301-.603-.089-.242-.161-.443-.217-.602-.056-.168-.065-.28-.028-.336.037-.057.107-.103.21-.141.317-.084.68-.163,1.085-.237.406-.075.819-.141,1.239-.196s.833-.103,1.239-.14c.406-.038.768-.065,1.085-.084.158,0,.277.021.357.062.079.042.146.109.202.203.112.168.208.35.287.546s.143.388.189.574c.037.177.042.296.014.356-.028.062-.126.101-.294.119-.215.028-.45.059-.707.091Z"/>
    <path class="cls-8" d="M174.683,49.41c.64-.158,1.286-.257,1.939-.294.308-.019.509.14.602.476.075.178.129.336.161.477.032.14.067.294.105.462.027.196.021.329-.021.398-.042.07-.143.119-.301.147-.327.047-.67.098-1.029.154-.359.056-.734.121-1.127.195-.074.346-.149.71-.224,1.093-.075.383-.159.783-.252,1.203.177-.037.352-.062.524-.076.173-.015.353-.026.539-.035.159-.01.285.012.378.062.094.052.173.156.238.315.074.168.133.331.175.49.042.158.082.321.119.489.047.196.052.327.014.393-.037.065-.135.121-.294.168-.354.093-.716.185-1.085.272-.368.089-.726.185-1.07.287-.047.271-.094.534-.141.791s-.093.507-.14.749c.28-.074.551-.133.812-.175.262-.042.542-.077.841-.105.158-.019.286,0,.385.057.098.056.18.163.245.322.074.177.135.345.182.504.047.158.093.321.14.489.038.188.04.315.008.386-.033.069-.129.128-.287.175-.393.111-.794.229-1.204.35-.411.122-.803.233-1.176.336-.252.094-.441.114-.567.063-.126-.052-.235-.124-.329-.217-.103-.103-.201-.208-.294-.315-.094-.107-.2-.245-.322-.413-.103-.131-.18-.284-.23-.462-.052-.177-.067-.387-.049-.63l1.063-8.092c.477-.168,1.034-.331,1.673-.49Z"/>
    <path class="cls-8" d="M177.805,56.949c.257.023.474.119.65.287.505.457.945.754,1.323.889.378.136.651.105.819-.091.103-.103.089-.243-.042-.42-.131-.178-.315-.38-.553-.609-.238-.229-.502-.474-.791-.734-.29-.262-.542-.523-.757-.784-.317-.364-.546-.814-.686-1.352-.14-.536-.126-1.127.042-1.771.056-.262.147-.539.273-.833s.272-.579.44-.854c.168-.274.351-.531.546-.77.196-.238.393-.437.588-.595.065-.065.149-.129.252-.189s.218-.104.344-.133.264-.037.413-.028c.148.01.303.047.462.112.242.112.489.252.741.42s.463.354.631.56c.232.271.37.542.412.812s.068.522.077.756c-.009.205-.03.434-.062.686-.033.253-.07.507-.112.764s-.089.506-.14.749c-.052.242-.105.452-.161.63-.056.168-.121.272-.196.314-.074.042-.182.026-.322-.049-.803-.392-1.176-.924-1.119-1.596.009-.196.039-.437.091-.721.051-.285.088-.542.111-.771s.02-.394-.014-.497c-.032-.103-.124-.079-.272.07-.141.103-.297.28-.47.532s-.314.534-.427.847-.173.633-.182.959c-.01.327.084.616.279.868.252.336.549.648.89.938.341.29.648.579.924.868.275.29.485.593.63.91s.151.672.021,1.064c-.057.195-.139.403-.245.623-.107.219-.25.425-.428.615-.177.191-.398.353-.665.483-.266.131-.585.2-.959.21-.504.019-.989-.112-1.455-.392-.468-.28-.938-.771-1.414-1.471-.252-.345-.378-.597-.378-.756,0-.168.061-.299.182-.392.215-.131.45-.185.707-.161Z"/>
    <path class="cls-8" d="M188.346,51.055c-.257.033-.521.068-.791.105-.112.663-.229,1.36-.35,2.093-.122.733-.243,1.475-.364,2.227-.121.751-.235,1.495-.343,2.232s-.203,1.438-.287,2.101c-.01.13-.037.219-.084.266s-.11.065-.189.056c-.079-.009-.173-.037-.279-.084-.107-.047-.227-.098-.357-.153-.262-.112-.467-.252-.616-.42-.149-.169-.195-.43-.14-.784.028-.43.074-.947.14-1.555.065-.606.141-1.236.225-1.89s.175-1.307.272-1.96c.099-.653.193-1.246.287-1.778-.159.038-.314.07-.469.099-.154.027-.282.061-.385.098-.141.047-.255.054-.344.021-.089-.033-.184-.129-.287-.287-.111-.159-.212-.359-.301-.603-.089-.242-.161-.443-.217-.602-.056-.168-.065-.28-.028-.336.037-.057.107-.103.21-.141.317-.084.68-.163,1.085-.237.406-.075.819-.141,1.239-.196s.833-.103,1.239-.14c.406-.038.768-.065,1.085-.084.158,0,.277.021.357.062.079.042.146.109.202.203.112.168.208.35.287.546s.143.388.189.574c.037.177.042.296.014.356-.028.062-.126.101-.294.119-.215.028-.45.059-.707.091Z"/>
    <path class="cls-8" d="M53.319,75.516c-.453.094-.852.206-1.197.337-.131.354-.245.688-.343,1.001-.098.312-.193.618-.287.917-.056.158-.119.252-.188.279-.07.028-.176.005-.315-.069-.075-.047-.161-.101-.259-.161-.099-.061-.193-.129-.287-.203-.093-.075-.173-.159-.238-.252-.065-.094-.103-.196-.111-.309-.01-.111.014-.303.069-.573.168-.616.376-1.313.623-2.094.247-.778.506-1.572.777-2.38.271-.807.546-1.591.826-2.352.279-.761.536-1.421.77-1.981.084-.195.191-.354.322-.476s.322-.168.574-.14c.438.027.793.088,1.063.182s.527.187.771.28c.177.074.291.18.343.314.051.136.072.311.062.525-.009.532-.012,1.169-.007,1.911.005.741.019,1.528.042,2.358.023.831.052,1.678.084,2.541.033.863.067,1.688.105,2.472.009.168-.01.284-.057.35s-.149.098-.308.098c-.159,0-.308-.007-.448-.021-.14-.015-.284-.059-.434-.133-.149-.065-.255-.149-.315-.252-.061-.104-.104-.285-.133-.547-.028-.271-.056-.564-.084-.882s-.052-.658-.07-1.021c-.447.093-.898.187-1.351.279ZM54.558,73.164c-.02-.672-.038-1.335-.057-1.988s-.027-1.288-.027-1.903c-.215.56-.455,1.194-.722,1.903-.266.71-.534,1.456-.805,2.24.532-.112,1.068-.196,1.61-.252Z"/>
    <path class="cls-8" d="M61.523,70.343c.154-.994.301-1.888.441-2.681.037-.205.1-.334.188-.385.089-.052.217-.049.385.007s.309.112.42.168c.112.056.267.163.462.322.159.131.253.264.28.398.028.136.023.301-.014.497-.103.569-.213,1.234-.329,1.995-.117.761-.231,1.547-.343,2.359-.112.812-.222,1.616-.329,2.415-.107.798-.203,1.519-.287,2.163-.028.354-.21.476-.546.363-.149-.047-.297-.101-.441-.161s-.292-.128-.44-.202c-.271-.159-.462-.439-.574-.841-.084-.279-.171-.602-.259-.966-.089-.364-.176-.753-.26-1.169-.084-.415-.168-.842-.252-1.281-.084-.438-.163-.877-.237-1.315-.075.522-.152,1.052-.231,1.589s-.154,1.053-.224,1.547c-.07.495-.136.962-.196,1.4s-.109.825-.146,1.162c-.02.158-.059.259-.119.301-.062.042-.171.03-.329-.035-.149-.056-.301-.114-.455-.175s-.296-.156-.427-.287c-.131-.103-.218-.222-.26-.357-.042-.135-.049-.324-.021-.566.019-.243.052-.576.098-1.001.047-.425.101-.903.161-1.436s.131-1.094.21-1.687.159-1.181.238-1.765c.079-.583.161-1.136.245-1.658.084-.523.163-.98.237-1.372.047-.215.122-.351.225-.406s.233-.056.392,0c.196.075.39.154.581.238s.39.191.595.321c.168.094.287.213.357.357s.124.356.161.637c.028.215.065.497.112.848.046.35.1.732.16,1.147s.124.85.189,1.302c.065.453.131.89.196,1.31.103-1.073.23-2.107.385-3.102Z"/>
    <path class="cls-8" d="M65.289,67.529c.284-.136.583-.235.896-.301.312-.065.634-.087.966-.063.331.023.653.109.966.259s.604.374.875.672c.271.299.504.695.7,1.19.177.42.294.894.35,1.421s.052,1.073-.014,1.638c-.065.565-.198,1.132-.399,1.701-.2.569-.467,1.111-.798,1.624-.331.514-.735.98-1.211,1.4s-1.022.761-1.638,1.021c-.327.187-.658.145-.994-.126-.178-.13-.329-.259-.455-.385s-.269-.282-.427-.469c-.057-.084-.112-.166-.168-.245-.057-.079-.101-.17-.134-.273-.032-.103-.053-.226-.062-.371-.009-.145,0-.328.028-.553l.783-7.714c.206-.149.45-.292.735-.427ZM66.731,74.858c.331-.401.602-.817.812-1.246.21-.43.366-.858.469-1.288s.159-.821.168-1.176c.01-.243,0-.458-.027-.645-.028-.187-.065-.345-.112-.476-.103-.262-.282-.455-.539-.581s-.562-.109-.917.049c-.205,1.018-.395,2.058-.566,3.122-.173,1.063-.339,2.161-.497,3.29.476-.299.879-.648,1.211-1.05Z"/>
    <path class="cls-8" d="M84.154,66.62c-.167.667-.357,1.387-.57,2.16s-.439,1.573-.68,2.399c-.24.827-.483,1.638-.73,2.431-.246.793-.483,1.547-.71,2.26-.227.714-.434,1.344-.62,1.89-.133.333-.283.543-.449.63-.167.087-.404.063-.71-.069-.308-.134-.594-.268-.86-.4s-.547-.307-.84-.52c-.32-.227-.561-.53-.721-.91-.159-.38-.267-.724-.319-1.03-.24-1.706-.438-3.57-.59-5.59-.153-2.021-.271-4.137-.351-6.35,0-.28.026-.477.08-.591.054-.112.193-.17.42-.17s.434.023.62.07.387.123.601.23c.492.239.772.699.84,1.38.04.533.083,1.144.13,1.83.046.687.1,1.43.16,2.229.06.8.123,1.637.189,2.51.066.874.141,1.757.22,2.65.561-1.76,1.094-3.561,1.601-5.4s.993-3.593,1.46-5.26c.053-.187.13-.313.229-.38.101-.066.214-.09.341-.07.126.021.263.077.409.17.147.094.294.2.44.32.32.227.566.477.74.75.173.273.193.644.06,1.11-.093.479-.224,1.053-.39,1.72Z"/>
    <path class="cls-8" d="M87.562,75.516c-.453.094-.852.206-1.197.337-.131.354-.245.688-.343,1.001-.098.312-.193.618-.287.917-.056.158-.119.252-.188.279-.07.028-.176.005-.315-.069-.075-.047-.161-.101-.259-.161-.099-.061-.193-.129-.287-.203-.093-.075-.173-.159-.238-.252-.065-.094-.103-.196-.111-.309-.01-.111.014-.303.069-.573.168-.616.376-1.313.623-2.094.247-.778.506-1.572.777-2.38.271-.807.546-1.591.826-2.352.279-.761.536-1.421.77-1.981.084-.195.191-.354.322-.476s.322-.168.574-.14c.438.027.793.088,1.063.182s.527.187.771.28c.177.074.291.18.343.314.051.136.072.311.062.525-.009.532-.012,1.169-.007,1.911.005.741.019,1.528.042,2.358.023.831.052,1.678.084,2.541.033.863.067,1.688.105,2.472.009.168-.01.284-.057.35s-.149.098-.308.098c-.159,0-.308-.007-.448-.021-.14-.015-.284-.059-.434-.133-.149-.065-.255-.149-.315-.252-.061-.104-.104-.285-.133-.547-.028-.271-.056-.564-.084-.882s-.052-.658-.07-1.021c-.447.093-.898.187-1.351.279ZM88.801,73.164c-.02-.672-.038-1.335-.057-1.988s-.027-1.288-.027-1.903c-.215.56-.455,1.194-.722,1.903-.266.71-.534,1.456-.805,2.24.532-.112,1.068-.196,1.61-.252Z"/>
    <path class="cls-8" d="M93.246,76.223c-.079.509-.156,1.016-.23,1.52-.028.149-.07.247-.126.294s-.159.047-.309,0c-.158-.065-.303-.117-.434-.154s-.252-.103-.364-.195c-.111-.104-.187-.227-.224-.371s-.047-.339-.028-.581c.028-.262.068-.645.119-1.148.052-.504.11-1.062.175-1.673.065-.611.138-1.241.218-1.89.079-.649.165-1.249.259-1.8.093-.55.187-1.015.279-1.393.094-.378.191-.6.295-.665.336-.205.688-.403,1.057-.595.368-.191.73-.329,1.085-.413s.693-.091,1.015-.021c.322.07.604.26.848.567.195.271.38.569.553.896.173.327.311.729.413,1.204.103.532.093.962-.028,1.288-.178.561-.495,1.081-.952,1.562s-1.013.931-1.666,1.351c.141.225.294.467.462.729.168.261.344.521.525.776.182.257.361.507.539.749.177.243.345.458.504.645.131.158.191.284.182.378-.009.093-.061.191-.153.294-.104.131-.194.208-.273.23-.079.023-.175.05-.287.077-.131.057-.279.072-.447.049-.169-.023-.36-.133-.574-.328-.141-.149-.304-.337-.49-.561s-.378-.467-.574-.728c-.195-.262-.39-.534-.581-.819-.191-.284-.366-.567-.524-.847-.094.541-.18,1.066-.26,1.574ZM94.213,70.945c-.089.462-.189.959-.302,1.491.393-.188.742-.416,1.051-.687.308-.271.562-.541.763-.812.2-.271.345-.527.434-.771.089-.242.114-.429.077-.56-.074-.215-.275-.322-.602-.322-.159,0-.336.028-.532.084s-.401.154-.616.294c-.093.392-.185.819-.272,1.281Z"/>
    <path class="cls-8" d="M101.087,68.299c.032.107.03.259-.008.455-.074.346-.153.752-.237,1.218-.084.467-.171.964-.259,1.491-.089.527-.178,1.076-.267,1.646s-.175,1.129-.259,1.68-.161,1.08-.231,1.589c-.069.509-.133.969-.188,1.379-.028.159-.07.262-.126.309-.056.046-.163.042-.322-.015-.159-.065-.312-.131-.462-.195-.149-.065-.289-.149-.42-.252-.14-.104-.231-.222-.273-.357-.042-.135-.053-.324-.034-.567.019-.316.051-.711.098-1.183s.103-.982.168-1.533.136-1.124.21-1.722c.075-.598.151-1.176.231-1.736.079-.56.158-1.087.237-1.582.079-.494.151-.914.217-1.26.047-.205.112-.331.196-.378s.21-.037.378.028c.168.056.351.142.546.259.196.116.369.24.519.371.158.131.254.25.287.356Z"/>
    <path class="cls-8" d="M103.773,67.41c.64-.158,1.286-.257,1.939-.294.308-.019.509.14.602.476.075.178.129.336.161.477.032.14.067.294.105.462.027.196.021.329-.021.398-.042.07-.143.119-.301.147-.327.047-.67.098-1.029.154-.359.056-.734.121-1.127.195-.074.346-.149.71-.224,1.093-.075.383-.159.783-.252,1.203.177-.037.352-.062.524-.076.173-.015.353-.026.539-.035.159-.01.285.012.378.062.094.052.173.156.238.315.074.168.133.331.175.49.042.158.082.321.119.489.047.196.052.327.014.393-.037.065-.135.121-.294.168-.354.093-.716.185-1.085.272-.368.089-.726.185-1.07.287-.047.271-.094.534-.141.791s-.093.507-.14.749c.28-.074.551-.133.812-.175.262-.042.542-.077.841-.105.158-.019.286,0,.385.057.098.056.18.163.245.322.074.177.135.345.182.504.047.158.093.321.14.489.038.188.04.315.008.386-.033.069-.129.128-.287.175-.393.111-.794.229-1.204.35-.411.122-.803.233-1.176.336-.252.094-.441.114-.567.063-.126-.052-.235-.124-.329-.217-.103-.103-.201-.208-.294-.315-.094-.107-.2-.245-.322-.413-.103-.131-.18-.284-.23-.462-.052-.177-.067-.387-.049-.63l1.063-8.092c.477-.168,1.034-.331,1.673-.49Z"/>
    <path class="cls-8" d="M111.824,69.055c-.257.033-.521.068-.791.105-.112.663-.229,1.36-.35,2.093-.122.733-.243,1.475-.364,2.227-.121.751-.235,1.495-.343,2.232s-.203,1.438-.287,2.101c-.01.13-.037.219-.084.266s-.11.065-.189.056c-.079-.009-.173-.037-.279-.084-.107-.047-.227-.098-.357-.153-.262-.112-.467-.252-.616-.42-.149-.169-.195-.43-.14-.784.028-.43.074-.947.14-1.555.065-.606.141-1.236.225-1.89s.175-1.307.272-1.96c.099-.653.193-1.246.287-1.778-.159.038-.314.07-.469.099-.154.027-.282.061-.385.098-.141.047-.255.054-.344.021-.089-.033-.184-.129-.287-.287-.111-.159-.212-.359-.301-.603-.089-.242-.161-.443-.217-.602-.056-.168-.065-.28-.028-.336.037-.057.107-.103.21-.141.317-.084.68-.163,1.085-.237.406-.075.819-.141,1.239-.196s.833-.103,1.239-.14c.406-.038.768-.065,1.085-.084.158,0,.277.021.357.062.079.042.146.109.202.203.112.168.208.35.287.546s.143.388.189.574c.037.177.042.296.014.356-.028.062-.126.101-.294.119-.215.028-.45.059-.707.091Z"/>
    <path class="cls-8" d="M118.327,69.923c-.177.443-.38.927-.608,1.449-.229.522-.474,1.068-.735,1.638s-.518,1.12-.77,1.652c-.104.588-.191,1.146-.267,1.673-.074.527-.145,1.043-.21,1.547-.037.187-.084.301-.14.343-.057.042-.164.035-.322-.021-.149-.065-.306-.138-.469-.217-.163-.08-.311-.161-.441-.245-.131-.131-.217-.259-.259-.385s-.054-.311-.035-.554c.047-.392.096-.842.147-1.351.051-.509.114-1.057.188-1.646-.111-.504-.229-1.023-.35-1.561-.121-.536-.243-1.071-.364-1.603-.121-.532-.235-1.048-.343-1.548-.107-.499-.203-.954-.287-1.364-.047-.196-.056-.329-.028-.399.028-.07.117-.119.267-.146.158-.019.317-.033.476-.042.159-.01.317.009.477.056.158.047.274.126.35.238.074.111.149.284.224.518.121.448.25.966.386,1.554.135.588.277,1.219.427,1.891.299-.672.593-1.352.882-2.037.289-.687.569-1.365.84-2.037.047-.178.124-.271.231-.28.106-.009.224.028.35.112s.252.191.378.322.235.252.329.363c.103.159.158.304.168.435s-.023.312-.098.546c-.084.289-.215.655-.393,1.099Z"/>
    <path class="cls-8" d="M127.529,74.521c-.647.133-1.217.293-1.71.479-.188.507-.351.983-.49,1.43-.14.447-.277.884-.41,1.311-.08.227-.17.359-.27.399-.101.04-.25.007-.45-.1-.107-.066-.23-.144-.37-.229-.14-.087-.276-.184-.41-.29-.133-.107-.246-.227-.34-.36-.093-.133-.146-.28-.16-.44-.013-.159.021-.433.1-.819.24-.88.537-1.877.891-2.99.353-1.113.723-2.247,1.109-3.4.387-1.152.78-2.272,1.181-3.359.399-1.087.767-2.03,1.1-2.83.12-.28.273-.507.46-.681.187-.173.46-.239.82-.199.626.04,1.133.127,1.52.26.387.134.754.267,1.101.399.253.107.416.258.49.45.072.193.103.443.09.75-.014.761-.018,1.67-.011,2.73.007,1.06.027,2.184.061,3.37s.073,2.396.12,3.63c.046,1.233.097,2.41.149,3.53.014.239-.013.406-.08.5-.066.093-.213.14-.439.14s-.44-.01-.64-.03c-.2-.02-.407-.083-.62-.189-.214-.094-.364-.214-.45-.36-.087-.146-.15-.406-.19-.78-.04-.387-.08-.807-.12-1.26s-.073-.94-.1-1.46c-.64.134-1.283.267-1.93.4ZM129.299,71.16c-.026-.96-.054-1.906-.08-2.84s-.04-1.84-.04-2.721c-.307.801-.649,1.707-1.029,2.721-.381,1.014-.764,2.08-1.15,3.2.76-.16,1.526-.28,2.3-.36Z"/>
    <path class="cls-8" d="M138.263,75.376c.015.187-.025.42-.118.7-.104.327-.238.63-.406.91-.168.279-.336.513-.504.7-.178.177-.409.319-.693.427-.285.107-.567.142-.847.104-.29-.037-.554-.109-.791-.217-.238-.107-.45-.207-.638-.301-.158-.103-.319-.252-.482-.448s-.287-.425-.371-.686c-.14-.383-.233-.821-.28-1.316-.046-.494-.054-1.02-.021-1.575.032-.555.104-1.12.217-1.693.112-.574.257-1.13.434-1.666.178-.537.388-1.036.63-1.498.243-.462.509-.861.799-1.197.232-.261.466-.43.699-.504.233-.075.453-.103.658-.084.309.037.623.138.945.301s.59.339.805.525c.225.233.376.467.455.699.079.233.128.5.147.799.019.345.019.723,0,1.134-.02.411-.057.756-.112,1.036-.037.131-.079.235-.126.314-.047.08-.168.091-.364.035-.373-.103-.644-.269-.812-.497s-.28-.539-.336-.931c-.01-.075-.017-.149-.021-.225-.005-.074-.007-.148-.007-.224,0-.242-.012-.464-.035-.665-.023-.2-.091-.329-.203-.385-.111-.047-.242.042-.392.266-.149.225-.304.519-.462.882-.159.364-.309.766-.448,1.204-.14.439-.252.854-.336,1.246-.084.42-.147.845-.189,1.274s-.058.823-.049,1.183c.01.359.045.66.105.903s.156.392.287.448c.252.131.62-.187,1.105-.952.354-.532.816-.682,1.386-.448.233.094.357.233.371.42Z"/>
    <path class="cls-8" d="M144.493,69.055c-.257.033-.521.068-.791.105-.112.663-.229,1.36-.35,2.093-.122.733-.243,1.475-.364,2.227-.121.751-.235,1.495-.343,2.232s-.203,1.438-.287,2.101c-.01.13-.037.219-.084.266s-.11.065-.189.056c-.079-.009-.173-.037-.279-.084-.107-.047-.227-.098-.357-.153-.262-.112-.467-.252-.616-.42-.149-.169-.195-.43-.14-.784.028-.43.074-.947.14-1.555.065-.606.141-1.236.225-1.89s.175-1.307.272-1.96c.099-.653.193-1.246.287-1.778-.159.038-.314.07-.469.099-.154.027-.282.061-.385.098-.141.047-.255.054-.344.021-.089-.033-.184-.129-.287-.287-.111-.159-.212-.359-.301-.603-.089-.242-.161-.443-.217-.602-.056-.168-.065-.28-.028-.336.037-.057.107-.103.21-.141.317-.084.68-.163,1.085-.237.406-.075.819-.141,1.239-.196s.833-.103,1.239-.14c.406-.038.768-.065,1.085-.084.158,0,.277.021.357.062.079.042.146.109.202.203.112.168.208.35.287.546s.143.388.189.574c.037.177.042.296.014.356-.028.062-.126.101-.294.119-.215.028-.45.059-.707.091Z"/>
    <path class="cls-8" d="M145.767,74.949c.257.023.474.119.65.287.505.457.945.754,1.323.889.378.136.651.105.819-.091.103-.103.089-.243-.042-.42-.131-.178-.315-.38-.553-.609-.238-.229-.502-.474-.791-.734-.29-.262-.542-.523-.757-.784-.317-.364-.546-.814-.686-1.352-.14-.536-.126-1.127.042-1.771.056-.262.147-.539.273-.833s.272-.579.44-.854c.168-.274.351-.531.546-.77.196-.238.393-.437.588-.595.065-.065.149-.129.252-.189s.218-.104.344-.133.264-.037.413-.028c.148.01.303.047.462.112.242.112.489.252.741.42s.463.354.631.56c.232.271.37.542.412.812s.068.522.077.756c-.009.205-.03.434-.062.686-.033.253-.07.507-.112.764s-.089.506-.14.749c-.052.242-.105.452-.161.63-.056.168-.121.272-.196.314-.074.042-.182.026-.322-.049-.803-.392-1.176-.924-1.119-1.596.009-.196.039-.437.091-.721.051-.285.088-.542.111-.771s.02-.394-.014-.497c-.032-.103-.124-.079-.272.07-.141.103-.297.28-.47.532s-.314.534-.427.847-.173.633-.182.959c-.01.327.084.616.279.868.252.336.549.648.89.938.341.29.648.579.924.868.275.29.485.593.63.91s.151.672.021,1.064c-.057.195-.139.403-.245.623-.107.219-.25.425-.428.615-.177.191-.398.353-.665.483-.266.131-.585.2-.959.21-.504.019-.989-.112-1.455-.392-.468-.28-.938-.771-1.414-1.471-.252-.345-.378-.597-.378-.756,0-.168.061-.299.182-.392.215-.131.45-.185.707-.161Z"/>
  </g>
  <path class="cls-6" d="M12.612,47.006s-2.619-6.543,3.924-9.162l-1.571-3.926c-.741-1.852-1.156-3.548-.551-5.17.559-1.498,1.312-4.343,6.459-4.014l2.783.552-1.365-3.41s-1.048-2.617-3.665-1.57c-1.853.741-4.128,4.689-6.804,5.76-2.676,1.071-6.841-.299-8.899.525,0,0-2.617,1.048-1.57,3.665l5.403,13.501c1.812,4.529,4.951,9.684,13.185,6.389l1.309-.524-3.143-7.852-5.496,5.236ZM9.731,36.013c-1.446.579-3.086-.124-3.665-1.57-.578-1.446.124-3.086,1.57-3.665,1.445-.579,3.086.124,3.665,1.57s-.124,3.086-1.57,3.665Z"/>
</svg>