<?xml version="1.0" encoding="UTF-8" standalone="no"?>
<!DOCTYPE svg PUBLIC "-//W3C//DTD SVG 1.1//EN" "http://www.w3.org/Graphics/SVG/1.1/DTD/svg11.dtd">
<svg width="100%" height="100%" viewBox="0 0 46 47" version="1.1" xmlns="http://www.w3.org/2000/svg" xmlns:xlink="http://www.w3.org/1999/xlink" xml:space="preserve" xmlns:serif="http://www.serif.com/" style="fill-rule:evenodd;clip-rule:evenodd;stroke-linejoin:round;stroke-miterlimit:2;">
    <g transform="matrix(1,0,0,1,-145,-147)">
        <g id="Museum" transform="matrix(1,0,0,1,145.343,147.367)">
            <rect x="0" y="0" width="45" height="46" style="fill:none;"/>
            <g id="Layer-1" serif:id="Layer 1">
                <g opacity="0.2">
                    <g transform="matrix(0.287415,0.957806,0.957806,-0.287415,12.5958,7.73133)">
                        <path d="M19.635,-14.608C8.313,-14.608 -0.865,-5.43 -0.865,5.892C-0.865,17.214 8.312,26.392 19.635,26.392C30.957,26.392 40.135,17.214 40.135,5.892C40.135,-5.43 30.957,-14.608 19.635,-14.608" style="fill-rule:nonzero;"/>
                    </g>
                </g>
                <g transform="matrix(0.287425,0.957803,0.957803,-0.287425,10.6642,5.76116)">
                    <path d="M18.88,-14.046C7.327,-14.045 -2.037,-5.22 -2.038,5.665C-2.038,16.551 7.327,25.376 18.88,25.377C30.432,25.376 39.796,16.551 39.796,5.665C39.797,-5.22 30.432,-14.046 18.88,-14.046" style="fill:rgb(249,240,211);fill-rule:nonzero;"/>
                </g>
                <g transform="matrix(1,0,0,1,2.7813,20.359)">
                    <path d="M0,7.479C4.87,23.356 27.527,26.381 35.182,11.125C41.287,-0.633 34.552,-16.906 20.508,-17.975C7.446,-19.109 -4.043,-5.148 0,7.479M-0.287,7.565C-4.808,-6.853 4.452,-22.443 20.73,-19.615C38.304,-16.087 46.542,6.618 32.708,19.24C20.25,29.922 3.887,22.267 -0.287,7.565" style="fill:rgb(238,166,31);fill-rule:nonzero;"/>
                </g>
                <g transform="matrix(1,0,0,1,0,-3)">
                    <path d="M27.25,33.143L25.679,33.143L25.679,26.072L27.25,26.072L27.25,33.143ZM22.536,33.143L20.965,33.143L20.965,26.072L22.536,26.072L22.536,33.143ZM17.821,33.143L16.25,33.143L16.25,26.072L17.821,26.072L17.821,33.143ZM30.393,24.5L13.107,24.5L13.107,30.786L11.536,33.143L11.536,35.5L31.964,35.5L31.964,33.143L30.393,30.786L30.393,24.5ZM21.75,15.857C22.379,15.857 22.85,16.329 22.85,17.114C22.85,17.9 22.379,18.214 21.75,18.214C21.121,18.214 20.493,17.743 20.493,16.957C20.493,16.329 21.121,15.857 21.75,15.857M30.393,19.786L24.107,19.786L24.107,15.071L21.75,13.5L19.393,15.071L19.393,19.786L13.107,19.786L11.536,21.357L11.536,22.929L31.964,22.929L31.964,21.357L30.393,19.786Z" style="fill:rgb(233,116,36);fill-rule:nonzero;"/>
                </g>
            </g>
        </g>
    </g>
</svg>
