<?xml version="1.0" encoding="UTF-8"?>
<svg id="Layer_1" xmlns="http://www.w3.org/2000/svg" viewBox="0 0 45 46">
  <defs>
    <style>
      .cls-1 {
        fill: #fed777;
      }

      .cls-2 {
        fill: #ffc023;
      }

      .cls-3 {
        fill: #c23d1c;
      }

      .cls-4 {
        opacity: .2;
      }
    </style>
  </defs>
  <circle class="cls-4" cx="23.883" cy="24.844" r="20.5"/>
  <g>
    <ellipse class="cls-1" cx="21.517" cy="22.216" rx="19.711" ry="20.917" transform="translate(-5.477 7.122) rotate(-16.704)"/>
    <path class="cls-2" d="M2.494,27.924C-2.027,13.506,7.233-2.084,23.511.744c17.574,3.528,25.812,26.233,11.979,38.855-12.459,10.682-28.822,3.027-32.996-11.675h0ZM2.781,27.838c4.87,15.877,27.527,18.902,35.182,3.646,6.105-11.757-.63-28.031-14.674-29.099C10.228,1.25-1.262,15.211,2.781,27.838h0Z"/>
  </g>
  <path id="path7509" class="cls-3" d="M21.542,10.347l-11,5.923v.846h22v-.846l-11-5.923ZM12.235,18.808v8.462l-1.692,2.708v2.369h22v-2.369l-1.692-2.708v-8.462H12.235ZM15.619,20.501h1.692v9.308h-1.692v-9.308ZM20.696,20.501h1.692v9.308h-1.692v-9.308ZM25.773,20.501h1.692v9.308h-1.692v-9.308Z"/>
</svg>