<?xml version="1.0" encoding="UTF-8"?>
<svg id="Layer_1" xmlns="http://www.w3.org/2000/svg" xmlns:xlink="http://www.w3.org/1999/xlink" viewBox="0 0 204 97">
  <defs>
    <style>
      .cls-1 {
        fill: #fed777;
      }

      .cls-2 {
        filter: url(#drop-shadow-2);
      }

      .cls-3 {
        fill: #df4620;
      }

      .cls-4 {
        fill: #ffc023;
      }

      .cls-5 {
        fill: #ffc023;
      }

      .cls-6 {
        fill: #c23d1c;
      }

      .cls-7 {
        opacity: .2;
      }
    </style>
    <filter id="drop-shadow-2" x="13.745" y="52.085" width="160.992" height="30.875" filterUnits="userSpaceOnUse">
      <feOffset dx="2" dy="2"/>
      <feGaussianBlur result="blur" stdDeviation="0"/>
      <feFlood flood-color="#fdcf57" flood-opacity="1"/>
      <feComposite in2="blur" operator="in"/>
      <feComposite in="SourceGraphic"/>
    </filter>
  </defs>
  <path class="cls-7" d="M203,22l-6-20-17.483,10.149,5.118,5.135-16.176,21.952L7.73,44.08l-.89.028L1,95l183.587-.473,2.766-55.86-.374.011,6.718-17.041,9.303.363Z"/>
  <polygon class="cls-5" points="166.71 37.582 183.634 14.613 178.517 9.478 197.458 1.624 200.977 19.375 192.697 18.967 183.569 42.119 166.71 37.582"/>
  <polygon class="cls-1" points="6.761 42.415 185.294 37.033 182.63 90.852 2.32 91.322 6.761 42.415"/>
  <path class="cls-4" d="M1.219,92.329l4.62-50.892.89-.027,179.623-5.414-2.766,55.86-182.368.473ZM7.681,43.393l-1.34,45.916,175.331.54-2.41-48.795L7.681,43.393Z"/>
  <g class="cls-2">
    <path class="cls-6" d="M17.955,54.947v.898c.842-.281,1.627-.421,2.357-.421,2.778,0,4.35,2.077,4.35,5.977,0,3.592-1.74,6.819-6.538,9.204,0,1.207-.028,2.834-.028,4.349,0,.73,0,1.459.028,2.077l-4.378.393c.141-5.22.281-11.168.281-16.668,0-1.88-.028-3.676-.056-5.416l3.985-.393ZM17.898,67.35c1.571-1.094,2.722-3.255,2.722-5.388,0-1.768-.617-2.525-1.571-2.525-.309,0-.617.084-.982.196-.112,2.554-.112,4.995-.168,7.717Z"/>
    <path class="cls-3" d="M28.74,76.111c.079-1.159.099-2.162.099-3.125h-2.398c-.02.374-.02.766-.02,1.179,0,.806.02,1.651.059,2.496l-2.712-.079c-.02-.452-.02-.884-.02-1.336,0-7.232,1.67-12.834,4.363-16.332,2.3,3.655,3.538,7.94,3.538,15.723v1.297l-2.909.177ZM26.618,70.157h2.142c-.177-2.064-.511-3.714-.943-5.346-.59,1.494-.983,3.282-1.199,5.346Z"/>
    <path class="cls-6" d="M35.203,58.974l.02.708c.57-.216,1.12-.314,1.631-.314,1.985,0,3.125,1.611,3.125,4.461,0,1.789-.648,3.321-2.26,4.736,1.081,2.123,1.848,4.422,2.417,6.446l-2.948.551c-.314-1.71-.923-3.577-1.709-5.739,0,1.671-.02,3.341.079,5.071l-2.987.374c.02-1.455.02-2.948.02-4.501,0-3.852-.059-7.841-.157-11.398l2.771-.394ZM35.4,67.268c1.061-.708,1.788-1.946,1.788-3.263,0-1.159-.472-1.729-1.179-1.729-.177,0-.394.04-.609.118-.079,1.474,0,2.968,0,4.874Z"/>
    <path class="cls-3" d="M45.185,76.721c.098-.924.157-1.788.196-2.574l-2.417-.197c-.02.747-.059,1.553-.059,2.378,0,.255.02.55.02.826l-2.732-.157c.059-7.586,1.985-13.364,4.953-16.823,1.965,3.223,3.046,6.898,3.046,13.03,0,1.061-.02,2.201-.079,3.419l-2.928.098ZM43.2,71.237l2.221.177c-.079-2.182-.354-3.872-.767-5.582-.668,1.494-1.16,3.302-1.454,5.404Z"/>
    <path class="cls-6" d="M51.844,60.035v.767c.57-.275,1.12-.433,1.612-.433,2.024,0,3.145,2.162,3.145,5.975,0,4.933-2.221,9.669-7.488,11.242.04-2.24.059-4.933.059-7.665,0-3.459-.04-6.958-.118-9.729l2.791-.157ZM51.981,68.545c0,1.592,0,3.145.039,4.442,1.022-1.062,1.789-3.911,1.789-6.584,0-2.142-.413-3.164-1.16-3.164-.177,0-.393.079-.609.196-.04,1.435-.059,3.282-.059,5.11Z"/>
    <path class="cls-3" d="M60.115,72.456l3.656.157v2.811l-6.544-.177c.157-5.208.177-10.436.137-15.762l6.387-.354.236,2.83-3.715.216c0,.963.02,1.907,0,3.105l3.518.039-.04,2.673h-3.537l-.099,4.461Z"/>
    <path class="cls-6" d="M77.488,56.042l-.842,2.189-2.582-1.123c-.673.618-.982,1.993-.982,3.143,0,2.525,1.6,4.265,2.638,6.089.982,1.796,1.74,3.536,1.74,5.865,0,3.901-1.684,6.959-5.921,8.755l-1.459-4.799c2.525-.87,3.03-3.086,3.03-4.77,0-1.291-.393-2.469-1.122-3.816-1.291-2.273-2.75-4.209-2.75-7.071,0-2.385,1.431-6.51,4.237-7.633l4.013,3.171Z"/>
    <path class="cls-3" d="M77.139,59.799h7.527l-.078,2.83h-2.28c-.059,1.946-.078,3.754-.078,5.503,0,2.575.059,5.11.098,7.979l-3.007.138c.04-2.968.099-5.522.099-8.195,0-1.71-.02-3.479-.079-5.424h-2.28l.079-2.83Z"/>
    <path class="cls-6" d="M88.28,75.522c.118-1.238.177-2.339.216-3.361l-2.417.059c-.04.865-.079,1.769-.079,2.712,0,.334,0,.707.02,1.042l-2.732-.157c.059-7.901,1.985-13.915,4.953-17.531,1.965,3.38,3.046,7.193,3.046,13.58,0,1.101-.02,2.3-.079,3.558l-2.928.098ZM86.374,69.39l2.103-.079c-.079-1.946-.354-3.538-.727-5.129-.629,1.454-1.081,3.204-1.376,5.208Z"/>
    <path class="cls-3" d="M95.038,60.723l.02.472c.57-.216,1.12-.334,1.631-.334,1.985,0,3.125,1.592,3.125,4.363,0,1.808-.648,3.498-2.26,4.874,1.081,2.044,1.907,4.049,2.477,5.994l-2.85.904c-.354-1.415-1.042-3.715-1.828-5.817-.118,1.553-.02,3.125.04,4.795h-3.007c.02-1.572.02-3.223.02-4.914,0-3.498-.04-7.095-.138-10.318l2.771-.02ZM95.235,69.017c1.061-.688,1.788-2.299,1.788-3.655,0-1.14-.472-1.69-1.179-1.69-.197,0-.394.04-.609.118-.079,1.592,0,3.203,0,5.228Z"/>
    <path class="cls-6" d="M100.185,59.799h7.527l-.079,2.83h-2.279c-.059,1.946-.079,3.754-.079,5.503,0,2.575.059,5.11.099,7.979l-3.007.138c.039-2.968.098-5.522.098-8.195,0-1.71-.02-3.479-.079-5.424h-2.28l.079-2.83Z"/>
    <path class="cls-3" d="M113.861,61.667l-.589,1.533-1.808-.786c-.472.433-.688,1.396-.688,2.201,0,1.769,1.121,2.987,1.848,4.265.688,1.258,1.218,2.477,1.218,4.108,0,2.732-1.179,4.874-4.146,6.132l-1.022-3.361c1.769-.609,2.123-2.162,2.123-3.341,0-.904-.275-1.729-.786-2.673-.904-1.592-1.926-2.948-1.926-4.953,0-1.67,1.002-4.56,2.968-5.346l2.81,2.221Z"/>
    <path class="cls-6" d="M125.965,63.618c1.01,0,1.628.505,1.88,1.235l.533-.87c.336-.561.813-.589,1.15-.196.477.561.729,1.796,0,3.255-.729,1.543-3.087,4.602-3.087,6.482,0,.421.112.674.393.674,1.01,0,2.413-1.908,3.339-3.732.309-.561.561-.589.842,0,.112.253.28,1.01-.112,1.824-.729,1.543-2.525,3.03-4.237,3.03-1.403,0-2.217-.729-2.441-1.768-.813.786-2.076,1.656-3.199,1.656-1.656,0-2.554-1.207-2.554-2.862,0-1.207.505-2.778,1.516-4.181,2.245-3.227,4.545-4.546,5.977-4.546ZM124.983,69.904c1.094-1.908,1.6-3.283,1.6-4.013,0-.337-.056-.533-.337-.533-.561,0-2.498,1.768-3.929,4.069-.842,1.319-1.319,2.806-1.319,3.704,0,.505.112.842.393.842.926,0,2.217-1.712,3.592-4.069Z"/>
    <path class="cls-6" d="M130.429,69.764c.562-1.375,1.627-3.592,2.75-5.612-.87-.112-1.375-.421-1.6-.758-.393-.589-.112-.87.533-.842.646.028,1.403,0,2.021-.056.87-1.515,1.459-2.441,2.104-3.367.421-.617.758-.589,1.066-.056.196.337.309.814.309,1.15,0,.505-.112,1.15-.449,1.937.87.112,1.347.561,1.543.898.281.505.084.842-.589.757-.505-.056-1.235,0-1.852.084-1.066,1.824-2.666,4.602-3.648,6.734-.337.758-.505,1.487-.505,2.104,0,.842.281,1.431.758,1.431,1.094,0,2.554-1.768,3.536-3.872.309-.674.954-.73,1.15.028.141.589.028,1.01-.28,1.656-.393.842-2.273,3.255-4.63,3.255-1.487,0-2.778-1.207-2.778-3.143,0-.618.168-1.403.561-2.329Z"/>
    <path class="cls-3" d="M151.14,52.197c-2.104,8.054-3.452,15.911-4.125,24.413l-4.434.337c.729-7.941,2.778-15.321,4.967-21.102l-3.873-.168-1.15,2.414-1.627-.533.561-5.472,9.681.112Z"/>
    <path class="cls-6" d="M154.522,59.878l.02.491c.609-.236,1.179-.354,1.69-.354,2.005,0,3.165,1.69,3.165,4.618,0,2.536-1.16,4.874-4.363,6.683.059,1.316.098,3.341.177,4.697l-3.046.197c-.04-5.11-.157-11.144-.413-16.116l2.771-.216ZM154.816,68.938c1.042-.806,1.789-2.417,1.789-3.931,0-1.375-.511-2.024-1.199-2.024-.197,0-.433.039-.668.157,0,2.299.04,4.029.079,5.797Z"/>
    <path class="cls-6" d="M163.009,59.504l.02.943c.806-.904,1.906-1.297,2.811-1.297.806,0,1.709.413,2.044,1.631.727-1.101,1.552-1.592,2.85-1.592.962,0,2.004.472,2.004,3.066,0,4.127-.511,8.333-.747,12.755l-3.085.157c.492-4.225.826-9.453.826-11.988,0-.668-.374-.904-.786-.904s-.865.256-1.022.57c-.196,3.538-.275,8.981-.452,12.716l-2.987.137c.491-4.225.531-9.453.57-12.676,0-.609-.314-.845-.708-.845-.413,0-.864.275-1.021.59-.295,3.538-.275,8.51-.394,12.381l-3.085.079c.314-5.424.472-8.785.472-12.774,0-.943,0-1.907-.02-2.948h2.712Z"/>
  </g>
</svg>