<?xml version="1.0" encoding="UTF-8"?>
<svg id="Layer_1" xmlns="http://www.w3.org/2000/svg" xmlns:xlink="http://www.w3.org/1999/xlink" viewBox="0 0 164 88">
  <defs>
    <style>
      .cls-1 {
        fill: #fed777;
      }

      .cls-2 {
        filter: url(#drop-shadow-9);
      }

      .cls-3 {
        fill: #df4620;
      }

      .cls-4 {
        fill: #ffc023;
      }

      .cls-5 {
        fill: #ffc023;
      }

      .cls-6 {
        fill: #c23d1c;
      }

      .cls-7 {
        opacity: .2;
      }
    </style>
    <filter id="drop-shadow-9" x="33.515" y="12.431" width="120.294" height="28.365" filterUnits="userSpaceOnUse">
      <feOffset dx="2" dy="2"/>
      <feGaussianBlur result="blur" stdDeviation="0"/>
      <feFlood flood-color="#fdcf57" flood-opacity="1"/>
      <feComposite in2="blur" operator="in"/>
      <feComposite in="SourceGraphic"/>
    </filter>
  </defs>
  <polygon class="cls-7" points="25.825 3.473 23.549 49.45 23.498 49.425 10.043 70.361 2 68.35 1 84 2 86.446 22.107 82.425 22 80 19.69 76.351 38.768 58.929 155.682 55.92 156.573 55.892 161.193 5 160 2 25.825 3.473"/>
  <polygon class="cls-5" points="38.373 54.036 17.305 73.276 21.326 79.308 1.219 83.329 1.219 65.233 9.262 67.244 22.717 46.308 38.373 54.036"/>
  <polygon class="cls-1" points="154.87 51.797 23.337 55.179 26.002 1.36 159.312 2.89 154.87 51.797"/>
  <path class="cls-4" d="M160.412,1.883l-4.62,50.892-.89.027-132.623,3.414L25.044.356l135.368,1.527ZM153.95,50.819l1.34-45.916L26.959,2.363l2.41,48.795,124.581-.339Z"/>
  <g class="cls-2">
    <path class="cls-6" d="M38.074,32.861l5.79.18-.21,4.29-9.899-.12c0-2.22.029-4.5.029-6.87,0-5.64-.09-11.52-.27-17.189l9.93-.72.27,4.32-5.699.42c.06,1.619.09,2.999.09,4.949h5.189v4.17h-5.22v6.57Z"/>
    <path class="cls-3" d="M47.758,20.257l.042.714c.882-1.008,2.058-1.491,3.149-1.491,1.008,0,2.289.462,2.289,3.401,0,3.927-.273,9.722-.336,14.257l-3.234.252c.295-3.569.357-7.832.357-11.17,0-.903-.021-1.764-.021-2.52,0-.672-.336-.924-.734-.924-.441,0-.966.336-1.07.776-.147,2.835-.189,6.467-.189,9.868,0,1.134.021,2.247.021,3.297l-3.297.23c.146-3.842.21-6.551.21-9.154,0-2.226-.042-4.388-.084-7.201l2.897-.336Z"/>
    <path class="cls-6" d="M57.48,20.551l-.043.924c.547-.231,1.071-.357,1.555-.357,2.184,0,3.338,2.184,3.338,5.816,0,5.249-2.52,10.351-8.44,11.862.294-5.249.567-12.934.608-18.015l2.982-.23ZM57.165,34.093c1.239-1.112,2.184-4.262,2.184-7.117,0-1.869-.42-2.751-1.176-2.751-.188,0-.399.063-.63.168-.168,2.729-.336,6.845-.378,9.7Z"/>
    <path class="cls-3" d="M81.639,17.561c1.949.87,2.729,2.7,2.729,4.83,0,2.22-.78,4.8-1.92,6.899-2.04,3.72-5.069,6.81-8.52,6.81-.72,0-1.35-.12-2.01-.359-2.58-.96-3.57-3.21-3.57-5.7,0-6.33,5.64-11.88,9.06-13.079.601-.21,1.17-.301,1.8-.301,1.08,0,1.92.36,2.431.9ZM79.719,28.271c1.439-2.67,2.04-5.19,2.04-7.021,0-1.439-.301-2.399-.931-2.64-1.319-.479-4.859,1.5-7.59,5.67-1.529,2.37-2.189,4.95-2.189,6.899,0,2.101.75,3.271,1.89,3.271,1.86,0,4.65-2.28,6.78-6.18Z"/>
    <path class="cls-3" d="M83.172,33.295c.609-1.784,2.73-5.773,4.578-8.734-.483-.272-.715-.692-.799-1.07-.062-.273.063-.399.463-.399,1.217,0,2.12-.126,3.128-.294.735-.126,1.428-.21,1.932-.21,1.008,0,1.596.42,1.89,1.134.105.231,0,.462-.441.462-1.07-.021-2.1.21-4.115.567-.692,1.154-1.512,2.604-2.498,4.409.398-.063.693-.084,1.008-.105,1.197-.084,1.764.357,1.953,1.029.084.294.041.482-.42.524-.967.084-2.457.273-3.611.567-.777,1.512-1.387,2.813-2.121,4.388-.126.273-.42.336-.714.147-.294-.189-.483-.63-.483-1.134,0-.315.084-.756.252-1.281Z"/>
    <path class="cls-6" d="M101.111,14.261v.96c.899-.3,1.739-.45,2.52-.45,2.97,0,4.65,2.22,4.65,6.39,0,3.84-1.86,7.29-6.99,9.84,0,1.29-.03,3.03-.03,4.649,0,.78,0,1.561.03,2.221l-4.68.42c.15-5.58.3-11.939.3-17.819,0-2.01-.03-3.93-.06-5.79l4.26-.42ZM101.051,27.521c1.681-1.17,2.91-3.48,2.91-5.76,0-1.891-.66-2.7-1.68-2.7-.33,0-.66.09-1.05.21-.12,2.729-.12,5.34-.181,8.25Z"/>
    <path class="cls-3" d="M114.136,36.886c.084-1.239.104-2.31.104-3.339h-2.561c-.021.399-.021.819-.021,1.26,0,.861.021,1.764.062,2.667l-2.896-.084c-.021-.483-.021-.945-.021-1.428,0-7.727,1.785-13.711,4.661-17.448,2.456,3.905,3.779,8.482,3.779,16.797v1.386l-3.107.189ZM111.868,30.524h2.288c-.188-2.204-.545-3.968-1.008-5.711-.629,1.596-1.049,3.507-1.28,5.711Z"/>
    <path class="cls-6" d="M121.045,18.577l.021.756c.609-.231,1.197-.336,1.742-.336,2.121,0,3.339,1.722,3.339,4.766,0,1.911-.692,3.549-2.415,5.061,1.155,2.268,1.975,4.724,2.583,6.887l-3.149.588c-.336-1.827-.986-3.821-1.826-6.131,0,1.784-.021,3.569.084,5.417l-3.191.398c.021-1.554.021-3.149.021-4.808,0-4.115-.063-8.378-.168-12.178l2.96-.42ZM121.256,27.438c1.133-.756,1.91-2.079,1.91-3.485,0-1.239-.504-1.848-1.26-1.848-.189,0-.42.042-.65.126-.084,1.574,0,3.17,0,5.207Z"/>
    <path class="cls-3" d="M131.713,37.536c.104-.986.168-1.91.209-2.75l-2.582-.21c-.021.798-.062,1.658-.062,2.54,0,.273.021.588.021.882l-2.919-.168c.063-8.104,2.121-14.277,5.291-17.973,2.1,3.443,3.255,7.37,3.255,13.921,0,1.134-.021,2.352-.084,3.653l-3.128.104ZM129.592,31.679l2.373.188c-.084-2.33-.379-4.136-.819-5.963-.714,1.596-1.239,3.527-1.554,5.774Z"/>
    <path class="cls-6" d="M138.832,19.711v.818c.609-.294,1.197-.462,1.722-.462,2.163,0,3.359,2.31,3.359,6.383,0,5.271-2.372,10.33-7.999,12.01.041-2.394.062-5.27.062-8.188,0-3.695-.042-7.433-.126-10.393l2.981-.168ZM138.979,28.802c0,1.701,0,3.359.043,4.745,1.092-1.134,1.91-4.178,1.91-7.033,0-2.289-.441-3.381-1.238-3.381-.189,0-.42.084-.651.21-.042,1.533-.063,3.507-.063,5.459Z"/>
    <path class="cls-3" d="M147.672,32.981l3.906.168v3.002l-6.992-.188c.168-5.564.189-11.149.146-16.839l6.824-.378.252,3.023-3.969.23c0,1.029.021,2.037,0,3.317l3.759.042-.042,2.855h-3.779l-.105,4.767Z"/>
  </g>
</svg>