<?xml version="1.0" encoding="UTF-8" standalone="no"?>
<!DOCTYPE svg PUBLIC "-//W3C//DTD SVG 1.1//EN" "http://www.w3.org/Graphics/SVG/1.1/DTD/svg11.dtd">
<svg width="100%" height="100%" viewBox="0 0 46 40" version="1.1" xmlns="http://www.w3.org/2000/svg" xmlns:xlink="http://www.w3.org/1999/xlink" xml:space="preserve" xmlns:serif="http://www.serif.com/" style="fill-rule:evenodd;clip-rule:evenodd;stroke-linejoin:round;stroke-miterlimit:2;">
    <g transform="matrix(1,0,0,1,-90,-146)">
        <g id="Parking" transform="matrix(1,0,0,1,90.4738,146.867)">
            <rect x="0" y="0" width="45" height="39" style="fill:none;"/>
            <g id="Layer-1" serif:id="Layer 1">
                <g opacity="0.2">
                    <g transform="matrix(1,0,0,1,1,7.927)">
                        <path d="M0,27.073L43,29.104L24.939,-2.031L0,27.073Z" style="fill-rule:nonzero;"/>
                    </g>
                </g>
                <g transform="matrix(1,0,0,1,0.7812,2.896)">
                    <path d="M0,31.073L39.218,31.104L21.157,-0.031L0,31.073Z" style="fill:rgb(255,132,27);fill-rule:nonzero;"/>
                </g>
                <g transform="matrix(1,0,0,1,0.7812,3.8959)">
                    <path d="M0,31.073L39.218,31.104L21.157,-0.031L0,31.073Z" style="fill:rgb(255,132,27);fill-rule:nonzero;"/>
                </g>
                <g transform="matrix(1,0,0,1,30.3558,27.4007)">
                    <path d="M0,-8.01C0.151,-8.34 0.009,-8.731 -0.319,-8.887L-9.179,-13.005L-18.093,-8.887C-18.427,-8.733 -18.573,-8.337 -18.418,-8.003C-18.264,-7.67 -17.869,-7.524 -17.535,-7.678L-9.179,-11.544L-0.824,-7.691C-0.493,-7.54 -0.103,-7.682 0.053,-8.01L0,-8.01ZM-7.187,-4.437C-7.571,-4.718 -8.04,-4.859 -8.515,-4.835L-10.76,-4.835L-10.76,-1.315L-8.515,-1.315C-8.035,-1.289 -7.563,-1.441 -7.187,-1.74C-6.847,-2.095 -6.673,-2.578 -6.708,-3.068C-6.646,-3.574 -6.823,-4.08 -7.187,-4.437M-5.194,-0.133C-6.076,0.504 -7.151,0.813 -8.236,0.744L-10.76,0.744L-10.76,4.995L-13.284,4.995L-13.284,-6.961L-8.077,-6.961C-7.04,-7.016 -6.02,-6.689 -5.207,-6.044C-4.44,-5.301 -4.045,-4.253 -4.131,-3.188C-3.993,-2.06 -4.385,-0.931 -5.194,-0.133" style="fill:rgb(255,239,194);fill-rule:nonzero;"/>
                </g>
                <g transform="matrix(1,0,0,1,20.8305,33.5586)">
                    <path d="M0,-0.195C-0.021,-0.11 -0.017,0.086 0.036,0.049L0.082,-0.281L0,-0.195Z" style="fill:rgb(219,134,78);fill-rule:nonzero;"/>
                </g>
                <g transform="matrix(1,0,0,1,21.1556,33.2439)">
                    <path d="M0,0.743C0.065,0.584 0.143,0.305 0.113,0C0.044,0.316 0.034,0.183 -0.042,0.559C-0.094,0.596 -0.128,0.45 -0.116,0.329C-0.136,0.413 -0.193,0.254 -0.227,0.461C-0.168,0.719 -0.084,0.732 0.01,0.523C0.027,0.596 0.006,0.682 0,0.743" style="fill:rgb(219,134,78);fill-rule:nonzero;"/>
                </g>
                <g transform="matrix(1,0,0,1,26.1346,34.6149)">
                    <path d="M0,0.04L-0.031,0C-0.023,0.022 -0.012,0.034 0,0.04" style="fill:rgb(219,134,78);fill-rule:nonzero;"/>
                </g>
                <g transform="matrix(1,0,0,1,29.2237,35.0006)">
                    <path d="M0,-0.07C-0.024,-0.063 -0.035,-0.03 -0.037,0C-0.014,-0.021 0.004,-0.041 0,-0.07" style="fill:rgb(219,134,78);fill-rule:nonzero;"/>
                </g>
                <g transform="matrix(1,0,0,1,29.7409,35.3133)">
                    <path d="M0,-0.002C-0.012,-0.011 -0.021,-0.018 -0.03,-0.025C-0.02,0.005 -0.008,0.023 0,-0.002" style="fill:rgb(219,134,78);fill-rule:nonzero;"/>
                </g>
                <g transform="matrix(1,0,0,1,26.1346,34.7599)">
                    <path d="M0,-0.105L0.079,0.001C0.089,-0.106 0.04,-0.08 0,-0.105" style="fill:rgb(219,134,78);fill-rule:nonzero;"/>
                </g>
                <g transform="matrix(1,0,0,1,21.8686,33.2959)">
                    <path d="M0,-0.086C-0.018,-0.071 -0.033,-0.04 -0.047,0C-0.033,-0.014 -0.019,-0.026 -0.004,-0.034L0,-0.086Z" style="fill:rgb(219,134,78);fill-rule:nonzero;"/>
                </g>
                <g transform="matrix(1,0,0,1,24.7622,35.0155)">
                    <path d="M0,-0.134L-0.025,-0.134C-0.032,-0.097 -0.041,-0.051 -0.05,0L0,-0.134Z" style="fill:rgb(219,134,78);fill-rule:nonzero;"/>
                </g>
                <g transform="matrix(1,0,0,1,23.7137,34.5234)">
                    <path d="M0,0.377C0.023,0.39 0.04,0.109 0.053,-0.013C0.036,0.102 0.017,0.157 -0.005,0.178C-0.007,0.231 -0.005,0.295 0,0.377" style="fill:rgb(219,134,78);fill-rule:nonzero;"/>
                </g>
                <g transform="matrix(1,0,0,1,22.0686,34.3937)">
                    <path d="M0,-0.038L-0.031,0L0,-0.038Z" style="fill:rgb(219,134,78);fill-rule:nonzero;"/>
                </g>
                <g transform="matrix(1,0,0,1,25.5097,35.0661)">
                    <path d="M0,-0.101C0.003,-0.059 0.005,-0.022 0.006,0C0.008,-0.036 0.005,-0.069 0,-0.101" style="fill:rgb(219,134,78);fill-rule:nonzero;"/>
                </g>
                <g transform="matrix(1,0,0,1,30.4339,21.8572)">
                    <path d="M0,0.025C0.017,0.015 0.028,0.009 0.043,0C0.016,0.009 -0.003,0.017 0,0.025" style="fill:rgb(219,134,78);fill-rule:nonzero;"/>
                </g>
                <g transform="matrix(1,0,0,1,31.0269,20.0708)">
                    <path d="M0,0.062L0.021,0.069L0.159,-0.007L0,0.062Z" style="fill:rgb(219,134,78);fill-rule:nonzero;"/>
                </g>
                <g transform="matrix(1,0,0,1,30.697,35.7207)">
                    <path d="M0,-0.02L-0.004,-0.026C-0.031,0.006 -0.016,0.001 0,-0.02" style="fill:rgb(219,134,78);fill-rule:nonzero;"/>
                </g>
                <g transform="matrix(1,0,0,1,41.1833,34.8913)">
                    <path d="M0,0.537C-0.347,0.439 -0.668,0.03 -1.024,-0.027C-0.855,0.045 -0.173,0.564 0,0.537" style="fill:rgb(219,134,78);fill-rule:nonzero;"/>
                </g>
                <g transform="matrix(1,0,0,1,21.8946,33.2366)">
                    <path d="M0,0.011C0.014,0.008 0.029,0.006 0.043,0.01C0.024,0 0.01,0 0,0.011" style="fill:rgb(219,134,78);fill-rule:nonzero;"/>
                </g>
                <g transform="matrix(1,0,0,1,40.1591,34.8562)">
                    <path d="M0,0.008L-0.004,0.006L-0.038,0C-0.022,0.003 -0.013,0.005 0,0.008" style="fill:rgb(219,134,78);fill-rule:nonzero;"/>
                </g>
                <g transform="matrix(1,0,0,1,32.9301,35.4756)">
                    <path d="M0,0.124C-0.003,0.074 -0.011,0.037 -0.019,0C-0.019,0.029 -0.015,0.065 0,0.124" style="fill:rgb(219,134,78);fill-rule:nonzero;"/>
                </g>
                <g transform="matrix(1,0,0,1,31.2824,35.1884)">
                    <path d="M0,-0.039L0.04,0C0.024,-0.026 0.011,-0.035 0,-0.039" style="fill:rgb(219,134,78);fill-rule:nonzero;"/>
                </g>
                <g transform="matrix(1,0,0,1,33.804,35.2803)">
                    <path d="M0,-0.051C0.022,-0.029 0.028,0.01 0.06,-0.027C0.056,-0.041 0.054,-0.051 0.051,-0.061C0.039,-0.023 0.024,-0.006 0,-0.051" style="fill:rgb(219,134,78);fill-rule:nonzero;"/>
                </g>
                <g transform="matrix(1,0,0,1,34.701,35.1979)">
                    <path d="M0,0.057C-0.005,0.036 -0.01,0.019 -0.015,0L-0.044,0.014L0,0.057Z" style="fill:rgb(219,134,78);fill-rule:nonzero;"/>
                </g>
                <g transform="matrix(1,0,0,1,31.9218,24.0089)">
                    <path d="M0,0.163C0.058,0.106 0.128,0.052 0.198,0C0.032,0.113 -0.096,0.034 0,0.163" style="fill:rgb(219,134,78);fill-rule:nonzero;"/>
                </g>
                <g transform="matrix(1,0,0,1,21.8643,33.2478)">
                    <path d="M0,0.12C0.007,0.049 0.016,0.014 0.03,0C0.02,0.003 0.01,0.008 0,0.014C-0.004,0.056 -0.006,0.095 0,0.12" style="fill:rgb(219,134,78);fill-rule:nonzero;"/>
                </g>
                <g transform="matrix(1,0,0,1,33.9079,33.06)">
                    <path d="M0,-0.046L0.141,0C0.102,-0.029 0.051,-0.044 0,-0.046" style="fill:rgb(219,134,78);fill-rule:nonzero;"/>
                </g>
                <g transform="matrix(1,0,0,1,35.1932,29.7152)">
                    <path d="M0,0.002L-0.046,-0.009C-0.045,0.005 -0.032,0.011 0,0.002" style="fill:rgb(219,134,78);fill-rule:nonzero;"/>
                </g>
                <g transform="matrix(1,0,0,1,34.4733,33.2282)">
                    <path d="M0,-0.197C0.022,-0.097 0.048,-0.039 0.074,0C0.081,-0.022 0.088,-0.04 0.093,-0.072L0,-0.197Z" style="fill:rgb(219,134,78);fill-rule:nonzero;"/>
                </g>
                <g transform="matrix(1,0,0,1,32.1217,24.0094)">
                    <path d="M0,-0.002L-0.002,0L0,-0.002Z" style="fill:rgb(219,134,78);fill-rule:nonzero;"/>
                </g>
                <g transform="matrix(1,0,0,1,34.9383,31.1997)">
                    <path d="M0,-6.59C0.056,-6.574 0.015,-6.534 -0.032,-6.5C-0.046,-6.514 -0.066,-6.53 -0.098,-6.546L-0.13,-6.533C-0.082,-6.557 -0.036,-6.578 0,-6.59M-1.4,-5.123C-1.407,-5.157 -1.426,-5.193 -1.449,-5.229C-1.37,-5.285 -1.278,-5.327 -1.269,-5.301C-1.333,-5.281 -1.349,-5.199 -1.4,-5.123M-1.538,-5.351L-1.543,-5.349C-1.562,-5.369 -1.579,-5.386 -1.59,-5.397C-1.579,-5.388 -1.564,-5.375 -1.538,-5.351M-3.866,-7.669C-3.804,-7.547 -3.521,-7.795 -3.323,-7.877C-3.151,-7.789 -3.521,-7.675 -3.656,-7.533C-3.521,-7.494 -3.189,-7.598 -3.163,-7.525C-3.213,-7.49 -3.225,-7.466 -3.299,-7.442C-2.992,-7.497 -3.127,-7.175 -2.745,-7.253C-2.769,-7.228 -2.794,-7.208 -2.817,-7.192C-2.667,-7.303 -2.506,-7.4 -2.388,-7.464C-2.352,-7.414 -2.129,-7.483 -2.327,-7.342C-2.339,-7.378 -2.425,-7.332 -2.499,-7.309L-2.376,-7.306C-2.647,-7.082 -2.524,-7.321 -2.746,-7.192C-2.586,-7.141 -2.265,-7.161 -2.301,-7.029C-2.585,-6.841 -2.512,-7.164 -2.709,-6.902L-2.671,-7.095C-3.078,-6.728 -2.684,-7.191 -3.127,-6.814C-3.115,-6.596 -2.869,-6.713 -2.857,-6.496C-2.672,-6.553 -2.623,-6.648 -2.438,-6.706C-2.006,-6.638 -3.067,-6.089 -2.574,-6.142C-2.352,-6.21 -1.971,-6.408 -2.095,-6.17L-2.451,-6.019C-2.39,-5.837 -1.92,-6.204 -2.044,-5.904C-2.193,-5.858 -2.229,-5.968 -2.254,-5.92C-2.452,-5.657 -2.02,-5.951 -1.971,-5.867L-2.255,-5.678C-2.108,-5.532 -1.785,-5.465 -1.62,-5.304C-1.713,-5.264 -1.824,-5.244 -1.888,-5.146C-1.601,-4.99 -1.624,-4.61 -1.663,-4.275L-1.357,-4.334C-1.348,-4.311 -1.45,-4.229 -1.512,-4.222C-1.555,-4.076 -1.348,-4.311 -1.223,-4.326C-1.175,-4.284 -1.329,-4.173 -1.424,-4.161C-1.116,-4.126 -0.695,-3.974 -0.869,-3.647L-0.963,-3.636C-0.99,-3.445 -0.357,-3.79 -0.523,-3.53L-0.581,-3.528C-0.525,-3.178 -0.109,-2.998 -0.366,-2.557C0.024,-2.728 -0.364,-2.18 0.156,-2.458C-0.002,-2.148 -0.12,-2.142 -0.156,-1.814C-0.144,-1.739 0.215,-1.907 0.312,-1.862L0.047,-1.706L0.386,-1.765L0.099,-1.525L0.209,-1.494C0.209,-1.531 0.294,-1.624 0.373,-1.664C0.558,-1.623 0.345,-1.285 0.21,-1.203L0.588,-1.071C0.478,-1.015 0.415,-1.038 0.327,-1.033C0.68,-1.05 0.061,-0.844 0.385,-0.86C0.435,-0.913 0.549,-0.943 0.604,-0.972C0.481,-0.814 0.564,-0.667 0.695,-0.599L0.499,-0.513C0.565,-0.291 0.826,-0.153 0.95,0.068C0.99,-0.061 1.319,-0.228 1.386,-0.181L1.12,0.008C1.318,-0.052 1.187,-0.121 1.45,-0.16C1.465,-0.059 1.161,0.081 1.042,0.088L1.198,0.13C1.117,0.185 1.059,0.187 0.949,0.244C1.147,0.183 0.766,0.58 1.104,0.462L1.023,0.516C1.148,0.736 1.302,0.779 1.42,0.949C1.665,0.811 1.652,0.912 1.879,0.851C1.878,1.027 1.771,1.283 1.883,1.429C2.064,1.462 2.105,1.336 2.272,1.291C2.053,1.423 2.102,1.46 1.92,1.513C1.99,1.55 1.995,1.54 2.27,1.599C2.377,1.575 2.416,1.551 2.514,1.545C2.574,1.565 2.429,1.613 2.291,1.62L2.259,1.618C2.504,1.659 2.346,1.758 2.157,1.767C1.976,1.79 1.77,1.732 2.156,1.865L2.118,1.851C2.257,1.907 2.404,1.976 2.559,2.057C2.516,2.071 2.264,1.933 2.045,1.871C2.377,2.017 2.381,2.055 2.343,2.055C2.307,2.061 2.231,2.032 2.489,2.191C2.029,1.958 1.919,1.898 1.935,1.917C1.94,1.924 2.187,2.14 1.732,1.822L1.986,2.008C2.218,2.189 1.828,1.901 1.771,1.859C1.957,2 1.985,2.02 2.124,2.126C2.199,2.236 2.007,2.165 1.856,2.048C1.695,1.932 1.576,1.769 1.551,1.688C1.552,1.64 1.801,2.617 1.624,2.186C1.615,2.076 1.601,1.965 1.582,1.854C1.591,1.954 1.573,2.002 1.553,2.024C1.545,2.046 1.377,2.037 1.298,2.03C1.098,2.013 0.899,1.988 0.701,2.15C0.726,2.075 0.729,1.976 0.767,1.978C0.693,1.736 0.466,1.957 0.458,2.153C0.399,2.129 0.45,1.976 0.416,1.875C0.339,1.731 0.201,2.175 0.165,1.935C0.159,1.896 0.19,1.858 0.206,1.84C0.149,1.954 -0.042,1.803 0.001,2.081C-0.14,1.944 -0.28,2.195 -0.391,2.028C-0.475,2.335 -0.634,1.872 -0.671,2.308C-0.647,1.857 -0.914,1.936 -1.013,2.146C-0.978,2.01 -1.088,2.002 -1.046,1.814C-1.151,1.817 -1.25,1.898 -1.238,2.131C-1.415,1.584 -1.639,2.554 -1.726,1.858C-2.044,2.091 -2.337,2.247 -2.62,2.344C-2.596,1.894 -2.309,2.309 -2.307,1.835C-2.578,2.013 -2.742,2.395 -3.002,2.278C-3.068,2.215 -2.957,2.084 -2.932,2.008C-3.203,2.185 -3.443,1.951 -3.686,2.189C-3.684,2.147 -3.657,2.102 -3.632,2.069C-3.679,2.082 -3.738,1.999 -3.739,2.204L-3.692,2.15C-3.627,2.45 -3.896,2.766 -3.909,2.923C-3.812,2.338 -4.137,2.768 -3.989,2.03C-4.021,2.067 -4.062,2.163 -4.059,2.3C-4.104,2.259 -4.115,2.179 -4.065,2.024C-4.234,2.131 -4.182,2.35 -4.333,2.341C-4.329,2.242 -4.297,2.204 -4.278,2.088C-4.361,2.279 -4.443,2.471 -4.568,2.383C-4.558,2.323 -4.571,2.245 -4.533,2.248C-4.753,2.271 -4.922,2.751 -5.156,2.557C-5.072,2.128 -5.233,2.413 -5.234,2.039L-5.367,2.147L-5.321,2.329C-5.434,2.32 -5.542,2.588 -5.635,2.463L-5.547,2.312L-5.76,2.376L-5.645,2.522C-5.765,2.71 -5.647,2.994 -5.794,2.886C-5.763,2.848 -5.907,2.878 -5.96,2.656L-5.959,2.655C-6.019,2.772 -6.08,2.895 -6.161,2.8C-6.179,2.68 -6.131,2.388 -6.142,2.308C-6.207,2.618 -6.41,2.387 -6.49,2.717C-6.464,2.639 -6.457,2.444 -6.464,2.403L-6.517,2.655C-6.567,2.573 -6.574,2.533 -6.561,2.377C-6.717,2.326 -6.525,2.852 -6.706,2.643C-6.69,2.623 -6.696,2.584 -6.665,2.547C-6.849,2.435 -7.032,2.697 -7.201,2.567C-7.24,2.19 -7.047,2.479 -7.096,2.161C-7.347,2.221 -7.625,2.595 -7.863,2.499L-7.819,2.542C-7.869,3.071 -7.991,2.275 -8.12,2.521C-8.089,2.483 -8.072,2.228 -8.082,2.287C-8.244,2.197 -8.423,2.407 -8.678,2.566L-8.643,2.431C-8.736,2.306 -8.896,2.353 -9,2.288C-9.035,2.423 -9.094,2.399 -9.064,2.598C-9.364,1.813 -9.694,2.995 -9.961,2.34C-9.927,2.34 -9.876,2.223 -9.903,2.222L-10.151,2.34C-10.139,2.572 -10.123,2.481 -10.078,2.662C-10.113,2.798 -10.185,2.902 -10.246,2.901C-10.131,2.751 -10.235,2.53 -10.279,2.399C-10.273,2.47 -10.292,2.548 -10.29,2.62C-10.405,2.205 -10.325,3.084 -10.491,2.802L-10.479,2.681C-10.546,2.741 -10.611,2.899 -10.68,2.863C-10.701,2.595 -10.607,2.74 -10.596,2.52C-10.695,2.533 -10.806,3.021 -10.887,2.752C-10.843,2.678 -10.783,2.679 -10.739,2.606C-10.826,2.29 -10.84,2.369 -10.911,2.317L-10.904,2.324L-11.067,2.177L-11.027,2.264C-11.172,2.956 -11.283,2.383 -11.464,2.834C-11.288,2.407 -11.429,2.585 -11.408,2.283C-11.448,2.198 -11.509,2.101 -11.488,2.017C-11.575,2.259 -11.614,1.82 -11.736,2.174C-11.738,2.076 -11.82,2.162 -11.795,1.918C-11.9,1.991 -11.776,2.088 -11.788,2.21C-11.956,2.538 -12.147,1.795 -12.388,2.245C-12.589,2.427 -12.636,2.755 -12.822,2.913C-12.879,2.755 -12.761,2.559 -12.761,2.559C-12.856,2.413 -12.931,2.437 -13.028,2.546C-13.006,2.461 -13.024,2.389 -13.049,2.278C-13.124,2.302 -13.11,2.632 -13.204,2.485C-13.184,2.377 -13.157,2.204 -13.117,2.096C-13.208,2.183 -13.301,2.362 -13.395,2.447C-13.414,2.277 -13.332,2.191 -13.296,2.081C-13.401,2.155 -13.567,2.227 -13.607,2.495L-13.544,2.593C-13.582,2.605 -13.556,2.362 -13.527,2.313C-13.432,2.105 -13.403,2.41 -13.401,2.508L-13.468,2.569C-13.418,3.143 -13.204,2.485 -13.074,2.522L-13.141,2.936L-12.996,2.595C-12.971,2.705 -12.959,2.937 -13.025,2.998C-12.938,3.206 -12.938,2.852 -12.864,3.084C-12.856,3.12 -12.861,3.14 -12.87,3.156L-12.774,3.035C-12.795,3.122 -12.768,3.329 -12.822,3.267C-12.665,3.512 -12.548,2.963 -12.495,3.28L-12.51,3.305C-12.277,3.172 -12.478,3.001 -12.296,2.648L-12.204,3.404L-12.172,3.1C-12.149,3.111 -12.103,3.136 -12.115,3.258C-12.021,3.051 -12.126,3.124 -12.069,2.929C-11.965,3.21 -11.753,2.808 -11.742,3.295C-11.694,3.065 -11.845,3.113 -11.719,2.955C-11.701,3.479 -11.577,2.87 -11.48,3.113C-11.52,3.382 -11.614,3.236 -11.518,3.48C-11.442,3.026 -11.319,3.586 -11.229,3.501C-11.214,3.138 -11.035,3.356 -10.884,3.239C-10.897,3.361 -10.615,3.447 -10.482,3.583L-10.488,3.643C-10.451,3.277 -10.312,3.351 -10.207,3.278C-10.218,3.498 -10.239,3.584 -10.298,3.68L-10.201,3.682C-10.175,3.565 -10.143,3.504 -10.079,3.463L-10.112,3.737C-9.983,3.726 -9.844,3.422 -9.685,3.61C-9.668,3.354 -9.794,2.893 -9.615,2.728C-9.612,2.866 -9.613,3.103 -9.66,3.158C-9.645,3.141 -9.604,3.045 -9.575,3.105L-9.652,3.336C-9.58,3.44 -9.607,3.142 -9.547,3.166C-9.555,3.363 -9.507,3.308 -9.521,3.465C-9.537,3.483 -9.571,3.381 -9.596,3.458C-9.529,3.496 -9.451,3.615 -9.429,3.765C-9.431,3.653 -9.421,3.5 -9.37,3.476C-9.242,3.465 -9.333,3.714 -9.262,3.818C-9.227,3.682 -9.149,3.826 -9.138,3.531C-9.101,3.534 -9.098,3.672 -9.086,3.752C-9.016,3.624 -8.775,3.724 -8.84,3.408L-8.857,3.387L-8.845,3.375L-8.846,3.375L-8.845,3.375C-8.619,3.088 -8.399,3.555 -8.179,3.436L-8.183,3.534C-8.051,3.426 -7.894,3.476 -7.796,3.267C-7.758,3.268 -7.711,3.45 -7.731,3.567C-7.63,3.496 -7.616,3.385 -7.479,3.552C-7.583,3.722 -7.449,3.706 -7.584,3.675C-7.459,3.765 -7.435,3.924 -7.289,3.658C-7.344,3.909 -7.203,3.979 -7.14,3.905L-7.224,3.722C-7.154,3.687 -7.095,3.711 -7.035,3.735L-7.078,4.066C-6.829,4.479 -6.585,3.392 -6.406,4.075C-6.33,3.845 -6.544,3.907 -6.473,3.637C-6.354,3.686 -6.244,4.167 -6.206,4.169C-6.047,4.358 -6.037,3.688 -5.869,3.819C-5.887,3.7 -5.898,3.383 -5.766,3.275C-5.647,3.322 -5.633,3.777 -5.712,3.87C-5.741,3.879 -5.754,3.841 -5.751,3.801C-5.792,3.842 -5.844,3.892 -5.8,4.022L-5.781,3.904C-5.725,4.027 -5.559,4.019 -5.604,4.212C-5.509,4.102 -5.559,4.019 -5.625,3.955C-5.475,4.132 -5.383,3.968 -5.228,4.088C-5.251,4.022 -5.27,3.882 -5.245,3.884C-5.016,4.038 -5.135,3.662 -4.976,3.615C-4.892,3.798 -5.021,4.046 -4.857,3.899C-4.764,4.024 -4.846,4.214 -4.888,4.31C-4.736,4.086 -4.622,4.468 -4.54,4.513L-4.62,4.606C-4.572,4.551 -4.535,4.554 -4.497,4.555L-4.533,4.317C-4.49,4.36 -4.452,4.361 -4.455,4.46C-4.405,4.306 -4.479,4.065 -4.381,3.855C-4.325,3.977 -4.195,3.731 -4.184,4.046C-4.368,3.934 -4.172,4.363 -4.333,4.409C-4.301,4.373 -4.264,4.375 -4.22,4.418C-4.215,4.454 -4.229,4.483 -4.241,4.501C-4.07,4.788 -4.148,4.147 -3.962,4.16C-3.991,4.337 -3.929,4.498 -3.897,4.461C-3.972,4.455 -3.924,4.164 -3.851,4.03C-3.736,4.172 -3.718,3.932 -3.656,3.95L-3.725,3.883C-3.696,3.706 -3.637,3.731 -3.552,3.678C-3.549,3.816 -3.63,3.77 -3.602,3.832C-3.5,3.523 -3.403,4.161 -3.268,3.955C-3.212,4.077 -3.272,4.289 -3.222,4.372C-3.07,4.146 -3.073,4.62 -2.915,4.434C-2.952,4.194 -2.961,4.252 -2.847,4.023L-3.102,4.183L-2.931,3.842C-3.006,3.836 -3.095,3.987 -3.139,3.945C-3.056,3.752 -3.066,3.812 -3.096,3.613C-3.004,3.973 -2.885,3.41 -2.773,3.656L-2.795,4.246C-2.624,4.515 -2.467,3.953 -2.239,4.108L-2.311,4.003C-2.272,3.77 -2.166,3.975 -2.088,3.882C-2.101,4.079 -2.056,4.153 -2.027,4.276C-2.027,4.13 -1.857,4.295 -1.824,3.901L-1.728,4.164C-1.543,4.277 -1.496,3.609 -1.318,3.681C-1.379,3.894 -1.301,4.037 -1.427,4.186C-1.366,4.19 -1.313,4.228 -1.308,4.091C-1.276,4.216 -1.133,3.83 -1.083,4.019C-1.055,3.934 -1.04,3.727 -0.973,3.746C-0.967,3.786 -0.976,3.843 -0.976,3.843C-0.973,3.746 -0.866,3.714 -0.919,3.493C-0.751,4.115 -0.398,3.464 -0.252,3.998C-0.118,3.936 0.042,3.877 0.162,3.867C0.153,3.925 0.159,3.965 0.137,3.944C0.296,4.132 0.255,3.38 0.437,3.591C0.523,3.913 0.332,3.76 0.388,3.883C0.394,4.533 0.617,3.801 0.732,4.184L0.7,4.222C0.79,4.445 0.943,3.983 1.099,4.034C1.099,4.034 1.09,4.091 1.095,4.132C1.22,3.804 1.405,3.7 1.591,3.614C1.538,3.866 1.502,3.746 1.542,4.005C1.634,3.972 1.522,3.59 1.675,3.522C1.732,3.663 1.87,3.789 1.938,4.067L1.752,4.076C1.89,4.437 2.003,4.071 2.106,4.137L2.128,4.293C2.436,4.252 2.297,3.855 2.585,3.892L2.501,3.771C2.447,3.38 2.74,3.997 2.728,3.707L3.014,4.111C3.077,4.018 3.125,3.733 3.212,3.661C3.375,3.959 3.26,4.105 3.218,4.278C3.338,4.284 3.604,4.26 3.493,4.062C3.483,4.1 3.502,4.197 3.41,4.134C3.307,3.82 3.306,3.667 3.49,3.68C4.238,4.468 4.197,3.894 5.121,4.517C5.163,4.265 5.948,4.584 6.498,4.635C6.477,4.591 6.449,4.543 6.412,4.488C5.464,4.043 6.307,4.341 5.271,3.776C5.155,3.655 5.155,3.635 5.217,3.663C5.373,3.689 5.521,3.7 5.66,3.697C5.905,3.764 5.934,3.901 6.154,4.005C6.09,3.803 6.516,4.112 6.672,4.057C6.344,3.93 6.126,3.743 6.173,3.656C6.068,3.663 5.959,3.663 5.846,3.656C5.167,3.135 6.462,3.694 5.773,3.15L6.12,3.364C5.85,3.126 5.705,2.642 4.969,2.355C5.046,2.346 5.237,2.343 5.34,2.432C5.263,2.226 4.959,1.964 4.721,1.756C4.478,1.543 4.298,1.379 4.37,1.201L4.545,1.205C4.453,1.133 4.178,1.134 4.279,1.008C4.344,0.997 4.448,1.001 4.436,0.963C4.357,0.93 4.062,0.84 4.091,0.717L4.301,0.744C4.277,0.508 4.079,0.372 3.886,0.318C3.717,0.304 3.518,0.314 3.417,0.243C3.798,0.023 3.817,-0.23 3.826,-0.356L3.881,-0.385C3.773,-0.68 3.301,-0.656 3.008,-0.818C3.331,-1.212 2.877,-1.44 2.965,-1.822C2.918,-1.744 2.665,-1.656 2.601,-1.677C2.644,-1.78 2.244,-1.685 2.598,-1.878L2.603,-1.854C2.92,-2.097 2.76,-2.163 2.715,-2.262L2.25,-2.011C2.772,-2.641 1.634,-2.508 2.151,-2.987C2.003,-2.98 1.962,-3.053 1.814,-3.045L2.061,-3.185C2.028,-3.384 2.012,-3.483 1.836,-3.651L2.035,-3.711C1.985,-3.834 1.246,-3.444 1.171,-3.541L1.518,-3.785C1.396,-3.98 1.601,-4.367 1.155,-4.37C1.211,-4.398 1.32,-4.454 1.353,-4.43C1.308,-4.529 1.391,-4.935 0.909,-4.61C1.234,-4.802 0.822,-4.833 0.616,-4.856L0.866,-4.979C0.506,-4.891 0.42,-4.845 0.261,-4.921C0.275,-4.97 0.439,-5.06 0.4,-4.984C0.469,-5.157 0.127,-4.929 0.185,-5.125L0.365,-5.169C0.324,-5.282 0.246,-5.226 0.034,-5.178C-0.1,-5.187 -0.018,-5.408 0.191,-5.55C0.05,-5.487 -0.16,-5.44 -0.133,-5.537C-0.055,-5.593 0.009,-5.6 0.04,-5.604C0.104,-5.87 -0.388,-5.696 -0.22,-5.951C-0.142,-6 -0.106,-6.031 -0.088,-6.055C-0.015,-5.915 0.036,-5.798 0.012,-5.798C0.234,-5.927 0.209,-6.06 0.567,-6.151C0.348,-6.142 -0.103,-6.081 -0.061,-6.249C-0.043,-6.267 -0.025,-6.284 0.007,-6.308L0.039,-6.311C0.047,-6.349 0.013,-6.359 -0.036,-6.358C-0.02,-6.414 -0.006,-6.451 -0.021,-6.486C0.155,-6.605 0.004,-6.67 -0.019,-6.73C-0.259,-6.584 -0.262,-6.678 -0.423,-6.494C-0.411,-6.513 -0.388,-6.501 -0.357,-6.47C-0.345,-6.466 -0.336,-6.459 -0.318,-6.461L-0.342,-6.453C-0.314,-6.421 -0.281,-6.377 -0.246,-6.326C-0.395,-6.297 -0.525,-6.282 -0.425,-6.421C-0.599,-6.361 -0.777,-6.299 -0.862,-6.27C-0.567,-6.542 -0.468,-6.793 -0.27,-6.935C-0.504,-7.023 -0.59,-7.277 -1.108,-7.117C-1.194,-7.131 -1.009,-7.248 -0.947,-7.308C-0.885,-7.307 -0.873,-7.27 -0.799,-7.293C-0.972,-7.32 -1.009,-7.549 -1.341,-7.386C-1.267,-7.59 -1.008,-7.49 -1.156,-7.624L-1.046,-7.659C-0.725,-8.279 -2.167,-7.713 -1.721,-8.453C-1.747,-8.405 -1.758,-8.381 -1.809,-8.345C-1.759,-8.923 -2.571,-9.033 -2.349,-9.704C-2.323,-9.872 -2.534,-9.766 -2.73,-9.746L-2.484,-9.923L-2.854,-9.868C-3.174,-9.91 -2.385,-10.535 -2.928,-10.508L-3.087,-10.378C-3.099,-10.475 -3.333,-10.563 -3.124,-10.668C-3.161,-10.657 -3.322,-10.587 -3.247,-10.67L-3.112,-10.752L-3.457,-10.806C-3.444,-11.011 -2.901,-11.098 -3,-11.329C-3.099,-11.378 -3.53,-11.325 -3.604,-11.242C-3.592,-11.206 -3.641,-11.11 -3.776,-11.028L-3.89,-11.06C-4.3,-10.839 -4.745,-10.656 -4.922,-10.313L-4.603,-10.331L-4.775,-10.177L-4.848,-10.275C-4.997,-10.109 -4.812,-10.165 -4.676,-10.188C-4.774,-10.117 -4.837,-10.057 -4.861,-10.01L-4.405,-10.111C-4.554,-10.004 -4.75,-9.984 -4.789,-9.851C-4.577,-9.898 -4.468,-10.112 -4.295,-10.085C-4.443,-9.919 -4.603,-9.849 -4.405,-9.87C-4.503,-9.8 -4.578,-9.776 -4.64,-9.778C-4.479,-9.787 -4.491,-9.643 -4.258,-9.735C-4.448,-9.541 -4.077,-9.558 -4.461,-9.343C-4.359,-9.376 -4.098,-9.407 -4.049,-9.358C-4.566,-9.198 -3.951,-9.128 -4.456,-8.871C-4.001,-9.032 -4.111,-8.697 -3.803,-8.691C-3.84,-8.68 -3.915,-8.657 -3.901,-8.681C-3.89,-8.584 -4.001,-8.49 -4.049,-8.395C-3.705,-8.582 -3.557,-8.506 -3.31,-8.563C-3.582,-8.278 -3.742,-8.389 -4.038,-8.177C-3.766,-8.341 -3.668,-8.171 -3.458,-8.337C-3.619,-8.147 -3.52,-8.217 -3.78,-8.016C-3.349,-8.25 -3.668,-7.991 -3.373,-8.082C-3.521,-7.855 -3.754,-7.824 -3.558,-7.783C-3.656,-7.653 -3.866,-7.669 -3.866,-7.669" style="fill:rgb(219,134,78);fill-rule:nonzero;"/>
                </g>
                <g transform="matrix(-0.584619,-0.811308,-0.811308,0.584619,34.5217,24.7429)">
                    <path d="M-0.024,-0.056C-0.017,-0.05 -0.013,-0.04 -0.005,-0.038C-0.012,-0.012 -0.018,0.01 -0.024,0.027L-0.047,-0.059L-0.024,-0.056Z" style="fill:rgb(219,134,78);fill-rule:nonzero;"/>
                </g>
                <g transform="matrix(1,0,0,1,26.0981,34.581)">
                    <path d="M0,0.027L0.005,0.034C0.001,0.022 -0.003,0.011 -0.005,-0.007C-0.003,0.007 -0.002,0.016 0,0.027" style="fill:rgb(219,134,78);fill-rule:nonzero;"/>
                </g>
                <g transform="matrix(1,0,0,1,34.9239,29.4942)">
                    <path d="M0,0.036L0.062,0L-0.004,0.011L0,0.036Z" style="fill:rgb(219,134,78);fill-rule:nonzero;"/>
                </g>
                <g transform="matrix(1,0,0,1,24.6595,33.527)">
                    <path d="M0,0.072C-0.002,0.047 -0.007,0.021 -0.017,0C-0.017,0.018 -0.009,0.044 0,0.072" style="fill:rgb(219,134,78);fill-rule:nonzero;"/>
                </g>
                <g transform="matrix(1,0,0,1,24.0273,33.4137)">
                    <path d="M0,0.103L-0.087,0C-0.05,0.058 -0.022,0.086 0,0.103" style="fill:rgb(219,134,78);fill-rule:nonzero;"/>
                </g>
                <g transform="matrix(1,0,0,1,23.544,33.4845)">
                    <path d="M0,-0.122C-0.005,-0.073 -0.01,-0.036 -0.013,-0.002L-0.012,0L0,-0.122Z" style="fill:rgb(219,134,78);fill-rule:nonzero;"/>
                </g>
                <g transform="matrix(1,0,0,1,31.3061,33.2034)">
                    <path d="M0,0.065C0.007,0.064 0.013,0.06 0.019,0.053C0.065,0 0.034,0.02 0,0.065" style="fill:rgb(219,134,78);fill-rule:nonzero;"/>
                </g>
                <g transform="matrix(1,0,0,1,28.9792,33.6946)">
                    <path d="M0,0.16C0.026,0.11 0.052,0.06 0.078,0.03C0.038,0.007 0.006,0 0,0.16" style="fill:rgb(219,134,78);fill-rule:nonzero;"/>
                </g>
                <g transform="matrix(1,0,0,1,33.8924,33.0136)">
                    <path d="M0,-0.005L0,0L0.016,0L0,-0.005Z" style="fill:rgb(219,134,78);fill-rule:nonzero;"/>
                </g>
                <g transform="matrix(1,0,0,1,29.1645,33.7172)">
                    <path d="M0,0.015C-0.039,-0.042 -0.074,-0.031 -0.107,0.007C-0.074,0.027 -0.035,0.057 0,0.015" style="fill:rgb(219,134,78);fill-rule:nonzero;"/>
                </g>
                <g transform="matrix(1,0,0,1,21.4346,33.1915)">
                    <path d="M0,-0.021L-0.023,-0.033C-0.025,-0.015 -0.026,-0 -0.027,0.012L0,-0.021Z" style="fill:rgb(219,134,78);fill-rule:nonzero;"/>
                </g>
                <g transform="matrix(1,0,0,1,21.4074,33.2364)">
                    <path d="M0,-0.033L-0.027,-0.001C-0.015,0 -0.005,-0.002 0,-0.033" style="fill:rgb(219,134,78);fill-rule:nonzero;"/>
                </g>
                <g transform="matrix(1,0,0,1,21.3232,33.2249)">
                    <path d="M0,0.08L0.057,0.011C0.038,0.01 0.015,0 0,0.08" style="fill:rgb(219,134,78);fill-rule:nonzero;"/>
                </g>
                <g transform="matrix(1,0,0,1,22.0761,33.2183)">
                    <path d="M0,0.102L0.01,0C0.006,0.021 0.002,0.054 0,0.102" style="fill:rgb(219,134,78);fill-rule:nonzero;"/>
                </g>
                <g transform="matrix(1,0,0,1,22.2731,33.2377)">
                    <path d="M0,0.059C-0.046,0.034 -0.111,-0.162 -0.178,-0.1L-0.187,-0.019C-0.151,-0.17 -0.05,0.229 0,0.059" style="fill:rgb(219,134,78);fill-rule:nonzero;"/>
                </g>
                <g transform="matrix(1,0,0,1,23.0535,35.0191)">
                    <path d="M0,-0.438L-0.162,-0.524C-0.136,-0.415 -0.103,-0.268 -0.179,-0.244C0.019,0.086 -0.214,-0.488 0,-0.438" style="fill:rgb(219,134,78);fill-rule:nonzero;"/>
                </g>
                <g transform="matrix(1,0,0,1,23.5583,34.973)">
                    <path d="M0,-0.219C-0.09,-0.171 -0.004,-0.061 -0.01,0C0.049,-0.097 0.063,-0.122 0,-0.219" style="fill:rgb(219,134,78);fill-rule:nonzero;"/>
                </g>
                <g transform="matrix(1,0,0,1,27.2412,35.1221)">
                    <path d="M0,-0.255L-0.017,0C0.052,-0.034 -0.013,-0.099 0,-0.255" style="fill:rgb(219,134,78);fill-rule:nonzero;"/>
                </g>
                <g transform="matrix(1,0,0,1,27.9854,33.4791)">
                    <path d="M0,0.088L-0.061,-0.073L-0.1,0.161L0,0.088Z" style="fill:rgb(219,134,78);fill-rule:nonzero;"/>
                </g>
                <g transform="matrix(1,0,0,1,28.3459,35.383)">
                    <path d="M0,0.018L-0.031,0.054L0.085,-0.036L0,0.018Z" style="fill:rgb(219,134,78);fill-rule:nonzero;"/>
                </g>
                <g transform="matrix(1,0,0,1,34.5339,35.2765)">
                    <path d="M0,0.222L-0.011,-0.093C-0.059,-0.038 -0.079,0.315 0,0.222" style="fill:rgb(219,134,78);fill-rule:nonzero;"/>
                </g>
                <g transform="matrix(1,0,0,1,37.5736,35.4981)">
                    <path d="M0,-0.228C0.112,-0.067 0.29,0.04 0.276,-0.116C0.171,-0.14 0.024,-0.268 0,-0.228" style="fill:rgb(219,134,78);fill-rule:nonzero;"/>
                </g>
                <g transform="matrix(1,0,0,1,37.4642,28.8225)">
                    <path d="M0,0.05L0.118,0.043L-0.009,0L0,0.05Z" style="fill:rgb(219,134,78);fill-rule:nonzero;"/>
                </g>
            </g>
        </g>
    </g>
</svg>
