<?xml version="1.0" encoding="UTF-8" standalone="no"?>
<!DOCTYPE svg PUBLIC "-//W3C//DTD SVG 1.1//EN" "http://www.w3.org/Graphics/SVG/1.1/DTD/svg11.dtd">
<svg width="100%" height="100%" viewBox="0 0 234 121" version="1.1" xmlns="http://www.w3.org/2000/svg" xmlns:xlink="http://www.w3.org/1999/xlink" xml:space="preserve" xmlns:serif="http://www.serif.com/" style="fill-rule:evenodd;clip-rule:evenodd;stroke-linejoin:round;stroke-miterlimit:2;">
    <g transform="matrix(1,0,0,1,-443,-284)">
        <g id="Popup-Background" transform="matrix(1,0,0,1,443.827,284.483)">
            <rect x="0" y="0" width="233" height="120" style="fill:none;"/>
            <g id="Layer-1" serif:id="Layer 1">
                <g opacity="0.2">
                    <g transform="matrix(1,0,0,1,5.871,109)">
                        <path d="M0,-95.941L0.082,-95.938L0.196,-10.952L0,-10.941L0,-95.941ZM225.022,-99.865L223.129,-105L-2.763,-100.014L-3.871,-13L-3.151,-7.846L93.388,-5.128L105,9.059L110.917,-4.919L111.421,-5.941L225.129,-13.151L225.129,-19L225.022,-99.865Z" style="fill-rule:nonzero;"/>
                    </g>
                </g>
                <g transform="matrix(1,0,0,1,4.7039,111.059)">
                    <path d="M0,-103.21L223.903,-103.21L225.032,-20.21L111.325,-13L104.903,0L95.241,-12.439L-0.097,-15.21L0,-103.21Z" style="fill:rgb(249,240,211);fill-rule:nonzero;"/>
                </g>
                <g transform="matrix(1,0,0,1,99.8952,22.258)">
                    <path d="M0,72.529L8.712,85.801L14.712,70.801L124.712,63.801L123.712,-14.199L-95.288,-14.199L-95.288,70.801L0,72.529ZM16.146,75.601L9.712,90.801L-1.9,76.615L-98.439,73.897L-98.051,-18.272L129.734,-18.122L129.356,68.551" style="fill:rgb(238,166,31);fill-rule:nonzero;"/>
                </g>
            </g>
        </g>
    </g>
</svg>
