<?xml version="1.0" encoding="UTF-8"?>
<svg id="Layer_1" xmlns="http://www.w3.org/2000/svg" viewBox="0 0 39 39">
  <defs>
    <style>
      .cls-1 {
        fill: #1c3554;
      }

      .cls-2 {
        fill: #d8d9ef;
      }

      .cls-3 {
        fill: #384e87;
      }
    </style>
  </defs>
  <g>
    <rect class="cls-3" x="2" y="2" width="35" height="35" rx="2.207" ry="2.207"/>
    <path class="cls-1" d="M4.207,2c5.675.06,11.351-.757,17.026-1.008l8.513.008h4.789c1.809-.15,3.505,1.373,3.466,3.207,0,5.657,0,20.074,0,25.539v4.257s0,.532,0,.532c.15,1.809-1.374,3.505-3.207,3.466-8.435-.025-22.681.049-30.981-.026-1.566-.167-2.838-1.604-2.812-3.181,0,0,0-17.026,0-17.026.201-4.256.71-8.51.904-12.77-.14-1.451.677-3.035,2.303-2.998h0ZM4.207,2c-1.635.038-2.367,1.517-2.11,2.998.194,4.259.703,8.514.904,12.769,0,0,0,17.026,0,17.026-.009.645.556,1.214,1.203,1.206,8.063.001,22.394,0,30.591,0,.767.01,1.31-.73,1.206-1.466,0,0,0-.532,0-.532v-4.257c.001-5.404,0-19.951,0-25.539.01-.767-.731-1.31-1.466-1.206,0,0-.532,0-.532,0h-4.257s-8.513.008-8.513.008c-5.675-.251-11.351-1.068-17.026-1.008h0Z"/>
  </g>
  <path class="cls-2" d="M12.823,11.482c0,1.26,1.022,2.282,2.282,2.282s2.282-1.022,2.282-2.282-1.022-2.282-2.282-2.282-2.282,1.022-2.282,2.282ZM25.755,9.2c1.26,0,2.282,1.022,2.282,2.282s-1.022,2.282-2.282,2.282-2.282-1.022-2.282-2.282,1.022-2.282,2.282-2.282ZM13.264,15.286c-.546,0-1.05.293-1.321.767l-2.824,4.942c-.217.36-.101.827.258,1.044.36.217.827.101,1.044-.258.006-.01.012-.021.018-.031l2.148-3.761c-.957,2.642-1.894,5.291-2.809,7.948h3.043v3.804c0,.42.341.761.761.761s.761-.341.761-.761v-3.804h1.521v3.804c0,.42.341.761.761.761s.761-.341.761-.761v-3.804h3.043s-2.886-8.083-2.886-8.083l2.226,3.896c.2.37.661.507,1.031.308.37-.2.507-.661.308-1.031-.006-.011-.012-.021-.018-.031l-2.824-4.942c-.271-.474-.775-.767-1.321-.767h-3.682ZM21.952,16.046c0-.42.341-.761.761-.761h6.086c.42,0,.761.341.761.761v7.607c0,.42-.341.761-.761.761s-.761-.341-.761-.761v6.086c0,.42-.341.761-.761.761s-.761-.341-.761-.761v-6.086s-1.521,0-1.521,0v6.086c0,.42-.341.761-.761.761s-.761-.341-.761-.761v-6.086c0,.42-.341.761-.761.761s-.761-.341-.761-.761v-7.607Z"/>
</svg>