<?xml version="1.0" encoding="UTF-8" standalone="no"?>
<!DOCTYPE svg PUBLIC "-//W3C//DTD SVG 1.1//EN" "http://www.w3.org/Graphics/SVG/1.1/DTD/svg11.dtd">
<svg width="100%" height="100%" viewBox="0 0 46 47" version="1.1" xmlns="http://www.w3.org/2000/svg" xmlns:xlink="http://www.w3.org/1999/xlink" xml:space="preserve" xmlns:serif="http://www.serif.com/" style="fill-rule:evenodd;clip-rule:evenodd;stroke-linejoin:round;stroke-miterlimit:2;">
    <g transform="matrix(1,0,0,1,-199,-147)">
        <g id="Town-Hall" transform="matrix(1,0,0,1,199.311,147.367)">
            <rect x="0" y="0" width="45" height="46" style="fill:none;"/>
            <g id="Layer-1" serif:id="Layer 1">
                <g opacity="0.2">
                    <g transform="matrix(0.287415,0.957806,0.957806,-0.287415,12.5958,7.73133)">
                        <path d="M19.635,-14.608C8.313,-14.608 -0.865,-5.43 -0.865,5.892C-0.865,17.214 8.312,26.392 19.635,26.392C30.957,26.392 40.135,17.214 40.135,5.892C40.135,-5.43 30.957,-14.608 19.635,-14.608" style="fill-rule:nonzero;"/>
                    </g>
                </g>
                <g transform="matrix(0.287425,0.957803,0.957803,-0.287425,10.6642,5.76116)">
                    <path d="M18.88,-14.046C7.327,-14.045 -2.037,-5.22 -2.038,5.665C-2.038,16.551 7.327,25.376 18.88,25.377C30.432,25.376 39.796,16.551 39.796,5.665C39.797,-5.22 30.432,-14.046 18.88,-14.046" style="fill:rgb(249,240,211);fill-rule:nonzero;"/>
                </g>
                <g transform="matrix(1,0,0,1,2.7813,20.359)">
                    <path d="M0,7.479C4.87,23.356 27.527,26.381 35.182,11.125C41.287,-0.633 34.552,-16.906 20.508,-17.975C7.446,-19.109 -4.043,-5.148 0,7.479M-0.287,7.565C-4.808,-6.853 4.452,-22.443 20.73,-19.615C38.304,-16.087 46.542,6.618 32.708,19.24C20.25,29.922 3.887,22.267 -0.287,7.565" style="fill:rgb(238,166,31);fill-rule:nonzero;"/>
                </g>
                <g transform="matrix(1,0,0,1,0,-3.306)">
                    <path d="M25.773,23.807L27.465,23.807L27.465,33.115L25.773,33.115L25.773,23.807ZM20.696,23.807L22.388,23.807L22.388,33.115L20.696,33.115L20.696,23.807ZM15.619,23.807L17.311,23.807L17.311,33.115L15.619,33.115L15.619,23.807ZM12.235,22.114L12.235,30.576L10.542,33.284L10.542,35.653L32.542,35.653L32.542,33.284L30.85,30.576L30.85,22.114L12.235,22.114ZM21.542,13.653L10.542,19.576L10.542,20.422L32.542,20.422L32.542,19.576L21.542,13.653Z" style="fill:rgb(233,116,36);fill-rule:nonzero;"/>
                </g>
            </g>
        </g>
    </g>
</svg>
