<?xml version="1.0" encoding="UTF-8"?>
<svg id="Layer_1" xmlns="http://www.w3.org/2000/svg" viewBox="0 0 33.846 46">
  <defs>
    <style>
      .cls-1 {
        fill: #65d3e5;
      }

      .cls-2 {
        fill: #fff;
      }

      .cls-3 {
        fill: #1491af;
      }
    </style>
  </defs>
  <path class="cls-1" d="M16.699,45c7.05,0,15.276-4.261,15.276-15.108,0-7.36-11.751-23.631-15.276-27.892C13.566,6.261,1.423,22.144,1.423,29.892c0,10.847,8.226,15.108,15.276,15.108Z"/>
  <path class="cls-3" d="M16.013,42.314c5.273.19,11.562-3.206,11.911-12.412.237-6.247-8.029-20.372-10.528-24.084-2.481,3.532-12.073,16.686-12.322,23.262-.349,9.206,5.666,13.044,10.939,13.234Z"/>
  <path class="cls-2" d="M14.623,21.997c-1.105,0-2,.895-2,2v3.5c0,.276.224.5.5.5h2c.276,0,.5-.224.5-.5v-2c0-.276.224-.5.5-.5h6.5v-3h-8ZM15.623,35.997h-3c-.228-.002-.425-.159-.48-.38l-1.52-6c-.067-.268.097-.539.365-.606,0,0,0,0,0,0,.044-.01.09-.015.135-.014h6c.276-.008.506.209.514.485.002.045-.003.091-.014.135l-1.5,6c-.056.229-.265.387-.5.38ZM12.273,31.997h3.71l.5-2h-4.72l.51,2Z"/>
</svg>