<?xml version="1.0" encoding="UTF-8"?>
<svg id="Layer_1" xmlns="http://www.w3.org/2000/svg" viewBox="0 0 191.005 84">
  <defs>
    <style>
      .cls-1 {
        fill: #fed777;
      }

      .cls-2 {
        fill: #fdcf57;
      }

      .cls-3 {
        fill: #df4620;
      }

      .cls-4 {
        fill: #ffc023;
      }

      .cls-5 {
        fill: #c23d1c;
      }

      .cls-6 {
        opacity: .2;
      }
    </style>
  </defs>
  <polygon class="cls-6" points="190.519 3.201 9.069 8.67 8.169 8.697 3.502 60.107 86.182 59.893 90.156 67.872 82.221 71.78 99.955 83.17 106.864 63.642 104.833 61.611 99.55 64.012 98.697 59.86 187.725 59.629 190.519 3.201"/>
  <polygon class="cls-4" points="91.719 33.75 97.519 61.981 104.833 61.611 97.924 81.139 82.221 71.78 88.125 65.841 76.917 43.338 91.719 33.75"/>
  <polygon class="cls-1" points="7.069 7.654 187.418 2.217 184.727 56.584 2.583 57.059 7.069 7.654"/>
  <path class="cls-4" d="M1.471,58.076L6.138,6.666l.9-.028L188.487,1.17l-2.794,56.428-184.223.478ZM7.999,8.642L3.695,56.041l180.065-.47,2.59-52.306L7.999,8.642Z"/>
  <g>
    <path class="cls-2" d="M21.391,34.171c0,4.167,0,6.01-.028,9.526l-4.054-.085c0-2.098.028-4.338.028-6.578,0-5.443-.085-11.199-.255-16.557l9.356-.652.255,4.083-5.33.34c.028,1.502.057,4.139.057,6.01h5.046l-.085,3.913h-4.99Z"/>
    <path class="cls-2" d="M30.288,39.313l3.832.119-.139,2.839-6.551-.08c0-1.469.02-2.978.02-4.546,0-3.732-.06-7.623-.179-11.375l6.571-.477.179,2.859-3.772.278c.04,1.072.06,1.985.06,3.275h3.434v2.76h-3.454v4.347Z"/>
    <path class="cls-2" d="M40.49,27.78l-.596,1.548-1.826-.794c-.477.437-.695,1.409-.695,2.223,0,1.787,1.131,3.018,1.866,4.308.695,1.271,1.231,2.501,1.231,4.149,0,2.759-1.191,4.923-4.188,6.194l-1.032-3.395c1.787-.616,2.144-2.184,2.144-3.375,0-.913-.278-1.747-.794-2.7-.913-1.608-1.945-2.978-1.945-5.003,0-1.687,1.012-4.605,2.998-5.399l2.839,2.243Z"/>
    <path class="cls-2" d="M41.124,26.41l7.603.258-.278,2.859-2.084-.08c-.218,4.824-.278,8.238-.317,13.162l-3.038-.238c.199-4.883.357-8.02.357-13.022l-2.521-.08.278-2.858Z"/>
    <path class="cls-2" d="M49.38,42.629c.02-1.449.04-3.038.04-4.625,0-3.891-.06-8-.179-11.772l3.176-.119c-.1,3.613-.159,7.623-.159,11.474,0,1.688.02,3.355.04,4.923l-2.918.119Z"/>
    <path class="cls-2" d="M56.108,25.576c-.02,1.072-.06,2.045-.06,2.918,0,3.792.377,6.253,1.052,8.635.794-2.124,1.112-4.367,1.112-7.365,0-1.112-.06-2.363-.139-3.712l2.799-.318c.04.794.06,1.568.06,2.303,0,6.809-1.489,11.891-4.01,15.286-2.521-3.832-3.812-8.774-3.812-17.489l2.998-.258Z"/>
    <path class="cls-2" d="M65.477,42.986c.099-.933.159-1.807.198-2.601l-2.441-.199c-.02.754-.06,1.568-.06,2.402,0,.258.02.556.02.833l-2.759-.159c.06-7.663,2.005-13.499,5.002-16.993,1.985,3.256,3.077,6.968,3.077,13.162,0,1.072-.02,2.224-.079,3.454l-2.958.1ZM63.472,37.448l2.244.178c-.08-2.203-.357-3.911-.774-5.638-.675,1.509-1.171,3.335-1.469,5.459Z"/>
    <path class="cls-2" d="M72.363,26.251c-.02,1.509-.02,3.038-.02,4.566,0,3.077.02,6.134.06,8.834l3.335.08-.178,2.878-6.015-.079c.02-1.33.02-2.72.02-4.109,0-3.911-.04-8.06-.179-11.971l2.978-.199Z"/>
    <path class="cls-2" d="M82.971,42.336c.142-5.245.227-10.518.227-19.165l-2.353-.029-.114-2.778,6.975-1.077c-.312,7.258-.567,15.479-.567,22.652l-4.168.397Z"/>
    <path class="cls-2" d="M90.711,43.867c.142-5.273.284-10.83.227-19.25l-2.296-.057-.113-2.835,6.917-1.049c-.312,7.399-.567,16.018-.567,23.361l-4.168-.17Z"/>
    <path class="cls-2" d="M101.266,42.371c.079-1.171.099-2.184.099-3.156h-2.422c-.02.377-.02.774-.02,1.191,0,.814.02,1.667.06,2.521l-2.739-.08c-.02-.457-.02-.893-.02-1.35,0-7.305,1.688-12.963,4.407-16.497,2.322,3.692,3.573,8.02,3.573,15.881v1.31l-2.938.179ZM99.122,36.355h2.164c-.179-2.084-.516-3.752-.953-5.399-.596,1.509-.993,3.315-1.211,5.399Z"/>
    <path class="cls-2" d="M107.973,25.596l.02.953c.814-.913,1.926-1.31,2.839-1.31.814,0,1.727.417,2.065,1.647.734-1.111,1.568-1.608,2.878-1.608.973,0,2.025.477,2.025,3.097,0,4.168-.516,8.417-.754,12.884l-3.117.159c.496-4.268.833-9.549.833-12.109,0-.675-.377-.914-.794-.914s-.874.258-1.032.576c-.199,3.573-.278,9.072-.457,12.844l-3.018.139c.496-4.269.536-9.549.576-12.805,0-.615-.317-.854-.715-.854-.417,0-.873.278-1.032.596-.298,3.573-.278,8.596-.397,12.506l-3.117.08c.318-5.479.477-8.874.477-12.904,0-.953,0-1.925-.02-2.978h2.74Z"/>
    <path class="cls-2" d="M123.075,35.958c.567-1.389,1.644-3.629,2.778-5.67-.879-.113-1.389-.425-1.616-.765-.397-.596-.113-.879.539-.851.652.028,1.418,0,2.042-.057.879-1.531,1.474-2.467,2.126-3.402.425-.624.765-.595,1.077-.057.198.34.312.822.312,1.163,0,.51-.114,1.162-.454,1.956.879.113,1.361.567,1.559.907.284.51.085.851-.595.766-.51-.057-1.248,0-1.871.085-1.078,1.843-2.693,4.649-3.686,6.804-.34.765-.511,1.502-.511,2.126,0,.851.284,1.446.766,1.446,1.106,0,2.58-1.786,3.572-3.913.312-.681.964-.737,1.163.028.142.595.028,1.021-.284,1.673-.397.851-2.296,3.289-4.678,3.289-1.503,0-2.807-1.219-2.807-3.175,0-.624.17-1.417.567-2.353Z"/>
    <path class="cls-2" d="M137.874,35.447c-.595,2.353-2.41,5.131-4.564,5.869-.255.085-.595.17-1.021.17-.936,0-1.985-.397-2.779-1.446-.539-.709-.793-1.56-.793-2.467,0-1.247.454-2.637,1.19-3.969,1.276-2.268,3.062-3.686,4.933-3.686.822,0,1.333.312,1.871,1.049.794.936,1.588,1.134,1.333,3.544.737,0,.794.255.567.539-.199.227-.425.34-.737.397ZM131.608,40.04c.737,0,1.871-1.049,2.92-2.977.425-.737.765-1.446.936-2.041-.907-.567-1.503-1.304-1.729-2.296-.596.567-1.134,1.275-1.616,2.126-.737,1.361-1.19,2.949-1.19,3.998,0,.851.255,1.191.68,1.191ZM136.315,32.244c0-.425-.227-.596-.425-.596-.17,0-.425.227-.425.681,0,.51.142,1.248.454,1.616.283-.652.397-1.333.397-1.701Z"/>
    <path class="cls-2" d="M153.892,22.718l-.964,1.956-2.948-.936c-.511.992-.993,2.211-1.333,3.601,3.657,2.013,4.99,5.046,4.99,8.08,0,4.394-2.807,8.874-5.387,10.518-3.147-2.438-4.423-6.322-4.423-10.49,0-5.784,2.438-12.219,5.642-16.33l4.423,3.601ZM150.264,35.107c0-1.673-.595-3.431-2.211-5.16-.255,1.446-.425,2.977-.425,4.451,0,1.985.312,3.828.964,5.358.936-1.191,1.672-2.835,1.672-4.649Z"/>
    <path class="cls-2" d="M157.477,25.973l.02.497c.615-.238,1.191-.357,1.707-.357,2.025,0,3.196,1.707,3.196,4.665,0,2.561-1.171,4.923-4.407,6.75.06,1.33.1,3.375.179,4.745l-3.077.199c-.04-5.162-.159-11.256-.417-16.279l2.799-.218ZM157.775,35.125c1.052-.814,1.807-2.442,1.807-3.97,0-1.39-.516-2.045-1.211-2.045-.199,0-.437.04-.675.159,0,2.323.04,4.07.079,5.856Z"/>
    <path class="cls-2" d="M166.051,25.596l.02.953c.814-.913,1.926-1.31,2.839-1.31.814,0,1.727.417,2.065,1.647.734-1.111,1.568-1.608,2.878-1.608.973,0,2.025.477,2.025,3.097,0,4.168-.516,8.417-.754,12.884l-3.117.159c.496-4.268.833-9.549.833-12.109,0-.675-.377-.914-.794-.914s-.874.258-1.032.576c-.199,3.573-.278,9.072-.457,12.844l-3.018.139c.496-4.269.536-9.549.576-12.805,0-.615-.317-.854-.715-.854-.417,0-.873.278-1.032.596-.298,3.573-.278,8.596-.397,12.506l-3.117.08c.318-5.479.477-8.874.477-12.904,0-.953,0-1.925-.02-2.978h2.74Z"/>
  </g>
  <g>
    <path class="cls-5" d="M21.065,33.308c0,4.167,0,6.01-.028,9.526l-4.054-.085c0-2.098.028-4.338.028-6.578,0-5.443-.085-11.199-.255-16.557l9.356-.652.255,4.083-5.33.34c.028,1.502.057,4.139.057,6.01h5.046l-.085,3.913h-4.99Z"/>
    <path class="cls-3" d="M29.963,38.45l3.832.119-.139,2.839-6.551-.08c0-1.469.02-2.978.02-4.546,0-3.732-.06-7.623-.179-11.375l6.571-.477.179,2.859-3.772.278c.04,1.072.06,1.985.06,3.275h3.434v2.76h-3.454v4.347Z"/>
    <path class="cls-5" d="M40.165,26.917l-.596,1.548-1.826-.794c-.477.437-.695,1.409-.695,2.223,0,1.787,1.131,3.018,1.866,4.308.695,1.271,1.231,2.501,1.231,4.149,0,2.759-1.191,4.923-4.188,6.194l-1.032-3.395c1.787-.616,2.144-2.184,2.144-3.375,0-.913-.278-1.747-.794-2.7-.913-1.608-1.945-2.978-1.945-5.003,0-1.687,1.012-4.605,2.998-5.399l2.839,2.243Z"/>
    <path class="cls-3" d="M40.799,25.547l7.603.258-.278,2.859-2.084-.08c-.218,4.824-.278,8.238-.317,13.162l-3.038-.238c.199-4.883.357-8.02.357-13.022l-2.521-.08.278-2.858Z"/>
    <path class="cls-5" d="M49.055,41.766c.02-1.449.04-3.038.04-4.625,0-3.891-.06-8-.179-11.772l3.176-.119c-.1,3.613-.159,7.623-.159,11.474,0,1.688.02,3.355.04,4.923l-2.918.119Z"/>
    <path class="cls-3" d="M55.783,24.713c-.02,1.072-.06,2.045-.06,2.918,0,3.792.377,6.253,1.052,8.635.794-2.124,1.112-4.367,1.112-7.365,0-1.112-.06-2.363-.139-3.712l2.799-.318c.04.794.06,1.568.06,2.303,0,6.809-1.489,11.891-4.01,15.286-2.521-3.832-3.812-8.774-3.812-17.489l2.998-.258Z"/>
    <path class="cls-5" d="M65.152,42.123c.099-.933.159-1.807.198-2.601l-2.441-.199c-.02.754-.06,1.568-.06,2.402,0,.258.02.556.02.833l-2.759-.159c.06-7.663,2.005-13.499,5.002-16.993,1.985,3.256,3.077,6.968,3.077,13.162,0,1.072-.02,2.224-.079,3.454l-2.958.1ZM63.146,36.584l2.244.178c-.08-2.203-.357-3.911-.774-5.638-.675,1.509-1.171,3.335-1.469,5.459Z"/>
    <path class="cls-3" d="M72.038,25.388c-.02,1.509-.02,3.038-.02,4.566,0,3.077.02,6.134.06,8.834l3.335.08-.178,2.878-6.015-.079c.02-1.33.02-2.72.02-4.109,0-3.911-.04-8.06-.179-11.971l2.978-.199Z"/>
    <path class="cls-5" d="M82.645,41.473c.142-5.245.227-10.518.227-19.165l-2.353-.029-.114-2.778,6.975-1.077c-.312,7.258-.567,15.479-.567,22.652l-4.168.397Z"/>
    <path class="cls-5" d="M90.386,43.004c.142-5.273.284-10.83.227-19.25l-2.296-.057-.113-2.835,6.917-1.049c-.312,7.399-.567,16.018-.567,23.361l-4.168-.17Z"/>
    <path class="cls-3" d="M100.94,41.507c.079-1.171.099-2.184.099-3.156h-2.422c-.02.377-.02.774-.02,1.191,0,.814.02,1.667.06,2.521l-2.739-.08c-.02-.457-.02-.893-.02-1.35,0-7.305,1.688-12.963,4.407-16.497,2.322,3.692,3.573,8.02,3.573,15.881v1.31l-2.938.179ZM98.796,35.492h2.164c-.179-2.084-.516-3.752-.953-5.399-.596,1.509-.993,3.315-1.211,5.399Z"/>
    <path class="cls-3" d="M107.648,24.733l.02.953c.814-.913,1.926-1.31,2.839-1.31.814,0,1.727.417,2.065,1.647.734-1.111,1.568-1.608,2.878-1.608.973,0,2.025.477,2.025,3.097,0,4.168-.516,8.417-.754,12.884l-3.117.159c.496-4.268.833-9.549.833-12.109,0-.675-.377-.914-.794-.914s-.874.258-1.032.576c-.199,3.573-.278,9.072-.457,12.844l-3.018.139c.496-4.269.536-9.549.576-12.805,0-.615-.317-.854-.715-.854-.417,0-.873.278-1.032.596-.298,3.573-.278,8.596-.397,12.506l-3.117.08c.318-5.479.477-8.874.477-12.904,0-.953,0-1.925-.02-2.978h2.74Z"/>
    <path class="cls-5" d="M122.75,35.094c.567-1.389,1.644-3.629,2.778-5.67-.879-.113-1.389-.425-1.616-.765-.397-.596-.113-.879.539-.851.652.028,1.418,0,2.042-.057.879-1.531,1.474-2.467,2.126-3.402.425-.624.765-.595,1.077-.057.198.34.312.822.312,1.163,0,.51-.114,1.162-.454,1.956.879.113,1.361.567,1.559.907.284.51.085.851-.595.766-.51-.057-1.248,0-1.871.085-1.078,1.843-2.693,4.649-3.686,6.804-.34.765-.511,1.502-.511,2.126,0,.851.284,1.446.766,1.446,1.106,0,2.58-1.786,3.572-3.913.312-.681.964-.737,1.163.028.142.595.028,1.021-.284,1.673-.397.851-2.296,3.289-4.678,3.289-1.503,0-2.807-1.219-2.807-3.175,0-.624.17-1.417.567-2.353Z"/>
    <path class="cls-5" d="M137.549,34.584c-.595,2.353-2.41,5.131-4.564,5.869-.255.085-.595.17-1.021.17-.936,0-1.985-.397-2.779-1.446-.539-.709-.793-1.56-.793-2.467,0-1.247.454-2.637,1.19-3.969,1.276-2.268,3.062-3.686,4.933-3.686.822,0,1.333.312,1.871,1.049.794.936,1.588,1.134,1.333,3.544.737,0,.794.255.567.539-.199.227-.425.34-.737.397ZM131.283,39.177c.737,0,1.871-1.049,2.92-2.977.425-.737.765-1.446.936-2.041-.907-.567-1.503-1.304-1.729-2.296-.596.567-1.134,1.275-1.616,2.126-.737,1.361-1.19,2.949-1.19,3.998,0,.851.255,1.191.68,1.191ZM135.99,31.38c0-.425-.227-.596-.425-.596-.17,0-.425.227-.425.681,0,.51.142,1.248.454,1.616.283-.652.397-1.333.397-1.701Z"/>
    <path class="cls-3" d="M153.567,21.854l-.964,1.956-2.948-.936c-.511.992-.993,2.211-1.333,3.601,3.657,2.013,4.99,5.046,4.99,8.08,0,4.394-2.807,8.874-5.387,10.518-3.147-2.438-4.423-6.322-4.423-10.49,0-5.784,2.438-12.219,5.642-16.33l4.423,3.601ZM149.938,34.244c0-1.673-.595-3.431-2.211-5.16-.255,1.446-.425,2.977-.425,4.451,0,1.985.312,3.828.964,5.358.936-1.191,1.672-2.835,1.672-4.649Z"/>
    <path class="cls-5" d="M157.152,25.11l.02.497c.615-.238,1.191-.357,1.707-.357,2.025,0,3.196,1.707,3.196,4.665,0,2.561-1.171,4.923-4.407,6.75.06,1.33.1,3.375.179,4.745l-3.077.199c-.04-5.162-.159-11.256-.417-16.279l2.799-.218ZM157.45,34.262c1.052-.814,1.807-2.442,1.807-3.97,0-1.39-.516-2.045-1.211-2.045-.199,0-.437.04-.675.159,0,2.323.04,4.07.079,5.856Z"/>
    <path class="cls-5" d="M165.726,24.733l.02.953c.814-.913,1.926-1.31,2.839-1.31.814,0,1.727.417,2.065,1.647.734-1.111,1.568-1.608,2.878-1.608.973,0,2.025.477,2.025,3.097,0,4.168-.516,8.417-.754,12.884l-3.117.159c.496-4.268.833-9.549.833-12.109,0-.675-.377-.914-.794-.914s-.874.258-1.032.576c-.199,3.573-.278,9.072-.457,12.844l-3.018.139c.496-4.269.536-9.549.576-12.805,0-.615-.317-.854-.715-.854-.417,0-.873.278-1.032.596-.298,3.573-.278,8.596-.397,12.506l-3.117.08c.318-5.479.477-8.874.477-12.904,0-.953,0-1.925-.02-2.978h2.74Z"/>
  </g>
</svg>