<?xml version="1.0" encoding="UTF-8"?>
<svg id="Layer_1" xmlns="http://www.w3.org/2000/svg" viewBox="0 0 39 41">
  <defs>
    <style>
      .cls-1 {
        fill: #cc4242;
      }

      .cls-2 {
        fill: #f9d2d2;
      }

      .cls-3 {
        fill: #fff;
      }

      .cls-4 {
        opacity: .2;
      }

      .cls-5 {
        fill: #aa3f3f;
      }
    </style>
  </defs>
  <ellipse class="cls-4" cx="20.157" cy="21.667" rx="18.041" ry="17.469" transform="translate(-9.305 24.455) rotate(-52.474)"/>
  <ellipse class="cls-1" cx="18.648" cy="18.637" rx="16.352" ry="16.863"/>
  <ellipse class="cls-1" cx="18.648" cy="19.637" rx="16.352" ry="16.863" transform="translate(-8.284 22.464) rotate(-52.474)"/>
  <ellipse class="cls-1" cx="18.648" cy="20.637" rx="16.352" ry="16.863" transform="translate(-9.078 22.855) rotate(-52.474)"/>
  <path id="rect4194" class="cls-3" d="M17.94,9.439c-.849,0-1.415.566-1.415,1.415v5.66h-5.66c-.849,0-1.415.566-1.415,1.415v1.415c0,.849.566,1.415,1.415,1.415h5.66v5.66c0,.849.566,1.415,1.415,1.415h1.415c.849,0,1.415-.566,1.415-1.415v-5.66h5.66c.849,0,1.415-.566,1.415-1.415v-1.415c0-.849-.566-1.415-1.415-1.415h-5.66v-5.66c0-.849-.566-1.415-1.415-1.415h-1.415Z"/>
  <path id="rect4194-2" data-name="rect4194" class="cls-2" d="M18.308,9.439c-.831,0-1.385.554-1.385,1.385v5.538h-5.538c-.831,0-1.385.554-1.385,1.385v1.385c0,.831.554,1.385,1.385,1.385h5.538v5.538c0,.831.554,1.385,1.385,1.385h1.385c.831,0,1.385-.554,1.385-1.385v-5.538h5.538c.831,0,1.385-.554,1.385-1.385v-1.385c0-.831-.554-1.385-1.385-1.385h-5.538v-5.538c0-.831-.554-1.385-1.385-1.385h-1.385Z"/>
  <g>
    <path class="cls-5" d="M17.897,37.289c-.004.088.034.28.075.233l-.017-.333-.058.1Z"/>
    <path class="cls-5" d="M18.302,37.839c.03-.168.048-.458-.035-.752-.004.323-.037.195-.037.579-.041.046-.097-.091-.108-.212-.003.087-.083-.059-.076.151.099.243.178.239.225.016.029.069.025.157.031.218Z"/>
    <path class="cls-5" d="M22.967,37.339l-.04-.028c.014.018.027.027.04.028Z"/>
    <path class="cls-5" d="M25.791,36.49c-.018.016-.013.05-.002.078.01-.028.018-.053.002-.078Z"/>
    <path class="cls-5" d="M26.415,36.618c-.015-.003-.025-.006-.038-.008.024.023.042.034.038.008Z"/>
    <path class="cls-5" d="M22.967,37.339l.104.075c-.026-.105-.061-.064-.104-.075Z"/>
    <path class="cls-5" d="M18.794,36.941c-.013.018-.02.051-.025.093.01-.016.021-.03.032-.041l-.006-.052Z"/>
    <path class="cls-5" d="M21.79,37.932l-.023.006c.004.038.008.084.013.135l.01-.141Z"/>
    <path class="cls-5" d="M20.835,38.216c.025.007-.028-.27-.047-.392.013.116.008.174-.006.2.011.052.028.114.052.192Z"/>
    <path class="cls-5" d="M19.204,38.025l-.02.043.02-.043Z"/>
    <path class="cls-5" d="M22.498,37.822c.015.039.028.074.035.095-.009-.034-.022-.065-.035-.095Z"/>
    <path class="cls-5" d="M33.197,15.649c.02,0,.033,0,.05,0-.028-.005-.048-.006-.05,0Z"/>
    <polygon class="cls-5" points="34.573 14.498 34.588 14.513 34.745 14.511 34.573 14.498"/>
    <path class="cls-5" d="M27.428,36.485l-.006-.003c-.007.041.003.029.006.003Z"/>
    <path class="cls-5" d="M33.42,29.955c-.266-.02-.224-.287-.536-.274.105.035.338.316.536.274Z"/>
    <path class="cls-5" d="M18.825,36.973c.012-.005.025-.01.038-.009-.019-.006-.031-.003-.038.009Z"/>
    <path class="cls-5" d="M32.884,29.681h-.002s-.03.001-.03.001c.013,0,.021,0,.032-.001Z"/>
    <path class="cls-5" d="M29.227,35.129c-.034-.037-.063-.062-.092-.085.018.023.043.048.092.085Z"/>
    <path class="cls-5" d="M27.637,35.714l.054.013c-.027-.014-.043-.015-.054-.013Z"/>
    <path class="cls-5" d="M29.663,34.298c.03.001.061.025.058-.024-.012-.008-.02-.014-.029-.02.017.037.018.06-.029.044Z"/>
    <path class="cls-5" d="M30.304,33.686c-.019-.011-.034-.02-.051-.029l-.01.03h.061Z"/>
    <path class="cls-5" d="M33.332,18.132c.08-.016.167-.025.253-.032-.2.008-.268-.113-.253.032Z"/>
    <path class="cls-5" d="M18.821,37.097c-.007-.071-.007-.107.003-.124-.009.005-.017.012-.024.02.005.042.011.081.021.104Z"/>
    <path class="cls-5" d="M28.248,32.588l.112-.05c-.042.002-.082.021-.112.05Z"/>
    <path class="cls-5" d="M32.881,23.909l-.029-.035c-.008.01-.001.022.029.035Z"/>
    <path class="cls-5" d="M28.584,32.265c.083.058.138.085.181.096-.012-.02-.02-.036-.04-.062l-.141-.033Z"/>
    <path class="cls-5" d="M33.588,18.099h-.003s.003,0,.003,0Z"/>
    <path class="cls-5" d="M32.943,17.239c-.007.123.361.06.573.087.101.148-.274.066-.464.115.095.092.432.166.416.235-.061.004-.083.017-.159,0,.291.101.006.288.372.409-.033.008-.064.011-.092.013.186-.015.374-.014.507-.007.005.056.23.109-.012.125.008-.034-.089-.039-.164-.057l.103.061c-.348.045-.118-.083-.374-.088.11.116.393.256.293.341-.34.009-.109-.207-.414-.099l.133-.131c-.538.09.04-.081-.536,0-.103.173.168.201.064.374.188.045.279-.005.467.041.332.263-.859.168-.412.368.225.056.654.092.423.214l-.382-.061c-.043.169.549.121.286.289-.15-.039-.123-.14-.17-.116-.306.102.215.092.213.181l-.34.002c.052.184.286.397.328.601-.1-.017-.203-.058-.311-.017.149.262-.085.535-.305.76l.285.116c-.005.021-.135.029-.19.001-.118.085.185.02.296.075.016.056-.174.057-.259.015.235.186.496.526.169.671l-.084-.043c-.129.124.586.217.304.317l-.05-.03c-.149.284.055.642-.412.808.413.1-.229.263.352.365-.314.126-.411.063-.639.266-.036.058.35.151.399.239l-.304-.048.304.158-.372-.005.068.086c.022-.026.145-.038.232-.019.121.139-.252.242-.407.216.075.105.142.208.206.312-.12-.029-.152-.081-.222-.13.277.197-.325-.035-.07.145.073-.004.178.044.239.059-.197.029-.232.172-.179.295l-.203-.064c-.096.18.008.426-.045.643.114-.055.469.046.488.12l-.323-.05c.187.088.135-.039.355.104-.055.074-.372-.032-.465-.103l.088.125c-.096-.017-.14-.053-.26-.088.187.089-.355.09-.027.233l-.095-.018c-.055.212.047.345.001.516.27.079.188.129.389.243-.128.103-.385.178-.411.335.099.148.217.103.36.202-.247-.07-.273.089-.423-.047-.019.194-.026.246.095.547.107.01.159-.004.237.04.026.057-.133.061-.246.013l-.021-.02c.285.408-.905.319-.502.703l-.019-.021.165.311c-.083.076-.151-.133-.328-.127.293.391-.209.314-.031.614-.733-.196-.171.518-.714.452l.162.077c.125.129-.122.004-.176.016.123.064.168.031.236.106-.055.481-.675.663-1.064.905-.137.093.684.617.213.525l-.227-.245c.107.498-.424.508-.37.982-.044-.066-.118-.133-.098-.157-.214-.102-.173.178-.035.312-.053.02-.138-.113-.233-.16-.151-.052.097.329-.101.188-.032-.023-.042-.068-.046-.089.051.111-.17.12.057.287-.18-.011-.084.249-.267.198.165.271-.251.034.029.372-.298-.341-.395-.125-.313.09-.071-.122-.14-.061-.242-.226-.055.067-.064.181.094.349-.472-.325.003.536-.5.045-.061.345-.166.626-.302.858-.248-.377.19-.195-.092-.575-.069.282.038.683-.206.728-.081-.017-.079-.185-.106-.26-.087.285-.402.183-.451.498-.021-.036-.025-.087-.024-.127-.028.032-.115-.012-.007.163l.006-.067c.209.224.171.617.241.758-.231-.544-.255-.026-.523-.727-.004.046.014.148.086.264-.054-.015-.104-.079-.145-.235-.071.168.078.334-.04.395-.047-.088-.042-.135-.085-.244.035.202.066.407-.072.388-.022-.056-.069-.119-.039-.134-.154.115-.049.635-.335.545-.128-.414-.129-.099-.299-.432l-.057.145.119.146c-.095.034-.064.316-.195.239l.005-.17-.145.139.157.087c-.016.216.204.426.035.386.01-.046-.098.037-.234-.144h0c0,.128,0,.264-.106.209-.064-.102-.146-.387-.189-.455.075.307-.184.173-.117.506-.01-.081-.082-.263-.104-.297l.056.252c-.074-.056-.095-.09-.145-.238-.147.013.216.422-.014.299.005-.024-.015-.057-.004-.104-.194-.033-.243.285-.439.211-.173-.339.098-.128-.062-.409-.187.132-.29.567-.528.551l.052.027c.14.512-.239-.198-.264.073.014-.046-.058-.291-.046-.232-.167-.035-.248.218-.417.448l-.013-.139c-.119-.089-.24.005-.348-.026.011.139-.047.135.039.315-.488-.66-.44.54-.86-.018.03-.009.042-.133.018-.128l-.185.174c.074.22.062.129.153.292.006.139-.03.258-.085.271.062-.173-.091-.36-.164-.475.024.067.028.146.049.215-.212-.372.092.456-.131.225l-.02-.12c-.044.074-.061.244-.132.225-.087-.254.034-.137-.013-.352-.084.036-.059.536-.2.295.021-.082.075-.096.096-.177-.158-.285-.149-.205-.225-.238l.008.005-.179-.103.056.074c.041.707-.196.178-.249.661.055-.458-.028-.25-.08-.549-.055-.073-.131-.152-.133-.239-.019.258-.156-.166-.183.203-.024-.095-.078.004-.11-.239-.076.091.055.163.072.284-.078.352-.411-.338-.528.147-.141.216-.115.546-.252.736-.083-.144-.017-.358-.017-.358-.115-.125-.177-.088-.243.038.002-.087-.028-.155-.072-.258-.063.037.015.358-.099.232-.003-.11-.013-.285.001-.398-.064.102-.112.296-.18.397-.05-.164.007-.263.018-.378-.079.092-.214.195-.2.465l.075.084c-.032.019-.054-.225-.037-.278.045-.222.13.072.15.168l-.049.072c.154.553.223-.133.346-.121l.021.419.063-.362c.045.102.103.328.054.399.122.187.05-.159.164.053.014.034.014.054.01.072l.062-.137c0,.089.066.287.004.237.195.209.188-.35.303-.05l-.008.027c.184-.175-.036-.304.054-.684l.248.721-.037-.303c.024.007.071.022.086.143.04-.219-.039-.128-.031-.33.158.254.26-.178.381.294-.009-.234-.135-.158-.057-.335.137.506.111-.108.253.102.027.271-.093.153.052.366-.037-.46.206.053.268-.052-.074-.356.141-.19.248-.341.019.121.297.133.453.231l.011.06c-.062-.363.083-.327.158-.423.05.214.054.302.026.41l.088-.023c-.008-.119.005-.186.052-.241l.045.271c.115-.044.156-.371.355-.23-.058-.249-.302-.66-.19-.863.042.132.109.36.082.424.009-.021.018-.123.061-.072l-.003.24c.095.082-.015-.197.045-.189.051.191.077.126.111.279-.009.022-.069-.067-.07.013.071.019.177.114.242.252-.035-.107-.071-.256-.032-.292.114-.042.104.219.2.3-.008-.138.105-.028.026-.312.034-.01.078.121.114.193.024-.145.271-.127.114-.406l-.021-.015c.003-.006.003-.008.006-.016h0s0,0,0,0c.109-.344.454.028.611-.156l.03.094c.081-.145.238-.147.251-.375.034-.011.139.144.163.26.065-.099.037-.207.22-.095-.032.192.082.134-.05.149.144.043.225.183.257-.112.044.252.197.271.226.181l-.144-.143c.049-.055.111-.05.174-.05l.087.322c.385.279.17-.82.6-.266-.027-.242-.189-.097-.236-.373.122-.003.417.389.453.375.222.105-.053-.506.149-.456-.068-.1-.212-.383-.146-.533.121-.004.334.398.305.514-.022.02-.049-.009-.065-.046-.017.054-.042.12.053.22l-.034-.114c.102.088.246.012.292.204.035-.138-.046-.192-.132-.222.21.097.217-.088.409-.045-.051-.049-.132-.166-.109-.175.271.042-.006-.24.108-.351.156.12.164.402.232.191.138.063.16.271.169.377.022-.274.304.002.398-.002l-.023.122c.014-.073.048-.09.082-.108l-.149-.188c.058.015.092-.003.138.085-.033-.16-.216-.331-.238-.563.108.077.092-.2.262.066-.213-.003.171.267.057.389.009-.048.042-.065.102-.051.023.027.026.06.024.082.295.157-.1-.352.064-.436.067.166.205.271.213.223-.068.034-.178-.239-.188-.39.172.062.059-.151.12-.167l-.094-.022c-.07-.164-.008-.173.033-.26.077.115-.015.117.042.155-.084-.31.345.176.345-.065.115.073.182.28.271.323.003-.263.266.123.288-.127-.167-.173-.14-.121-.183-.377l-.109.286-.061-.383c-.061.039-.043.22-.105.204-.04-.201-.016-.148-.152-.296.277.245.045-.289.27-.154l.326.493c.295.111.085-.437.355-.45l-.12-.04c-.113-.208.095-.11.098-.23.112.163.192.193.292.272-.091-.115.146-.091-.078-.415l.242.145c.218-.028-.18-.565,0-.615.094.197.248.257.249.447.049-.034.116-.038.03-.144.111.078-.047-.313.114-.206-.038-.083-.167-.245-.109-.278.031.025.064.074.064.074-.063-.074-.013-.17-.198-.296.54.336.327-.373.804-.098.048-.137.114-.289.188-.379.037.046.07.069.04.07.249.015-.338-.461-.06-.443.3.154.057.184.186.227.497.427.095-.213.447-.06l.009.049c.226.071-.037-.346.093-.435,0,0,.039.043.074.064-.186-.297-.15-.518-.132-.688.172.192.064.135.284.274.013-.074-.337-.243-.314-.388.136.053.291.054.519.21l-.067.108c.323.167.093-.136.183-.15l.119.1c.082-.184-.235-.416-.085-.559l-.11-.051c-.249-.307.232.048.054-.208l.344.193c-.039-.118-.183-.433-.179-.583.209.22.253.435.347.616.041-.062.108-.234-.036-.371.017.046.078.131.012.123-.213-.247-.282-.427-.203-.545.639.422.359-.221.93-.017-.113-.366.391-.389.467-.7-.577-.167.022-.089-.534-.343-.007-.081.013-.1.051-.088l.417-.036c.182.029.094.119.221.172.107-.124.262.05.453.021-.207-.072-.262-.182-.148-.23h-.309c-.207-.334.546.035.344-.3l.147.141c-.057-.15.179-.392-.232-.676.074.008.24.045.26.108.197-.224-.29-.748.067-.839l.135.069c-.025-.062-.238-.175-.077-.185.057.023.135.068.15.048-.04-.042-.207-.211-.104-.246l.142.107c.268-.191-.265-.51-.298-.741.421.128.622-.028.723-.108l.059.02c.158-.28-.226-.599-.325-.908.502-.054.323-.523.646-.739-.088.025-.334-.078-.366-.135.102-.046-.26-.236.134-.145l-.013.021c.399.031.325-.123.359-.224l-.515-.116c.823-.128-.168-.745.537-.776-.121-.086-.108-.166-.229-.25l.279.047c.098-.169.146-.255.112-.487l.194.074c.036-.125-.786-.27-.786-.386l.424.021c.024-.217.427-.397.074-.656.061.01.183.03.195.068.022-.101.318-.369-.262-.391.376.036.055-.222-.101-.354l.276.045c-.346-.133-.443-.144-.53-.29.039-.029.225-.009.15.028.154-.096-.256-.108-.098-.226l.173.064c.03-.11-.065-.109-.267-.187-.106-.079.087-.205.34-.203-.152-.027-.352-.103-.274-.163.096-.002.153.026.18.04.204-.174-.301-.299-.018-.409.092.003.139-.002.168-.011-.019.148-.043.267-.063.254.256.018.311-.1.657.02-.185-.112-.592-.304-.462-.413.026-.003.05-.006.09-.01l.028.014c.028-.026.006-.051-.036-.077.045-.035.078-.057.085-.093.213-.002.126-.133.136-.192-.281-.009-.234-.085-.467-.024.021-.008.033.013.044.053.008.009.012.02.028.027l-.025-.005c.006.04.008.091.008.15-.139-.055-.253-.111-.095-.169-.179-.042-.363-.086-.451-.106.394-.061.61-.209.852-.22-.152-.19-.092-.437-.616-.57-.066-.054.153-.054.236-.07.052.032.043.067.118.086-.133-.109-.044-.309-.412-.345.17-.125.337.083.282-.098l.112.027c.599-.342-.925-.592-.158-.969-.047.027-.069.04-.131.045.355-.444-.316-.913.213-1.353.105-.126-.131-.137-.311-.211l.302-.03-.35-.126c-.258-.179.736-.33.251-.556l-.203.034c.037-.084-.124-.262.11-.253-.037-.008-.212-.022-.106-.058l.158-.006-.274-.199c.112-.162.627.008.655-.226-.062-.086-.463-.233-.568-.197-.007.035-.097.092-.255.1l-.083-.076c-.466,0-.943-.043-1.265.157l.286.124-.225.049-.016-.111c-.211.069-.023.104.107.145-.12.014-.204.035-.248.062l.446.118c-.182.02-.362-.049-.461.04.207.056.407-.069.544.029-.21.069-.383.054-.201.124-.12.013-.196,0-.249-.029.145.063.063.173.311.203-.26.071.071.223-.37.224.106.019.348.111.367.171-.529-.103-.028.228-.594.206.476.076.215.293.48.437-.038-.008-.114-.023-.09-.036-.038.082-.181.107-.27.159.392.009.483.136.726.205-.376.101-.461-.06-.824-.028.318-.006.319.174.583.14-.233.077-.113.066-.437.105.49.014.084.071.386.136-.24.11-.458.027-.308.149-.151.057-.324-.052-.324-.052ZM33.695,20.144h-.006c-.005-.025-.009-.047-.011-.061.003.012.008.03.017.061ZM33.68,20.387c.013-.029.018-.065.019-.104.097-.002.197.013.19.037-.064-.017-.124.036-.209.067ZM35.666,19.979c.036.042-.02.053-.078.055-.003-.019-.011-.042-.028-.072l-.034-.007c.053.007.103.014.14.023Z"/>
    <path class="cls-5" d="M35.302,19.887c-.006-.006-.018-.01-.02-.017-.025.008-.046.015-.064.02l.088.019-.004-.022Z"/>
    <path class="cls-5" d="M22.92,37.306l.007.004c-.007-.009-.014-.019-.022-.035.006.013.01.02.015.03Z"/>
    <polygon class="cls-5" points="32.782 23.624 32.852 23.635 32.794 23.604 32.782 23.624"/>
    <path class="cls-5" d="M21.352,36.722c-.008-.023-.019-.047-.034-.066.005.018.019.04.034.066Z"/>
    <path class="cls-5" d="M20.776,36.797l-.101-.078c.047.047.078.068.101.078Z"/>
    <path class="cls-5" d="M20.316,36.766c.007.049.012.086.017.12h.001s-.018-.12-.018-.12Z"/>
    <path class="cls-5" d="M26.65,34.112s.007-.01.008-.019c.005-.065-.006-.034-.008.019Z"/>
    <path class="cls-5" d="M25.122,35.614c0-.056,0-.11.009-.148-.043-.005-.071.001-.009.148Z"/>
    <polygon class="cls-5" points="28.236 32.593 28.239 32.597 28.248 32.588 28.236 32.593"/>
    <path class="cls-5" d="M25.222,35.433c-.057-.037-.08-.014-.091.034.035.005.08.017.091-.034Z"/>
    <path class="cls-5" d="M18.401,36.985l-.023-.008c.002.018.004.033.005.045l.018-.037Z"/>
    <path class="cls-5" d="M18.382,37.022l-.018.037c.011-.002.02-.006.018-.037Z"/>
    <path class="cls-5" d="M18.326,37.138l.038-.079c-.017.002-.04-.003-.038.079Z"/>
    <path class="cls-5" d="M19.001,37.01l-.011-.102c0,.021.004.054.011.102Z"/>
    <path class="cls-5" d="M19.172,36.95c-.046-.015-.144-.195-.191-.122l.009.081c0-.154.173.218.182.041Z"/>
    <path class="cls-5" d="M20.155,38.055l-.168-.053c.047.102.111.239.047.277.256.284-.087-.231.121-.224Z"/>
    <path class="cls-5" d="M20.657,38.113c-.071.069.034.154.043.215.031-.109.038-.137-.043-.215Z"/>
    <path class="cls-5" d="M24.026,37.182l.075.244c.05-.055-.032-.094-.075-.244Z"/>
    <polygon class="cls-5" points="24.196 35.733 24.085 35.606 24.14 35.835 24.196 35.733"/>
    <polygon class="cls-5" points="25.215 37.277 25.201 37.323 25.269 37.193 25.215 37.277"/>
    <path class="cls-5" d="M30.361,33.975l-.231-.214c.006.072.241.337.231.214Z"/>
    <path class="cls-5" d="M31.869,31.777c.148.07.275.066.169-.062-.047.04-.183.016-.169.062Z"/>
    <polygon class="cls-5" points="35.172 24.707 35.264 24.778 35.2 24.665 35.172 24.707"/>
  </g>
</svg>