<?xml version="1.0" encoding="UTF-8"?>
<svg id="Layer_1" xmlns="http://www.w3.org/2000/svg" viewBox="0 0 41 35">
  <defs>
    <style>
      .cls-1 {
        fill: #ffefc2;
      }

      .cls-2 {
        fill: #ff841b;
      }
    </style>
  </defs>
  <polygon class="cls-2" points="1 34 40 34 22.157 2.896 1 34"/>
  <path class="cls-1" d="M25.162,27.268c-.882.636-1.957.946-3.042.877h-2.524v4.251h-2.524v-11.956h5.207c1.036-.055,2.057.271,2.869.917.768.743,1.162,1.791,1.076,2.856.138,1.128-.254,2.257-1.063,3.055ZM23.169,22.964c-.384-.281-.853-.422-1.328-.399h-2.245v3.52h2.245c.48.025.952-.126,1.328-.425.34-.355.514-.838.478-1.328.063-.506-.114-1.012-.478-1.368ZM30.356,19.391c.151-.33.009-.721-.319-.877l-8.861-4.118-8.914,4.118c-.334.154-.48.55-.325.883.154.334.55.48.883.325h0l8.356-3.866,8.356,3.852c.33.151.721.009.877-.319h-.053Z"/>
</svg>