<?xml version="1.0" encoding="UTF-8"?>
<svg id="Layer_1" xmlns="http://www.w3.org/2000/svg" viewBox="0 0 45 39">
  <defs>
    <style>
      .cls-1 {
        fill: #db864e;
      }

      .cls-2 {
        opacity: .2;
      }

      .cls-3 {
        fill: #ffefc2;
      }

      .cls-4 {
        fill: #ff841b;
      }
    </style>
  </defs>
  <polygon class="cls-2" points="1 35 44 37.031 25.939 5.896 1 35"/>
  <polygon class="cls-4" points=".781 33.969 40 34 21.939 2.865 .781 33.969"/>
  <polygon class="cls-4" points=".781 34.969 40 35 21.939 3.865 .781 34.969"/>
  <path class="cls-3" d="M25.162,27.268c-.882.636-1.957.946-3.042.877h-2.524v4.251h-2.524v-11.956h5.207c1.036-.055,2.057.271,2.869.917.768.743,1.162,1.791,1.076,2.856.138,1.128-.254,2.257-1.063,3.055ZM23.169,22.964c-.384-.281-.853-.422-1.328-.399h-2.245v3.52h2.245c.48.025.952-.126,1.328-.425.34-.355.514-.838.478-1.328.063-.506-.114-1.012-.478-1.368ZM30.356,19.391c.151-.33.009-.721-.319-.877l-8.861-4.118-8.914,4.118c-.334.154-.48.55-.325.883.154.334.55.48.883.325h0l8.356-3.866,8.356,3.852c.33.151.721.009.877-.319h-.053Z"/>
  <g>
    <path class="cls-1" d="M20.831,33.364c-.021.085-.017.281.036.244l.046-.33-.082.086Z"/>
    <path class="cls-1" d="M21.156,33.987c.065-.159.143-.438.113-.743-.069.316-.08.183-.155.56-.052.037-.086-.109-.074-.23-.021.084-.077-.075-.111.132.059.258.143.271.237.062.017.074-.004.159-.01.22Z"/>
    <path class="cls-1" d="M26.135,34.655l-.031-.04c.008.022.019.034.031.04Z"/>
    <path class="cls-1" d="M29.224,34.931c-.024.007-.035.04-.037.07.023-.021.041-.041.037-.07Z"/>
    <path class="cls-1" d="M29.741,35.311c-.012-.009-.021-.016-.03-.023.011.031.022.048.03.023Z"/>
    <path class="cls-1" d="M26.135,34.655l.079.106c.009-.108-.04-.081-.079-.106Z"/>
    <path class="cls-1" d="M21.869,33.21c-.018.015-.033.046-.048.086.015-.014.029-.026.043-.034l.004-.052Z"/>
    <path class="cls-1" d="M24.762,34.882h-.025c-.007.037-.016.083-.025.134l.05-.134Z"/>
    <path class="cls-1" d="M23.714,34.9c.023.013.04-.268.053-.39-.017.115-.036.17-.057.191-.002.053,0,.117.005.199Z"/>
    <path class="cls-1" d="M22.069,34.356l-.031.038.031-.038Z"/>
    <path class="cls-1" d="M25.51,34.965c.003.042.005.079.006.101.001-.035-.002-.069-.006-.101Z"/>
    <path class="cls-1" d="M30.434,21.882c.017-.01.028-.016.043-.025-.028.009-.046.017-.043.025Z"/>
    <polygon class="cls-1" points="31.027 20.133 31.048 20.14 31.186 20.064 31.027 20.133"/>
    <path class="cls-1" d="M30.697,35.701l-.004-.006c-.026.031-.012.026.004.006Z"/>
    <path class="cls-1" d="M41.183,35.428c-.347-.098-.668-.507-1.024-.564.169.072.851.591,1.024.564Z"/>
    <path class="cls-1" d="M21.895,33.248c.014-.003.029-.005.043-.001-.019-.01-.032-.009-.043.001Z"/>
    <path class="cls-1" d="M40.159,34.864l-.004-.002-.034-.006c.015.003.025.005.038.008Z"/>
    <path class="cls-1" d="M32.93,35.6c-.003-.05-.011-.087-.019-.124,0,.029.004.064.019.124Z"/>
    <path class="cls-1" d="M31.282,35.149l.04.039c-.016-.026-.028-.035-.04-.039Z"/>
    <path class="cls-1" d="M33.804,35.229c.022.022.028.061.06.024-.003-.014-.006-.024-.008-.034-.012.038-.027.056-.052.01Z"/>
    <path class="cls-1" d="M34.701,35.255c-.006-.021-.01-.038-.015-.057l-.029.014.044.043Z"/>
    <path class="cls-1" d="M31.922,24.172c.059-.057.128-.111.197-.163-.166.112-.294.034-.197.163Z"/>
    <path class="cls-1" d="M21.864,33.368c.007-.071.016-.106.03-.12-.01.003-.021.008-.03.014-.004.042-.006.081,0,.106Z"/>
    <path class="cls-1" d="M33.908,33.014l.141.046c-.039-.029-.09-.044-.141-.046Z"/>
    <path class="cls-1" d="M35.193,29.717l-.046-.011c0,.014.014.02.046.011Z"/>
    <path class="cls-1" d="M34.473,33.031c.022.1.048.158.074.197.007-.022.014-.04.019-.072l-.093-.125Z"/>
    <path class="cls-1" d="M32.122,24.007l-.002.002.002-.002Z"/>
    <path class="cls-1" d="M31.072,23.531c.061.121.345-.127.542-.208.172.087-.197.201-.333.344.136.038.468-.065.493.007-.05.035-.062.059-.136.083.308-.055.172.267.554.19-.024.024-.048.044-.071.06.15-.111.311-.208.429-.272.036.049.259-.02.061.122-.013-.036-.098.01-.172.033l.123.003c-.271.224-.147-.015-.369.114.16.051.481.032.444.164-.284.188-.211-.135-.408.126l.038-.193c-.406.367-.013-.096-.456.281.013.217.259.101.271.318.185-.057.234-.153.419-.21.432.068-.629.617-.136.564.222-.068.604-.267.48-.028l-.357.151c.062.182.531-.185.407.115-.148.046-.184-.064-.209-.016-.198.263.234-.031.283.053l-.284.189c.147.146.47.213.635.374-.094.04-.205.061-.268.158.287.156.264.537.225.871l.306-.058c.009.022-.092.105-.155.111-.043.147.164-.089.289-.103.048.041-.106.153-.201.165.308.035.729.187.555.514l-.095.011c-.026.191.606-.154.441.106l-.059.003c.056.349.472.53.216.97.39-.171.001.377.522.099-.158.31-.276.316-.312.645.012.075.371-.094.469-.049l-.265.157.339-.06-.287.24.11.031c0-.038.085-.13.164-.17.185.041-.028.379-.163.461l.378.132c-.111.056-.173.034-.262.039.353-.018-.266.189.058.172.051-.052.164-.083.22-.111-.124.158-.04.304.09.373l-.196.086c.066.222.327.36.451.58.04-.128.369-.295.437-.249l-.267.189c.198-.06.067-.129.33-.168.015.101-.288.241-.407.248l.156.042c-.081.055-.139.057-.249.113.199-.061-.183.336.155.218l-.081.054c.125.22.279.263.397.433.245-.138.232-.037.459-.098-.002.176-.108.432.004.578.181.033.222-.093.389-.138-.219.132-.171.169-.353.222.07.037.075.027.35.087.107-.024.146-.048.244-.054.06.02-.085.068-.223.075l-.032-.002c.246.04.087.139-.102.149-.181.023-.387-.035,0,.098l-.039-.014c.14.056.287.124.441.206-.043.014-.295-.124-.514-.186.332.146.337.184.298.184-.035.006-.111-.023.146.136-.46-.233-.57-.293-.554-.275.006.008.252.223-.203-.095l.254.186c.231.181-.158-.107-.215-.149.186.141.213.162.353.267.074.11-.117.039-.269-.078-.161-.117-.28-.279-.305-.36.001-.048.25.929.073.498-.009-.11-.023-.221-.042-.332.008.099-.009.147-.029.169-.007.022-.175.014-.255.006-.2-.017-.399-.041-.598.121.025-.075.029-.174.067-.172-.074-.242-.301-.021-.309.175-.059-.024-.009-.177-.043-.278-.078-.144-.215.3-.251.06-.006-.039.025-.077.041-.095-.057.115-.248-.037-.205.241-.141-.136-.281.115-.392-.053-.085.307-.244-.156-.281.28.024-.452-.243-.372-.341-.163.035-.136-.075-.144-.034-.332-.105.003-.203.084-.192.317-.176-.547-.401.424-.488-.273-.318.234-.611.389-.893.486.024-.45.31-.035.313-.509-.271.178-.435.56-.695.443-.066-.064.045-.195.07-.271-.271.178-.511-.057-.754.182.002-.042.029-.087.054-.121-.047.013-.106-.07-.107.136l.047-.054c.065.3-.203.616-.216.773.097-.585-.228-.155-.081-.893-.032.038-.073.134-.07.271-.044-.041-.056-.122-.005-.276-.17.107-.117.326-.268.317.004-.099.035-.137.054-.253-.082.191-.165.382-.29.295.01-.06-.003-.138.035-.135-.22.023-.389.504-.623.31.084-.429-.077-.145-.079-.518l-.132.107.046.183c-.113-.01-.221.259-.315.134l.089-.151-.214.064.116.145c-.12.189-.002.473-.149.364.032-.037-.113-.008-.165-.23h0c-.06.116-.121.239-.202.144-.018-.12.03-.412.018-.492-.065.31-.267.078-.347.409.026-.077.033-.273.026-.314l-.054.252c-.05-.083-.056-.122-.043-.278-.156-.051.036.475-.145.265.015-.02.009-.058.041-.096-.185-.112-.368.15-.536.02-.039-.377.154-.087.105-.406-.251.06-.529.434-.767.339l.044.043c-.049.529-.171-.268-.301-.021.031-.038.048-.293.038-.234-.162-.09-.341.12-.596.279l.035-.135c-.093-.125-.254-.078-.357-.143-.035.135-.095.111-.064.31-.3-.785-.63.397-.897-.258.034,0,.086-.117.058-.118l-.248.118c.012.232.028.141.074.322-.035.136-.107.24-.168.238.115-.15.01-.371-.033-.501.006.071-.013.149-.011.221-.115-.415-.036.464-.202.182l.013-.121c-.067.06-.132.218-.202.182-.021-.268.073-.123.084-.342-.099.012-.211.5-.292.231.044-.073.105-.073.149-.145-.088-.317-.102-.237-.173-.289l.007.007-.163-.147.04.086c-.145.693-.256.119-.436.571.175-.427.034-.249.056-.551-.04-.085-.102-.182-.081-.266-.086.242-.126-.197-.248.157-.002-.098-.084-.012-.059-.256-.105.074.019.17.007.292-.168.328-.359-.415-.6.035-.202.182-.248.51-.434.668-.057-.158.061-.354.061-.354-.095-.147-.17-.122-.266-.013.021-.085.004-.157-.021-.268-.076.023-.061.354-.155.207.02-.108.047-.281.087-.389-.091.087-.184.266-.277.351-.019-.171.063-.256.099-.366-.105.074-.271.146-.31.414l.063.098c-.038.012-.012-.231.017-.28.094-.208.124.097.126.195l-.067.06c.049.574.264-.084.394-.047l-.067.414.145-.341c.025.109.038.342-.029.402.088.208.088-.145.161.086.008.036.003.056-.006.072l.095-.121c-.021.087.006.294-.048.232.157.245.275-.304.327.013l-.015.025c.233-.134.031-.305.214-.658l.092.756.032-.304c.023.012.069.036.057.158.094-.206-.011-.133.046-.329.105.281.317-.121.327.366.048-.231-.103-.182.023-.34.019.524.143-.085.239.158-.04.269-.134.123-.037.367.076-.454.199.106.289.021.015-.363.195-.146.345-.262-.013.122.27.208.402.344l-.006.061c.038-.366.176-.293.281-.365-.011.219-.032.306-.09.402h.096c.026-.116.058-.177.122-.217l-.033.274c.129-.011.268-.315.427-.127.017-.256-.109-.717.07-.882.002.139.001.375-.046.431.016-.018.057-.113.085-.053l-.077.231c.072.105.045-.193.105-.17-.007.197.04.142.027.299-.016.019-.05-.083-.075-.006.067.037.145.157.167.307-.003-.112.008-.266.058-.29.129-.01.037.239.108.343.035-.136.113.008.124-.287.037.003.04.141.052.221.07-.128.311-.028.246-.344l-.016-.021.011-.013h0,0c.226-.287.446.181.666.061l-.003.099c.132-.109.289-.058.387-.267.038.001.084.183.065.3.101-.071.115-.182.252-.015-.104.169.03.154-.105.123.125.089.149.248.295-.018-.054.251.087.321.15.248l-.084-.184c.069-.035.129-.01.189.013l-.043.332c.249.413.493-.674.672.009.076-.23-.137-.168-.067-.438.119.049.23.53.268.532.159.189.169-.481.337-.35-.018-.119-.03-.436.103-.544.119.048.133.502.054.595-.029.009-.042-.029-.04-.069-.04.042-.093.091-.049.221l.019-.118c.056.123.222.115.177.309.094-.11.045-.193-.021-.257.149.177.241.012.397.133-.023-.066-.042-.206-.017-.204.229.154.11-.222.269-.269.084.184-.045.431.118.284.093.125.011.315-.031.411.152-.224.266.159.348.203l-.079.093c.047-.055.085-.053.123-.051l-.036-.239c.044.043.082.045.078.144.051-.154-.023-.396.075-.605.056.122.186-.124.197.192-.185-.113.011.317-.15.363.032-.037.069-.034.113.009.006.035-.008.065-.021.083.171.287.094-.354.28-.341-.029.177.033.338.065.301-.075-.006-.027-.297.046-.431.115.142.133-.099.195-.081l-.069-.067c.03-.177.089-.152.174-.205.003.138-.079.093-.051.155.102-.309.199.329.335.123.056.122-.004.334.046.417.152-.226.149.248.307.062-.037-.24-.046-.182.068-.411l-.255.16.171-.342c-.075-.006-.164.145-.208.103.082-.192.073-.133.043-.332.092.361.211-.202.323.043l-.022.59c.171.269.328-.293.556-.138l-.072-.105c.038-.234.145-.028.223-.121-.013.197.032.27.06.394,0-.147.17.019.203-.375l.096.263c.185.112.232-.556.41-.483-.061.213.017.355-.109.505.06.004.113.042.119-.095.031.125.175-.261.225-.072.028-.086.043-.292.11-.274.006.04-.003.097-.003.097.003-.097.11-.129.058-.35.167.621.521-.029.667.505.134-.062.294-.121.414-.132-.009.059-.003.098-.025.077.159.189.119-.564.3-.353.086.322-.105.169-.049.292.006.65.229-.082.344.301l-.032.037c.09.224.243-.239.399-.188,0,0-.009.057-.004.098.125-.328.31-.432.496-.518-.053.253-.089.132-.049.391.092-.034-.02-.416.133-.483.057.141.196.267.263.545l-.186.009c.138.361.252-.005.355.061l.022.157c.308-.041.169-.438.457-.402l-.084-.121c-.054-.391.239.226.227-.063l.286.404c.063-.093.111-.378.198-.45.164.298.048.444.006.617.12.007.386-.017.276-.216-.01.038.009.135-.083.071-.103-.314-.104-.466.08-.454.748.789.707.215,1.631.837.041-.251.827.067,1.377.118-.021-.043-.048-.092-.086-.146-.948-.445-.105-.147-1.141-.712-.116-.121-.116-.141-.054-.113.156.026.303.037.443.034.245.067.274.203.494.308-.064-.203.362.107.518.052-.327-.128-.545-.315-.499-.401-.105.006-.214.006-.326,0-.68-.521.616.038-.073-.506l.347.213c-.269-.237-.415-.721-1.151-1.009.076-.009.268-.012.371.077-.077-.205-.381-.468-.62-.676-.242-.214-.423-.377-.351-.555l.175.004c-.092-.073-.367-.072-.266-.198.065-.011.169-.006.157-.044-.079-.033-.375-.123-.345-.246l.21.027c-.024-.235-.222-.372-.415-.426-.169-.013-.368-.003-.469-.074.381-.221.399-.474.408-.6l.056-.028c-.109-.295-.58-.272-.874-.433.323-.394-.131-.622-.043-1.004-.047.078-.3.166-.364.145.043-.103-.357-.007-.003-.201l.005.025c.317-.243.156-.309.112-.408l-.465.25c.522-.63-.615-.497-.098-.976-.148.008-.189-.066-.337-.058l.247-.139c-.032-.199-.049-.299-.224-.466l.199-.061c-.05-.123-.789.267-.865.17l.347-.244c-.121-.195.083-.582-.362-.585.055-.028.164-.083.198-.06-.045-.099.037-.505-.444-.179.325-.192-.087-.223-.293-.246l.25-.123c-.36.089-.446.135-.605.058.014-.048.178-.138.139-.063.068-.173-.273.055-.215-.14l.18-.044c-.041-.113-.119-.057-.331-.009-.134-.008-.052-.23.157-.372-.141.063-.351.111-.323.014.078-.056.141-.064.173-.067.064-.267-.428-.092-.26-.348.078-.049.114-.08.132-.104.073.14.124.257.1.257.222-.129.197-.262.555-.353-.219.009-.67.07-.628-.098.019-.018.037-.035.069-.059l.031-.003c.008-.038-.026-.048-.075-.047.017-.055.031-.093.015-.128.176-.119.026-.184.003-.244-.24.146-.243.051-.405.235.013-.019.035-.007.067.024.012.004.021.012.039.009l-.024.009c.028.032.061.076.096.127-.149.028-.279.044-.179-.096-.173.06-.352.122-.437.151.295-.272.394-.523.592-.665-.234-.088-.319-.342-.837-.182-.086-.014.099-.131.16-.19.062,0,.074.038.148.014-.172-.027-.21-.256-.542-.093.074-.204.333-.103.185-.238l.11-.034c.321-.621-1.121-.054-.676-.794-.026.048-.037.072-.087.108.05-.578-.762-.688-.54-1.358.025-.169-.186-.063-.381-.043l.247-.177-.371.055c-.319-.042.469-.667-.073-.64l-.16.13c-.012-.097-.246-.185-.036-.29-.037.011-.198.081-.124-.003l.135-.082-.345-.054c.013-.205.556-.292.457-.523-.099-.049-.53.004-.604.087.012.036-.037.132-.173.214l-.114-.032c-.41.221-.855.404-1.032.747l.319-.018-.172.154-.074-.098c-.149.166.036.11.172.087-.098.07-.16.13-.185.177l.456-.101c-.149.106-.344.127-.383.26.212-.046.321-.26.493-.233-.148.166-.307.235-.11.215-.098.07-.173.094-.234.092.161-.01.149.135.381.043-.19.194.181.177-.203.392.103-.033.363-.064.412-.016-.517.16.098.23-.407.487.455-.161.345.174.653.18-.037.011-.112.035-.098.01.011.097-.1.192-.148.286.344-.187.492-.112.739-.168-.271.285-.431.174-.728.386.272-.164.37.006.58-.16-.16.19-.062.12-.321.32.431-.234.111.026.406-.065-.148.226-.381.258-.185.298-.098.13-.307.115-.307.115ZM33.4,25.848l-.005.003c-.019-.02-.036-.038-.047-.049.011.009.025.022.052.046ZM33.538,26.077c-.007-.034-.026-.069-.049-.105.079-.057.171-.098.18-.073-.064.02-.08.103-.131.178ZM34.938,24.61c.056.016.015.056-.032.09-.014-.015-.034-.03-.066-.047l-.032.013c.048-.024.094-.045.13-.057Z"/>
    <path class="cls-1" d="M34.581,24.729c-.009-.002-.02,0-.026-.005-.016.021-.03.038-.042.054l.084-.031-.015-.017Z"/>
    <path class="cls-1" d="M26.098,34.608l.005.007c-.004-.011-.008-.022-.011-.04.002.014.003.022.005.034Z"/>
    <polygon class="cls-1" points="34.924 29.53 34.985 29.494 34.92 29.505 34.924 29.53"/>
    <path class="cls-1" d="M24.659,33.599c-.002-.025-.007-.051-.017-.072,0,.018.008.044.017.072Z"/>
    <path class="cls-1" d="M24.027,33.517l-.087-.103c.037.058.065.086.087.103Z"/>
    <path class="cls-1" d="M23.544,33.363c-.005.049-.009.086-.013.12v.002s.013-.122.013-.122Z"/>
    <path class="cls-1" d="M31.306,33.268c.007-.001.013-.005.019-.012.046-.053.015-.033-.019.012Z"/>
    <path class="cls-1" d="M28.979,33.855c.026-.05.052-.1.078-.13-.04-.023-.072-.029-.078.13Z"/>
    <polygon class="cls-1" points="33.892 33.009 33.892 33.013 33.908 33.014 33.892 33.009"/>
    <path class="cls-1" d="M29.164,33.732c-.039-.057-.074-.046-.107-.008.033.02.072.05.107.008Z"/>
    <path class="cls-1" d="M21.435,33.171l-.023-.012c-.002.019-.003.034-.004.045l.027-.033Z"/>
    <path class="cls-1" d="M21.407,33.203l-.027.032c.012,0,.022-.001.027-.032Z"/>
    <path class="cls-1" d="M21.323,33.305l.057-.069c-.019-.001-.042-.011-.057.069Z"/>
    <path class="cls-1" d="M22.076,33.32l.01-.102c-.005.021-.008.054-.01.102Z"/>
    <path class="cls-1" d="M22.273,33.297c-.046-.025-.111-.221-.178-.159l-.009.081c.035-.151.137.249.187.078Z"/>
    <path class="cls-1" d="M23.054,34.581l-.162-.086c.025.109.059.257-.017.28.197.33-.035-.244.179-.194Z"/>
    <path class="cls-1" d="M23.558,34.754c-.09.048-.004.158-.01.219.059-.097.073-.122.01-.219Z"/>
    <path class="cls-1" d="M27.241,34.867l-.017.255c.069-.035.004-.099.017-.255Z"/>
    <polygon class="cls-1" points="27.985 33.567 27.924 33.406 27.885 33.64 27.985 33.567"/>
    <polygon class="cls-1" points="28.346 35.401 28.315 35.437 28.431 35.347 28.346 35.401"/>
    <path class="cls-1" d="M34.534,35.498l-.011-.315c-.048.055-.068.409.011.315Z"/>
    <path class="cls-1" d="M37.573,35.27c.112.161.29.268.276.112-.105-.025-.252-.152-.276-.112Z"/>
    <polygon class="cls-1" points="37.464 28.872 37.582 28.866 37.456 28.823 37.464 28.872"/>
  </g>
</svg>