<?xml version="1.0" encoding="UTF-8"?>
<svg id="Layer_1" xmlns="http://www.w3.org/2000/svg" viewBox="0 0 233 120">
  <defs>
    <style>
      .cls-1 {
        fill: #fed777;
      }

      .cls-2 {
        fill: #ffc023;
      }

      .cls-3 {
        opacity: .2;
      }
    </style>
  </defs>
  <path class="cls-3" d="M230.893,9.136l-1.893-5.136L3.108,8.986l-1.108,87.014.72,5.155,96.539,2.718,11.612,14.187,5.917-13.978.505-1.022,113.708-7.21v-5.849l-.107-80.864ZM5.871,13.059l.082.003.115,84.985-.196.011V13.059Z"/>
  <g>
    <polygon class="cls-1" points="4.704 7.849 228.607 7.849 229.736 90.849 116.028 98.059 109.607 111.059 99.945 98.62 4.607 95.849 4.704 7.849"/>
    <path class="cls-2" d="M116.041,97.859l-6.434,15.201-11.612-14.187L1.456,96.155,1.844,3.986l227.785.149-.378,86.673M99.895,94.787l8.712,13.272,6-15,110-7-1-78H4.607v85l95.288,1.728Z"/>
  </g>
</svg>